<?xml version="1.0" encoding="UTF-8"?>
<!DOCTYPE svg PUBLIC "-//W3C//DTD SVG 1.1//EN" "http://www.w3.org/Graphics/SVG/1.1/DTD/svg11.dtd">
<!-- Creator: CorelDRAW 2020 (64-Bit Versión de evaluación) -->
<svg xmlns="http://www.w3.org/2000/svg" xml:space="preserve" width="300px" height="56px" version="1.1" style="shape-rendering:geometricPrecision; text-rendering:geometricPrecision; image-rendering:optimizeQuality; fill-rule:evenodd; clip-rule:evenodd"
viewBox="0 0 262.17 48.94"
 xmlns:xlink="http://www.w3.org/1999/xlink"
 xmlns:xodm="http://www.corel.com/coreldraw/odm/2003">
 <defs>
  <style type="text/css">
   <![CDATA[
    .fil1 {fill:#BEBEBE}
    .fil0 {fill:white}
    .fil2 {fill:white;fill-rule:nonzero}
   ]]>
  </style>
 </defs>
 <g id="Capa_x0020_1">
  <metadata id="CorelCorpID_0Corel-Layer"/>
  <g id="_2573064248912">
   <polygon class="fil0" points="0,15.09 20.62,0 41.23,15.09 61.85,0 61.85,33.85 41.23,48.94 20.62,33.85 0,48.94 "/>
   <polygon class="fil1" points="41.23,15.09 20.62,0 20.62,33.85 41.23,48.94 "/>
   <path class="fil2" d="M193.38 36.08c0,0.86 -0.31,1.59 -0.93,2.17 -0.61,0.61 -1.33,0.91 -2.17,0.91l-0.07 0c-0.83,0 -1.55,-0.3 -2.17,-0.91 -0.61,-0.58 -0.92,-1.31 -0.92,-2.17l0 -14.04c0,-3.37 1.2,-6.26 3.6,-8.67 2.39,-2.39 5.29,-3.6 8.67,-3.6 4.05,0 7.11,1.34 9.16,4.04 2.04,-2.7 5.09,-4.04 9.14,-4.04 3.38,0 6.27,1.21 8.67,3.6 2.4,2.41 3.6,5.3 3.6,8.67l0 14.04c0,0.85 -0.3,1.57 -0.9,2.17 -0.61,0.61 -1.34,0.91 -2.19,0.91l-0.04 0c-0.88,0 -1.6,-0.3 -2.17,-0.91 -0.62,-0.58 -0.93,-1.31 -0.93,-2.17l0 -14.04c0,-1.66 -0.58,-3.08 -1.76,-4.25 -1.17,-1.18 -2.6,-1.76 -4.28,-1.76 -1.67,0 -3.09,0.58 -4.26,1.76 -1.17,1.17 -1.77,2.59 -1.77,4.25l0 14.04c0,0.86 -0.3,1.59 -0.91,2.17 -0.58,0.61 -1.31,0.91 -2.17,0.91l-0.05 0c-0.85,0 -1.59,-0.3 -2.2,-0.91 -0.61,-0.58 -0.91,-1.31 -0.91,-2.17l0 -14.04c0,-1.66 -0.59,-3.08 -1.77,-4.25 -1.17,-1.18 -2.58,-1.76 -4.26,-1.76 -1.66,0 -3.08,0.58 -4.26,1.76 -1.17,1.17 -1.75,2.59 -1.75,4.25l0 14.04zm68.07 -17.74c0.2,0.43 0.31,0.86 0.31,1.31 0,0.36 -0.07,0.71 -0.2,1.07 -0.3,0.8 -0.84,1.38 -1.64,1.73 -2.38,1.07 -5.51,2.48 -9.39,4.24 -4.81,2.17 -7.63,3.46 -8.47,3.85 1.3,1.63 3.31,2.45 6.05,2.45 1.82,0 3.47,-0.54 4.95,-1.61 1.45,-1.05 2.46,-2.41 3.04,-4.08 0.49,-1.39 1.48,-2.09 2.95,-2.09 1.06,0 1.9,0.44 2.54,1.33 0.38,0.54 0.58,1.11 0.58,1.7 0,0.36 -0.07,0.73 -0.21,1.1 -1,2.91 -2.76,5.26 -5.28,7.05 -2.55,1.85 -5.41,2.77 -8.57,2.77 -4.05,0 -7.51,-1.43 -10.39,-4.31 -2.87,-2.87 -4.31,-6.34 -4.31,-10.39 0,-4.04 1.44,-7.5 4.31,-10.38 2.88,-2.87 6.34,-4.31 10.39,-4.31 2.93,0 5.59,0.8 8.01,2.4 2.4,1.57 4.18,3.62 5.33,6.17zm-13.34 -2.26c-2.35,0 -4.34,0.82 -6,2.47 -1.63,1.65 -2.44,3.65 -2.44,5.99l0 0.19 14.26 -6.41c-1.26,-1.49 -3.2,-2.24 -5.82,-2.24zm-154.59 20c0,0.86 -0.31,1.59 -0.92,2.17 -0.61,0.61 -1.34,0.91 -2.17,0.91l-0.08 0c-0.83,0 -1.55,-0.3 -2.17,-0.91 -0.61,-0.58 -0.91,-1.31 -0.91,-2.17l0 -13.96c0,-3.4 1.21,-6.31 3.62,-8.72 2.41,-2.42 5.32,-3.63 8.73,-3.63 3.38,0 6.28,1.21 8.7,3.63 2.41,2.41 3.62,5.32 3.62,8.72l0 13.96c0,0.86 -0.31,1.59 -0.92,2.17 -0.58,0.61 -1.3,0.91 -2.17,0.91l-0.05 0c-0.85,0 -1.58,-0.3 -2.19,-0.91 -0.62,-0.58 -0.93,-1.31 -0.93,-2.17l0 -13.96c0,-1.68 -0.58,-3.12 -1.75,-4.31 -1.2,-1.19 -2.63,-1.78 -4.31,-1.78 -1.7,0 -3.15,0.59 -4.34,1.78 -1.18,1.19 -1.76,2.63 -1.76,4.31l0 13.96zm33.81 -5.56l8.08 -18.86c0.55,-1.26 1.5,-1.89 2.87,-1.89l0.04 0c1.1,0 1.97,0.47 2.58,1.41 0.35,0.53 0.54,1.08 0.54,1.66 0,0.4 -0.1,0.82 -0.28,1.24l-9.47 22.12c-0.78,1.98 -2.23,2.96 -4.34,2.96 -2.14,0 -3.59,-0.98 -4.36,-2.96l-9.49 -22.12c-0.17,-0.42 -0.25,-0.83 -0.25,-1.22 0,-0.58 0.17,-1.14 0.53,-1.68 0.61,-0.94 1.47,-1.41 2.58,-1.41l0.07 0c1.36,0 2.3,0.63 2.83,1.89 4.07,9.51 6.41,14.98 7.05,16.43 0,0.07 0.34,0.88 1.02,2.43zm20.45 -20.75c0.86,0 1.59,0.31 2.17,0.92 0.61,0.62 0.91,1.35 0.91,2.19l0 23.2c0,0.86 -0.3,1.59 -0.91,2.17 -0.58,0.61 -1.31,0.91 -2.17,0.91l-0.05 0c-0.85,0 -1.59,-0.3 -2.2,-0.91 -0.6,-0.58 -0.92,-1.31 -0.92,-2.17l0 -23.2c0,-0.84 0.32,-1.57 0.92,-2.19 0.61,-0.61 1.35,-0.92 2.2,-0.92l0.05 0zm21.21 0c4.05,0 7.51,1.44 10.39,4.31 2.87,2.88 4.31,6.34 4.31,10.38l0 11.62c0,0.86 -0.31,1.59 -0.92,2.17 -0.61,0.61 -1.34,0.91 -2.16,0.91l-0.08 0c-0.84,0 -1.56,-0.3 -2.17,-0.91 -0.62,-0.58 -0.92,-1.31 -0.92,-2.17 -1.94,2.06 -4.76,3.08 -8.45,3.08 -4.04,0 -7.51,-1.43 -10.38,-4.31 -2.88,-2.87 -4.31,-6.34 -4.31,-10.39 0,-4.04 1.43,-7.5 4.31,-10.38 2.87,-2.87 6.34,-4.31 10.38,-4.31zm0 6.26c-2.34,0 -4.35,0.81 -5.99,2.47 -1.64,1.65 -2.45,3.64 -2.45,5.96 0,2.36 0.81,4.35 2.45,6 1.64,1.63 3.65,2.45 5.99,2.45 2.35,0 4.34,-0.82 5.97,-2.45 1.66,-1.65 2.48,-3.64 2.48,-6 0,-2.32 -0.82,-4.31 -2.48,-5.96 -1.64,-1.66 -3.64,-2.47 -5.97,-2.47z"/>
  </g>
 </g>
</svg>
