<svg xmlns="http://www.w3.org/2000/svg" width="419" height="255" viewBox="0 0 55.46 33.68" shape-rendering="geometricPrecision" text-rendering="geometricPrecision" image-rendering="optimizeQuality" fill-rule="evenodd" clip-rule="evenodd"><defs><style>.fil0{fill:#fff}</style></defs><g id="Capa_x0020_1"><g id="_1650048214384"><path class="fil0" d="M33.74 32.7c0 .28-.1.51-.3.69-.19.2-.42.29-.69.29h-.02c-.27 0-.5-.09-.69-.29-.2-.18-.29-.41-.29-.69v-4.47c0-1.08.38-2 1.14-2.77.77-.76 1.69-1.15 2.77-1.15 1.29 0 2.26.43 2.92 1.29.65-.86 1.62-1.29 2.91-1.29 1.08 0 2 .39 2.76 1.15.77.77 1.15 1.69 1.15 2.77v4.47c0 .27-.09.5-.29.69-.19.2-.42.29-.7.29h-.01c-.28 0-.51-.09-.69-.29-.2-.18-.29-.41-.29-.69v-4.47c0-.53-.19-.99-.57-1.36-.37-.38-.83-.56-1.36-.56-.53 0-.99.18-1.36.56-.37.37-.56.83-.56 1.36v4.47c0 .28-.1.51-.29.69-.19.2-.42.29-.69.29h-.02c-.27 0-.51-.09-.7-.29a.913.913 0 0 1-.29-.69v-4.47c0-.53-.19-.99-.57-1.36-.37-.38-.82-.56-1.35-.56-.53 0-.99.18-1.36.56-.37.37-.56.83-.56 1.36v4.47zM25.97 24.31c1.29 0 2.39.46 3.31 1.38.91.91 1.37 2.02 1.37 3.31v3.7c0 .28-.1.51-.29.69-.2.2-.43.29-.69.29h-.03c-.26 0-.49-.09-.69-.29a.913.913 0 0 1-.29-.69c-.62.66-1.52.98-2.69.98-1.29 0-2.4-.46-3.31-1.37-.92-.92-1.38-2.02-1.38-3.31s.46-2.4 1.38-3.31c.91-.92 2.02-1.38 3.31-1.38zm0 2c-.75 0-1.39.26-1.91.79-.53.52-.78 1.16-.78 1.9 0 .75.25 1.38.78 1.91.52.52 1.16.78 1.91.78s1.38-.26 1.9-.78c.53-.53.79-1.16.79-1.91 0-.74-.26-1.38-.79-1.9-.52-.53-1.16-.79-1.9-.79zM55.23 27.05a.978.978 0 0 1 .03.75c-.09.26-.27.44-.52.56-.76.34-1.76.79-2.99 1.35-1.54.69-2.44 1.1-2.7 1.22.41.52 1.05.78 1.93.78.58 0 1.1-.17 1.57-.51.46-.33.78-.77.97-1.3.16-.44.47-.67.94-.67.34 0 .61.14.81.43.12.17.19.35.19.54 0 .12-.03.23-.07.35-.32.93-.88 1.68-1.68 2.25-.82.59-1.73.88-2.73.88-1.3 0-2.4-.46-3.32-1.37-.91-.92-1.37-2.02-1.37-3.31s.46-2.4 1.37-3.31c.92-.92 2.02-1.38 3.32-1.38.93 0 1.78.26 2.55.77.76.5 1.33 1.15 1.7 1.97zm-4.25-.73c-.75 0-1.39.27-1.92.79-.52.53-.78 1.17-.78 1.91v.06l4.55-2.04c-.4-.48-1.02-.72-1.85-.72zM17.21 5.07L24.13 0l6.92 5.07L37.98 0v11.36l-6.93 5.07-6.92-5.07-6.92 5.07z"/><path fill="#bebebe" d="M31.05 5.07L24.13 0v11.36l6.92 5.07z"/><path class="fil0" d="M19.29 24.31c.27 0 .5.1.69.3.19.19.29.43.29.7v7.39c0 .28-.1.51-.29.69-.19.2-.42.29-.69.29h-.02c-.27 0-.5-.09-.7-.29a.913.913 0 0 1-.29-.69v-7.39c0-.27.1-.51.29-.7.2-.2.43-.3.7-.3h.02zM12.77 30.93l2.58-6.01c.17-.41.47-.61.91-.61h.01c.35 0 .63.15.82.45.12.17.18.35.18.53 0 .13-.03.26-.09.4l-3.02 7.05c-.25.63-.71.94-1.38.94-.69 0-1.15-.31-1.39-.94l-3.03-7.05a1.18 1.18 0 0 1-.08-.39c0-.19.06-.36.17-.54.19-.3.47-.45.82-.45h.03c.43 0 .73.2.9.61 1.3 3.03 2.04 4.77 2.24 5.23 0 .02.11.28.33.78zM1.99 32.7c0 .28-.09.51-.29.69-.2.2-.43.29-.69.29H.98c-.26 0-.49-.09-.69-.29A.913.913 0 0 1 0 32.7v-4.45c0-1.08.39-2.01 1.15-2.78.77-.77 1.7-1.16 2.79-1.16 1.08 0 2 .39 2.77 1.16.77.77 1.15 1.7 1.15 2.78v4.45c0 .28-.09.51-.29.69-.18.2-.41.29-.69.29h-.02c-.27 0-.5-.09-.7-.29a.913.913 0 0 1-.29-.69v-4.45c0-.53-.19-.99-.56-1.37-.38-.38-.84-.57-1.37-.57-.55 0-1.01.19-1.39.57-.37.38-.56.84-.56 1.37v4.45z"/></g></g></svg>