<?xml version="1.0" encoding="UTF-8"?>
<!DOCTYPE svg PUBLIC "-//W3C//DTD SVG 1.1//EN" "http://www.w3.org/Graphics/SVG/1.1/DTD/svg11.dtd">
<!-- Creator: CorelDRAW 2017 -->
<svg xmlns="http://www.w3.org/2000/svg" xml:space="preserve" width="150px" height="43px" version="1.1" style="shape-rendering:geometricPrecision; text-rendering:geometricPrecision; image-rendering:optimizeQuality; fill-rule:evenodd; clip-rule:evenodd"
viewBox="0 0 102.4 29.39"
 xmlns:xlink="http://www.w3.org/1999/xlink">
 <defs>
  <style type="text/css">
   <![CDATA[
    .fil0 {fill:black}
    .fil1 {fill:white}
   ]]>
  </style>
 </defs>
 <g id="Capa_x0020_1">
  <metadata id="CorelCorpID_0Corel-Layer"/>
  <path class="fil0" d="M102.4 26.44c0,1.63 -1.31,2.95 -2.94,2.95l-96.51 0c-1.63,0 -2.95,-1.32 -2.95,-2.95l0 -23.49c0,-1.63 1.32,-2.95 2.95,-2.95l96.51 0c1.63,0 2.94,1.32 2.94,2.95l0 23.49 0 0z"/>
  <path class="fil1" d="M21.78 14.53c-0.02,-2.54 2.08,-3.78 2.18,-3.83 -1.19,-1.74 -3.04,-1.98 -3.69,-2 -1.54,-0.16 -3.05,0.93 -3.84,0.93 -0.8,0 -2.02,-0.91 -3.32,-0.88 -1.69,0.02 -3.27,1 -4.14,2.52 -1.78,3.08 -0.45,7.63 1.26,10.12 0.86,1.23 1.86,2.59 3.17,2.55 1.27,-0.05 1.75,-0.82 3.3,-0.82 1.53,0 1.98,0.82 3.32,0.79 1.37,-0.02 2.24,-1.23 3.06,-2.46 0.99,-1.41 1.38,-2.79 1.4,-2.86 -0.03,-0.01 -2.67,-1.02 -2.7,-4.06l0 0z"/>
  <path class="fil1" d="M19.26 7.06c0.69,-0.86 1.16,-2.03 1.03,-3.22 -0.99,0.04 -2.24,0.69 -2.96,1.53 -0.63,0.74 -1.2,1.96 -1.05,3.1 1.12,0.09 2.27,-0.56 2.98,-1.41l0 0z"/>
  <path class="fil1" d="M37.25 19.39l-0.88 -2.74c-0.1,-0.27 -0.27,-0.94 -0.53,-1.97l-0.04 0c-0.1,0.45 -0.27,1.1 -0.49,1.97l-0.87 2.74 2.81 0zm3.07 4.37l0 0 -1.8 0 -0.97 -3.08 -3.41 0 -0.93 3.08 -1.74 0 3.37 -10.48 2.08 0 3.4 10.48z"/>
  <path class="fil1" d="M47.29 19.95c0,-0.73 -0.17,-1.34 -0.5,-1.82 -0.36,-0.5 -0.85,-0.74 -1.47,-0.74 -0.41,0 -0.79,0.13 -1.12,0.4 -0.34,0.28 -0.56,0.64 -0.66,1.09 -0.05,0.21 -0.08,0.38 -0.08,0.51l0 1.26c0,0.55 0.17,1.02 0.5,1.39 0.34,0.38 0.78,0.57 1.32,0.57 0.63,0 1.13,-0.24 1.48,-0.73 0.35,-0.49 0.53,-1.13 0.53,-1.93l0 0zm1.71 -0.06l0 0c0,1.28 -0.35,2.3 -1.05,3.05 -0.62,0.66 -1.39,0.99 -2.31,0.99 -1,0 -1.71,-0.35 -2.15,-1.07l-0.03 0 0 3.98 -1.68 0 0 -8.15c0,-0.81 -0.02,-1.63 -0.06,-2.49l1.47 0 0.1 1.2 0.03 0c0.56,-0.9 1.41,-1.36 2.55,-1.36 0.89,0 1.64,0.36 2.23,1.07 0.6,0.7 0.9,1.63 0.9,2.78l0 0z"/>
  <path class="fil1" d="M55.98 19.95c0,-0.73 -0.16,-1.34 -0.49,-1.82 -0.37,-0.5 -0.85,-0.74 -1.47,-0.74 -0.41,0 -0.79,0.13 -1.13,0.4 -0.33,0.28 -0.55,0.64 -0.66,1.09 -0.05,0.21 -0.07,0.38 -0.07,0.51l0 1.26c0,0.55 0.17,1.02 0.5,1.39 0.34,0.38 0.77,0.57 1.32,0.57 0.63,0 1.12,-0.24 1.47,-0.73 0.35,-0.49 0.53,-1.13 0.53,-1.93l0 0zm1.71 -0.06l0 0c0,1.28 -0.35,2.3 -1.04,3.05 -0.62,0.66 -1.39,0.99 -2.32,0.99 -0.99,0 -1.71,-0.35 -2.14,-1.07l-0.03 0 0 3.98 -1.69 0 0 -8.15c0,-0.81 -0.02,-1.63 -0.06,-2.49l1.48 0 0.09 1.2 0.03 0c0.57,-0.9 1.42,-1.36 2.56,-1.36 0.89,0 1.63,0.36 2.23,1.07 0.6,0.7 0.89,1.63 0.89,2.78l0 0z"/>
  <path class="fil1" d="M67.41 20.82c0,0.9 -0.3,1.62 -0.92,2.18 -0.69,0.62 -1.64,0.92 -2.86,0.92 -1.13,0 -2.03,-0.22 -2.72,-0.65l0.39 -1.4c0.74,0.44 1.55,0.66 2.43,0.66 0.63,0 1.13,-0.14 1.48,-0.42 0.35,-0.29 0.53,-0.67 0.53,-1.15 0,-0.43 -0.15,-0.78 -0.44,-1.07 -0.29,-0.3 -0.77,-0.57 -1.45,-0.81 -1.83,-0.69 -2.75,-1.69 -2.75,-3.02 0,-0.86 0.32,-1.56 0.97,-2.11 0.64,-0.55 1.49,-0.83 2.57,-0.83 0.95,0 1.74,0.17 2.37,0.5l-0.42 1.37c-0.59,-0.32 -1.25,-0.49 -2.01,-0.49 -0.58,0 -1.04,0.15 -1.37,0.44 -0.29,0.26 -0.43,0.58 -0.43,0.95 0,0.41 0.16,0.76 0.48,1.03 0.28,0.25 0.79,0.52 1.53,0.81 0.9,0.36 1.56,0.78 1.99,1.27 0.43,0.49 0.63,1.1 0.63,1.82l0 0z"/>
  <path class="fil1" d="M72.97 17.46l-1.85 0 0 3.67c0,0.94 0.33,1.4 0.98,1.4 0.3,0 0.55,-0.02 0.75,-0.07l0.04 1.27c-0.33,0.12 -0.76,0.19 -1.31,0.19 -0.66,0 -1.17,-0.2 -1.55,-0.61 -0.37,-0.4 -0.56,-1.08 -0.56,-2.04l0 -3.81 -1.1 0 0 -1.26 1.1 0 0 -1.39 1.65 -0.49 0 1.88 1.85 0 0 1.26 0 0z"/>
  <path class="fil1" d="M79.58 19.98c0,-0.7 -0.15,-1.3 -0.45,-1.8 -0.35,-0.6 -0.86,-0.9 -1.51,-0.9 -0.67,0 -1.18,0.3 -1.53,0.9 -0.31,0.5 -0.46,1.11 -0.46,1.83 0,0.69 0.15,1.29 0.46,1.79 0.36,0.6 0.86,0.9 1.52,0.9 0.64,0 1.14,-0.3 1.51,-0.92 0.31,-0.5 0.46,-1.11 0.46,-1.8l0 0zm1.75 -0.06l0 0c0,1.16 -0.34,2.12 -1,2.86 -0.7,0.77 -1.62,1.15 -2.77,1.15 -1.11,0 -1.99,-0.37 -2.65,-1.1 -0.66,-0.74 -0.99,-1.66 -0.99,-2.78 0,-1.18 0.34,-2.13 1.02,-2.89 0.68,-0.74 1.59,-1.12 2.75,-1.12 1.1,0 2,0.37 2.67,1.11 0.65,0.71 0.97,1.64 0.97,2.77l0 0z"/>
  <path class="fil1" d="M86.78 17.68c-0.16,-0.03 -0.34,-0.05 -0.52,-0.05 -0.6,0 -1.05,0.23 -1.37,0.67 -0.28,0.39 -0.42,0.89 -0.42,1.49l0 3.97 -1.68 0 0.01 -5.18c0,-0.87 -0.02,-1.66 -0.06,-2.38l1.47 0 0.06 1.45 0.04 0c0.18,-0.5 0.46,-0.9 0.84,-1.2 0.38,-0.27 0.78,-0.41 1.22,-0.41 0.15,0 0.29,0.02 0.41,0.04l0 1.6z"/>
  <path class="fil1" d="M92.7 19.19c0.01,-0.5 -0.1,-0.93 -0.33,-1.29 -0.29,-0.47 -0.74,-0.7 -1.34,-0.7 -0.55,0 -0.99,0.22 -1.33,0.68 -0.29,0.37 -0.45,0.8 -0.5,1.31l3.5 0 0 0zm1.6 0.44l0 0c0,0.29 -0.02,0.55 -0.06,0.75l-5.04 0c0.02,0.75 0.26,1.32 0.73,1.72 0.42,0.35 0.97,0.52 1.65,0.52 0.74,0 1.43,-0.11 2.04,-0.35l0.26 1.16c-0.72,0.31 -1.56,0.47 -2.54,0.47 -1.17,0 -2.09,-0.34 -2.76,-1.03 -0.66,-0.69 -1,-1.62 -1,-2.78 0,-1.14 0.31,-2.09 0.93,-2.85 0.66,-0.81 1.54,-1.21 2.65,-1.21 1.09,0 1.91,0.4 2.47,1.21 0.45,0.65 0.67,1.44 0.67,2.39l0 0z"/>
  <path class="fil1" d="M36.06 4.52l-0.19 0.66c-0.29,-0.14 -0.61,-0.2 -0.98,-0.2 -0.56,0 -1,0.17 -1.32,0.5 -0.35,0.36 -0.52,0.85 -0.52,1.49 0,0.6 0.16,1.08 0.48,1.43 0.33,0.34 0.77,0.51 1.34,0.51 0.4,0 0.74,-0.06 1.02,-0.19l0.14 0.65c-0.3,0.15 -0.74,0.22 -1.31,0.22 -0.77,0 -1.38,-0.22 -1.84,-0.68 -0.47,-0.47 -0.7,-1.1 -0.7,-1.91 0,-0.82 0.26,-1.49 0.76,-1.98 0.49,-0.48 1.14,-0.72 1.92,-0.72 0.52,0 0.92,0.07 1.2,0.22l0 0z"/>
  <path class="fil1" d="M39.76 7.66c0,-0.34 -0.07,-0.64 -0.22,-0.88 -0.17,-0.29 -0.42,-0.44 -0.74,-0.44 -0.33,0 -0.59,0.15 -0.76,0.44 -0.14,0.24 -0.22,0.55 -0.22,0.9 0,0.34 0.08,0.63 0.22,0.88 0.18,0.3 0.43,0.45 0.75,0.45 0.32,0 0.56,-0.15 0.74,-0.46 0.15,-0.25 0.23,-0.54 0.23,-0.89zm0.86 -0.02l0 0c0,0.57 -0.17,1.03 -0.49,1.4 -0.34,0.38 -0.8,0.57 -1.36,0.57 -0.55,0 -0.98,-0.18 -1.31,-0.55 -0.32,-0.36 -0.48,-0.81 -0.48,-1.36 0,-0.58 0.17,-1.05 0.5,-1.41 0.33,-0.37 0.79,-0.56 1.35,-0.56 0.54,0 0.98,0.19 1.31,0.55 0.32,0.35 0.48,0.8 0.48,1.36l0 0z"/>
  <path class="fil1" d="M45.06 9.52l-0.83 0 0 -2.12c0,-0.66 -0.25,-0.99 -0.74,-0.99 -0.25,0 -0.45,0.1 -0.6,0.28 -0.16,0.17 -0.23,0.39 -0.23,0.63l0 2.2 -0.83 0 0 -2.65c0,-0.33 -0.01,-0.68 -0.03,-1.06l0.73 0 0.04 0.58 0.02 0c0.09,-0.18 0.24,-0.33 0.43,-0.45 0.22,-0.14 0.47,-0.21 0.74,-0.21 0.35,0 0.64,0.11 0.87,0.34 0.29,0.27 0.43,0.69 0.43,1.23l0 2.22 0 0z"/>
  <path class="fil1" d="M48.78 8.45c0,0.35 -0.13,0.63 -0.38,0.84 -0.26,0.21 -0.61,0.31 -1.06,0.31 -0.42,0 -0.78,-0.08 -1.08,-0.25l0.18 -0.61c0.29,0.17 0.59,0.26 0.91,0.26 0.42,0 0.64,-0.16 0.64,-0.47 0,-0.13 -0.05,-0.25 -0.14,-0.34 -0.1,-0.09 -0.26,-0.18 -0.49,-0.27 -0.66,-0.24 -0.99,-0.59 -0.99,-1.06 0,-0.32 0.12,-0.59 0.36,-0.81 0.25,-0.21 0.57,-0.32 0.97,-0.32 0.37,0 0.68,0.08 0.94,0.22l-0.17 0.6c-0.24,-0.14 -0.5,-0.21 -0.76,-0.21 -0.17,0 -0.31,0.04 -0.4,0.12 -0.1,0.08 -0.15,0.18 -0.15,0.31 0,0.13 0.05,0.23 0.15,0.31 0.09,0.08 0.25,0.16 0.51,0.25 0.64,0.25 0.96,0.63 0.96,1.12l0 0z"/>
  <path class="fil1" d="M51.55 4.25l-0.93 1.11 -0.57 0 0.66 -1.11 0.84 0 0 0zm-0.71 5.27l0 0 -0.83 0 0 -3.71 0.83 0 0 3.71z"/>
  <path class="fil1" d="M54.7 7.94l0 -0.66c0,-0.25 -0.08,-0.46 -0.23,-0.65 -0.16,-0.18 -0.36,-0.26 -0.62,-0.26 -0.28,0 -0.51,0.12 -0.7,0.35 -0.18,0.23 -0.27,0.55 -0.27,0.94 0,0.35 0.09,0.65 0.25,0.87 0.18,0.23 0.42,0.35 0.72,0.35 0.18,0 0.35,-0.05 0.5,-0.16 0.14,-0.11 0.25,-0.26 0.31,-0.45 0.03,-0.09 0.04,-0.2 0.04,-0.33zm0.86 -2.13l0 0c-0.02,0.3 -0.03,0.65 -0.03,1.05l0 2.13c0,0.8 -0.18,1.36 -0.54,1.68 -0.32,0.3 -0.78,0.45 -1.37,0.45 -0.52,0 -0.93,-0.1 -1.25,-0.3l0.19 -0.63c0.32,0.19 0.67,0.28 1.06,0.28 0.73,0 1.09,-0.39 1.09,-1.17l0 -0.37 -0.01 0c-0.23,0.39 -0.6,0.57 -1.1,0.57 -0.45,0 -0.82,-0.17 -1.11,-0.51 -0.29,-0.34 -0.43,-0.77 -0.43,-1.3 0,-0.6 0.17,-1.08 0.5,-1.44 0.32,-0.35 0.69,-0.52 1.14,-0.52 0.51,0 0.87,0.2 1.09,0.59l0.01 0 0.03 -0.51 0.73 0 0 0z"/>
  <path class="fil1" d="M60.21 9.52l-0.73 0 -0.04 -0.56 -0.02 0c-0.26,0.43 -0.66,0.65 -1.18,0.65 -0.36,0 -0.66,-0.12 -0.88,-0.35 -0.26,-0.27 -0.39,-0.7 -0.39,-1.27l0 -2.18 0.83 0 0 2.05c0,0.71 0.24,1.07 0.73,1.07 0.37,0 0.62,-0.18 0.76,-0.53 0.04,-0.1 0.06,-0.2 0.06,-0.32l0 -2.27 0.82 0 0 2.64c0,0.35 0.02,0.71 0.04,1.07l0 0z"/>
  <path class="fil1" d="M63.91 7.28c0.01,-0.25 -0.04,-0.46 -0.15,-0.64 -0.15,-0.23 -0.37,-0.34 -0.67,-0.34 -0.27,0 -0.48,0.11 -0.66,0.33 -0.13,0.19 -0.21,0.4 -0.24,0.65l1.72 0zm0.79 0.21l0 0c0,0.15 -0.01,0.27 -0.03,0.38l-2.48 0c0.01,0.36 0.13,0.64 0.36,0.84 0.21,0.17 0.48,0.26 0.81,0.26 0.37,0 0.71,-0.06 1,-0.18l0.13 0.57c-0.35,0.16 -0.76,0.23 -1.24,0.23 -0.58,0 -1.03,-0.16 -1.36,-0.51 -0.33,-0.33 -0.49,-0.79 -0.49,-1.36 0,-0.56 0.15,-1.03 0.46,-1.4 0.32,-0.4 0.75,-0.59 1.29,-0.59 0.54,0 0.95,0.19 1.22,0.59 0.22,0.32 0.33,0.71 0.33,1.17z"/>
  <polygon class="fil1" points="66.73,9.52 65.9,9.52 65.9,4.1 66.73,4.1 "/>
  <path class="fil1" d="M70.73 7.66c0,-0.34 -0.08,-0.64 -0.22,-0.88 -0.17,-0.29 -0.42,-0.44 -0.74,-0.44 -0.34,0 -0.59,0.15 -0.76,0.44 -0.15,0.24 -0.22,0.55 -0.22,0.9 0,0.34 0.07,0.63 0.22,0.88 0.18,0.3 0.42,0.45 0.75,0.45 0.32,0 0.56,-0.15 0.74,-0.46 0.15,-0.25 0.23,-0.54 0.23,-0.89zm0.85 -0.02l0 0c0,0.57 -0.16,1.03 -0.48,1.4 -0.34,0.38 -0.8,0.57 -1.36,0.57 -0.55,0 -0.99,-0.18 -1.31,-0.55 -0.32,-0.36 -0.48,-0.81 -0.48,-1.36 0,-0.58 0.16,-1.05 0.5,-1.41 0.33,-0.37 0.78,-0.56 1.35,-0.56 0.54,0 0.98,0.19 1.31,0.55 0.32,0.35 0.48,0.8 0.48,1.36l-0.01 0z"/>
  <path class="fil1" d="M77.3 7.28c0.01,-0.25 -0.05,-0.46 -0.16,-0.64 -0.14,-0.23 -0.36,-0.34 -0.65,-0.34 -0.27,0 -0.49,0.11 -0.66,0.33 -0.14,0.19 -0.22,0.4 -0.25,0.65l1.72 0zm0.79 0.21l0 0c0,0.15 -0.01,0.27 -0.03,0.38l-2.48 0c0.01,0.36 0.13,0.64 0.36,0.84 0.21,0.17 0.48,0.26 0.81,0.26 0.37,0 0.7,-0.06 1.01,-0.18l0.13 0.57c-0.36,0.16 -0.77,0.23 -1.25,0.23 -0.58,0 -1.03,-0.16 -1.36,-0.51 -0.33,-0.33 -0.49,-0.79 -0.49,-1.36 0,-0.56 0.15,-1.03 0.46,-1.4 0.32,-0.4 0.75,-0.59 1.3,-0.59 0.53,0 0.93,0.19 1.21,0.59 0.22,0.32 0.33,0.71 0.33,1.17l0 0z"/>
  <path class="fil1" d="M82.52 9.52l-0.83 0 0 -2.12c0,-0.66 -0.25,-0.99 -0.75,-0.99 -0.24,0 -0.44,0.1 -0.59,0.28 -0.16,0.17 -0.24,0.39 -0.24,0.63l0 2.2 -0.82 0 0 -2.65c0,-0.33 -0.01,-0.68 -0.03,-1.06l0.72 0 0.04 0.58 0.02 0c0.1,-0.18 0.25,-0.33 0.44,-0.45 0.22,-0.14 0.47,-0.21 0.74,-0.21 0.35,0 0.64,0.11 0.87,0.34 0.28,0.27 0.43,0.69 0.43,1.23l0 2.22 0 0z"/>
  <path class="fil1" d="M88.47 7.28c0,-0.25 -0.05,-0.46 -0.16,-0.64 -0.15,-0.23 -0.36,-0.34 -0.66,-0.34 -0.27,0 -0.49,0.11 -0.66,0.33 -0.13,0.19 -0.22,0.4 -0.24,0.65l1.72 0zm0.79 0.21l0 0c0,0.15 -0.01,0.27 -0.03,0.38l-2.48 0c0.01,0.36 0.13,0.64 0.36,0.84 0.21,0.17 0.48,0.26 0.81,0.26 0.37,0 0.7,-0.06 1,-0.18l0.13 0.57c-0.35,0.16 -0.77,0.23 -1.25,0.23 -0.57,0 -1.02,-0.16 -1.35,-0.51 -0.33,-0.33 -0.49,-0.79 -0.49,-1.36 0,-0.56 0.14,-1.03 0.46,-1.4 0.31,-0.4 0.75,-0.59 1.29,-0.59 0.54,0 0.94,0.19 1.22,0.59 0.22,0.32 0.33,0.71 0.33,1.17l0 0z"/>
  <polygon class="fil1" points="91.28,9.52 90.46,9.52 90.46,4.1 91.28,4.1 "/>
 </g>
</svg>
