<?xml version="1.0" encoding="UTF-8"?>
<!DOCTYPE svg PUBLIC "-//W3C//DTD SVG 1.1//EN" "http://www.w3.org/Graphics/SVG/1.1/DTD/svg11.dtd">
<!-- Creator: CorelDRAW 2017 -->
<svg xmlns="http://www.w3.org/2000/svg" xml:space="preserve" width="150px" height="44px" version="1.1" style="shape-rendering:geometricPrecision; text-rendering:geometricPrecision; image-rendering:optimizeQuality; fill-rule:evenodd; clip-rule:evenodd"
viewBox="0 0 96.48 28.59"
 xmlns:xlink="http://www.w3.org/1999/xlink">
 <defs>
  <style type="text/css">
   <![CDATA[
    .fil4 {fill:#1FC2A4}
    .fil3 {fill:#EF5051}
    .fil2 {fill:#FBE125}
    .fil0 {fill:black;fill-rule:nonzero}
    .fil1 {fill:#64C9F3;fill-rule:nonzero}
    .fil5 {fill:white;fill-rule:nonzero}
   ]]>
  </style>
 </defs>
 <g id="Capa_x0020_1">
  <metadata id="CorelCorpID_0Corel-Layer"/>
  <path class="fil0" d="M92.9 28.59l-89.33 0c-1.96,0 -3.57,-1.61 -3.57,-3.58l0 -21.44c0,-1.96 1.61,-3.57 3.57,-3.57l89.33 0c1.97,0 3.58,1.61 3.58,3.57l0 21.44c0,1.97 -1.61,3.58 -3.58,3.58z"/>
  <path class="fil1" d="M7.46 5.39c-0.21,0.22 -0.33,0.56 -0.33,1.01l0 15.79c0,0.44 0.12,0.78 0.33,1l0.05 0.05 8.85 -8.84 0 -0.21 -8.85 -8.85 -0.05 0.05 0 0z"/>
  <path class="fil2" d="M19.31 17.35l-2.95 -2.95 0 -0.21 2.95 -2.95 0.06 0.04 3.5 1.98c0.99,0.57 0.99,1.5 0,2.06l-3.5 1.99 -0.06 0.04 0 0z"/>
  <path class="fil3" d="M19.37 17.31l-3.01 -3.02 -8.9 8.9c0.33,0.35 0.87,0.39 1.48,0.05l10.43 -5.93 0 0z"/>
  <path class="fil4" d="M19.37 11.28l-10.43 -5.93c-0.61,-0.35 -1.15,-0.3 -1.48,0.04l8.9 8.9 3.01 -3.01z"/>
  <path class="fil5" d="M76.42 21.44l1.34 0 0 -8.93 -1.34 0 0 8.93zm12.01 -5.72l-1.53 3.88 -0.04 0 -1.59 -3.88 -1.43 0 2.38 5.42 -1.36 3.01 1.39 0 3.67 -8.43 -1.49 0 0 0zm-7.56 4.71c-0.44,0 -1.05,-0.22 -1.05,-0.76 0,-0.69 0.76,-0.96 1.42,-0.96 0.58,0 0.86,0.13 1.22,0.3 -0.11,0.83 -0.82,1.42 -1.59,1.42l0 0zm0.16 -4.9c-0.96,0 -1.96,0.42 -2.38,1.37l1.19 0.49c0.25,-0.49 0.72,-0.66 1.21,-0.66 0.69,0 1.4,0.42 1.41,1.15l0 0.1c-0.25,-0.14 -0.76,-0.35 -1.39,-0.35 -1.28,0 -2.58,0.7 -2.58,2.01 0,1.2 1.05,1.97 2.22,1.97 0.9,0 1.39,-0.4 1.7,-0.87l0.05 0 0 0.68 1.28 0 0 -3.42c0,-1.59 -1.18,-2.47 -2.71,-2.47zm-8.24 1.28l-1.9 0 0 -3.06 1.9 0c1,0 1.56,0.82 1.56,1.53 0,0.69 -0.56,1.53 -1.56,1.53l0 0zm-0.03 -4.3l-3.2 0 0 8.93 1.33 0 0 -3.39 1.87 0c1.47,0 2.93,-1.07 2.93,-2.77 0,-1.7 -1.46,-2.77 -2.93,-2.77zm-17.43 7.92c-0.92,0 -1.69,-0.78 -1.69,-1.83 0,-1.07 0.77,-1.86 1.69,-1.86 0.91,0 1.63,0.79 1.63,1.86 0,1.05 -0.72,1.83 -1.63,1.83zm1.53 -4.21l-0.04 0c-0.3,-0.35 -0.88,-0.68 -1.6,-0.68 -1.52,0 -2.92,1.34 -2.92,3.06 0,1.7 1.4,3.02 2.92,3.02 0.72,0 1.3,-0.32 1.6,-0.69l0.04 0 0 0.44c0,1.16 -0.62,1.79 -1.62,1.79 -0.82,0 -1.32,-0.59 -1.53,-1.09l-1.16 0.49c0.33,0.8 1.22,1.79 2.69,1.79 1.57,0 2.89,-0.92 2.89,-3.16l0 -5.46 -1.27 0 0 0.49 0 0zm2.19 5.22l1.34 0 0 -8.93 -1.34 0 0 8.93zm3.3 -2.95c-0.03,-1.17 0.91,-1.77 1.59,-1.77 0.53,0 0.98,0.26 1.13,0.64l-2.72 1.13 0 0zm4.15 -1.01c-0.25,-0.68 -1.03,-1.94 -2.6,-1.94 -1.57,0 -2.87,1.24 -2.87,3.04 0,1.71 1.29,3.04 3.02,3.04 1.39,0 2.2,-0.85 2.53,-1.34l-1.04 -0.69c-0.34,0.5 -0.81,0.84 -1.49,0.84 -0.68,0 -1.17,-0.31 -1.48,-0.92l4.07 -1.69 -0.14 -0.34 0 0zm-32.38 -1l0 1.29 3.09 0c-0.1,0.72 -0.34,1.25 -0.71,1.62 -0.45,0.45 -1.15,0.94 -2.38,0.94 -1.9,0 -3.39,-1.53 -3.39,-3.43 0,-1.9 1.49,-3.43 3.39,-3.43 1.03,0 1.77,0.41 2.33,0.92l0.91 -0.91c-0.78,-0.73 -1.8,-1.3 -3.24,-1.3 -2.6,0 -4.79,2.12 -4.79,4.72 0,2.61 2.19,4.72 4.79,4.72 1.4,0 2.46,-0.46 3.29,-1.32 0.86,-0.85 1.12,-2.05 1.12,-3.02 0,-0.3 -0.02,-0.57 -0.07,-0.8l-4.34 0 0 0zm7.92 3.95c-0.92,0 -1.72,-0.76 -1.72,-1.85 0,-1.09 0.8,-1.84 1.72,-1.84 0.92,0 1.71,0.75 1.71,1.84 0,1.09 -0.79,1.85 -1.71,1.85zm0 -4.89c-1.68,0 -3.05,1.28 -3.05,3.04 0,1.75 1.37,3.04 3.05,3.04 1.68,0 3.05,-1.29 3.05,-3.04 0,-1.76 -1.37,-3.04 -3.05,-3.04zm6.65 4.89c-0.92,0 -1.71,-0.76 -1.71,-1.85 0,-1.09 0.79,-1.84 1.71,-1.84 0.92,0 1.72,0.75 1.72,1.84 0,1.09 -0.8,1.85 -1.72,1.85zm0 -4.89c-1.68,0 -3.05,1.28 -3.05,3.04 0,1.75 1.37,3.04 3.05,3.04 1.68,0 3.05,-1.29 3.05,-3.04 0,-1.76 -1.37,-3.04 -3.05,-3.04z"/>
  <path class="fil5" d="M30.05 8.76l0.76 0c0.5,0 0.89,-0.14 1.18,-0.42 0.29,-0.29 0.43,-0.68 0.43,-1.19 0,-0.51 -0.14,-0.91 -0.43,-1.19 -0.29,-0.29 -0.68,-0.43 -1.18,-0.43l-0.76 0 0 3.23 0 0zm-0.55 0.53l0 -4.29 1.31 0c0.66,0 1.19,0.2 1.58,0.6 0.4,0.4 0.6,0.91 0.6,1.55 0,0.63 -0.2,1.15 -0.6,1.54 -0.39,0.4 -0.92,0.6 -1.58,0.6l-1.31 0 0 0z"/>
  <path class="fil5" d="M30.05 8.76l0 0.08 0.76 0c0.51,0 0.92,-0.15 1.23,-0.45 0.31,-0.3 0.45,-0.72 0.45,-1.24 0,-0.52 -0.14,-0.94 -0.45,-1.24l0 0c-0.31,-0.3 -0.72,-0.45 -1.23,-0.45l-0.83 0 0 3.38 0.07 0 0 -0.08 0.07 0 0 -3.16 0.69 0c0.48,0 0.85,0.14 1.13,0.41l0 0c0.27,0.27 0.41,0.64 0.41,1.14 0,0.49 -0.14,0.87 -0.41,1.14 -0.28,0.27 -0.65,0.4 -1.13,0.4l-0.76 0 0 0.07 0.07 0 -0.07 0 0 0zm-0.55 0.53l0.07 0 0 -4.22 1.24 0c0.65,0 1.15,0.2 1.53,0.58 0.38,0.38 0.57,0.88 0.57,1.5 0,0.62 -0.19,1.11 -0.57,1.49 -0.38,0.39 -0.88,0.58 -1.53,0.58l-1.31 0 0 0.07 0.07 0 -0.07 0 0 0.07 1.31 0c0.68,0 1.22,-0.2 1.63,-0.62 0.41,-0.41 0.62,-0.94 0.62,-1.59 0,-0.65 -0.21,-1.19 -0.62,-1.6 -0.41,-0.41 -0.95,-0.62 -1.63,-0.62l-1.38 0 0 4.43 0.07 0 0 -0.07z"/>
  <polygon class="fil5" points="33.76,9.29 34.31,9.29 34.31,5 33.76,5 "/>
  <polygon class="fil5" points="33.76,9.29 33.83,9.29 33.83,5.07 34.24,5.07 34.24,9.22 33.76,9.22 33.76,9.29 33.83,9.29 33.76,9.29 33.76,9.36 34.38,9.36 34.38,4.93 33.69,4.93 33.69,9.36 33.76,9.36 "/>
  <path class="fil5" d="M36.5 9.39c-0.31,0 -0.61,-0.11 -0.91,-0.31 -0.3,-0.2 -0.49,-0.49 -0.59,-0.86l0.51 -0.2c0.06,0.24 0.18,0.43 0.37,0.6 0.18,0.16 0.39,0.24 0.62,0.24 0.24,0 0.45,-0.06 0.62,-0.19 0.17,-0.13 0.25,-0.3 0.25,-0.51 0,-0.24 -0.08,-0.43 -0.25,-0.56 -0.17,-0.12 -0.44,-0.25 -0.81,-0.36 -0.38,-0.12 -0.67,-0.27 -0.86,-0.46 -0.2,-0.19 -0.3,-0.43 -0.3,-0.73 0,-0.31 0.13,-0.57 0.37,-0.8 0.24,-0.23 0.56,-0.34 0.95,-0.34 0.37,0 0.66,0.09 0.89,0.27 0.23,0.18 0.37,0.38 0.44,0.59l-0.5 0.21c-0.04,-0.13 -0.13,-0.26 -0.27,-0.37 -0.14,-0.12 -0.32,-0.18 -0.55,-0.18 -0.21,0 -0.39,0.06 -0.54,0.18 -0.15,0.12 -0.22,0.27 -0.22,0.44 0,0.16 0.07,0.3 0.2,0.4 0.14,0.11 0.34,0.21 0.61,0.3 0.21,0.07 0.39,0.14 0.53,0.2 0.14,0.06 0.29,0.15 0.43,0.25 0.15,0.11 0.26,0.24 0.33,0.4 0.08,0.16 0.11,0.34 0.11,0.55 0,0.2 -0.04,0.39 -0.13,0.55 -0.08,0.17 -0.2,0.3 -0.34,0.39 -0.14,0.1 -0.29,0.17 -0.46,0.22 -0.16,0.05 -0.33,0.08 -0.5,0.08l0 0z"/>
  <path class="fil5" d="M36.5 9.39l0 -0.08c-0.29,0 -0.58,-0.09 -0.87,-0.29 -0.28,-0.19 -0.47,-0.46 -0.56,-0.81l-0.07 0.01 0.03 0.07 0.5 -0.2 -0.02 -0.07 -0.07 0.02c0.06,0.25 0.19,0.46 0.39,0.63l0 0c0.2,0.17 0.42,0.26 0.67,0.26 0.25,0 0.48,-0.07 0.66,-0.2 0.18,-0.14 0.28,-0.34 0.28,-0.57 0,-0.26 -0.09,-0.47 -0.28,-0.61 -0.18,-0.14 -0.46,-0.26 -0.83,-0.38l0 0c-0.37,-0.11 -0.65,-0.26 -0.83,-0.44 -0.18,-0.18 -0.27,-0.4 -0.27,-0.68 0,-0.29 0.11,-0.53 0.34,-0.75 0.23,-0.21 0.52,-0.32 0.9,-0.32 0.35,0 0.63,0.09 0.84,0.25 0.22,0.18 0.36,0.37 0.42,0.57l0.07 -0.03 -0.03 -0.06 -0.5 0.21 0.03 0.06 0.07 -0.01c-0.04,-0.16 -0.14,-0.3 -0.29,-0.42l0 0c-0.16,-0.13 -0.36,-0.19 -0.6,-0.19 -0.22,0 -0.42,0.07 -0.58,0.19l0 0c-0.17,0.13 -0.26,0.3 -0.25,0.5 -0.01,0.18 0.08,0.34 0.23,0.46l0 0c0.15,0.12 0.36,0.22 0.63,0.31l0 0c0.21,0.07 0.38,0.13 0.52,0.19l0 0c0.14,0.07 0.28,0.15 0.42,0.25l0 0c0.14,0.1 0.24,0.22 0.31,0.37 0.07,0.15 0.1,0.32 0.1,0.52 0,0.19 -0.04,0.37 -0.12,0.52 -0.08,0.15 -0.19,0.27 -0.32,0.36l0 0c-0.13,0.1 -0.28,0.17 -0.44,0.21 -0.15,0.05 -0.31,0.07 -0.48,0.07l0 0.15c0.18,0 0.36,-0.03 0.53,-0.08 0.17,-0.05 0.33,-0.13 0.47,-0.23l0 0c0.15,-0.1 0.28,-0.24 0.37,-0.41 0.09,-0.18 0.13,-0.38 0.13,-0.59 0,-0.22 -0.03,-0.41 -0.11,-0.58 -0.08,-0.17 -0.2,-0.31 -0.36,-0.42l0 0c-0.14,-0.11 -0.29,-0.2 -0.44,-0.27l0 0 0 0c-0.14,-0.06 -0.32,-0.13 -0.54,-0.2l0 0c-0.26,-0.08 -0.45,-0.18 -0.58,-0.28l0 0c-0.13,-0.1 -0.18,-0.21 -0.18,-0.35 0,-0.15 0.06,-0.28 0.2,-0.38l0 0c0.13,-0.11 0.3,-0.16 0.49,-0.16 0.22,0 0.38,0.05 0.51,0.15l0 0 0 0c0.13,0.11 0.21,0.23 0.24,0.34l0.02 0.08 0.58 -0.24 0.06 -0.02 -0.02 -0.07c-0.07,-0.23 -0.23,-0.44 -0.47,-0.63 -0.24,-0.19 -0.55,-0.29 -0.93,-0.29 -0.4,0 -0.74,0.12 -1,0.37 -0.25,0.23 -0.39,0.52 -0.39,0.85 0,0.31 0.11,0.58 0.32,0.78 0.21,0.2 0.5,0.36 0.89,0.48l0 0 0 0c0.36,0.11 0.62,0.23 0.78,0.35 0.15,0.12 0.23,0.28 0.23,0.5 0,0.2 -0.07,0.34 -0.23,0.45 -0.15,0.12 -0.34,0.18 -0.57,0.18 -0.21,0 -0.4,-0.08 -0.58,-0.23l0 0c-0.17,-0.15 -0.29,-0.33 -0.34,-0.56l-0.02 -0.08 -0.58 0.24 -0.06 0.02 0.02 0.06c0.09,0.38 0.3,0.69 0.61,0.9 0.31,0.21 0.62,0.32 0.95,0.32l0 -0.07 0 0z"/>
  <path class="fil5" d="M39.27 7.03l0.93 0c0.23,0 0.41,-0.08 0.55,-0.24 0.14,-0.15 0.21,-0.32 0.21,-0.51 0,-0.19 -0.07,-0.36 -0.21,-0.52 -0.14,-0.15 -0.32,-0.23 -0.55,-0.23l-0.93 0 0 1.5 0 0zm0 2.26l-0.55 0 0 -4.29 1.47 0c0.36,0 0.67,0.12 0.94,0.36 0.26,0.25 0.4,0.55 0.4,0.92 0,0.37 -0.14,0.67 -0.4,0.91 -0.27,0.24 -0.58,0.36 -0.94,0.36l-0.92 0 0 1.74z"/>
  <path class="fil5" d="M39.27 7.03l0 0.07 0.93 0c0.24,0 0.45,-0.09 0.61,-0.26l0 0c0.15,-0.16 0.23,-0.36 0.22,-0.56 0.01,-0.21 -0.07,-0.4 -0.22,-0.56l0 0c-0.16,-0.18 -0.37,-0.26 -0.61,-0.26l-1 0 0 1.64 0.07 0 0 -0.07 0.08 0 0 -1.43 0.85 0c0.21,0 0.37,0.07 0.5,0.21l0 0c0.13,0.15 0.19,0.3 0.19,0.47 0,0.17 -0.06,0.32 -0.19,0.47l0 0c-0.13,0.14 -0.29,0.2 -0.5,0.2l-0.93 0 0 0.08 0.08 0 -0.08 0zm0 2.26l0 -0.07 -0.47 0 0 -4.15 1.39 0c0.34,0 0.64,0.12 0.89,0.35l0 0c0.25,0.23 0.37,0.51 0.37,0.86 0,0.35 -0.12,0.63 -0.37,0.86l0 0c-0.25,0.23 -0.55,0.34 -0.89,0.34l-0.99 0 0 1.81 0.07 0 0 -0.07 0 0.07 0.08 0 0 -1.66 0.84 0c0.37,0 0.71,-0.13 0.99,-0.39l0 0c0.28,-0.25 0.42,-0.58 0.42,-0.96 0,-0.39 -0.14,-0.71 -0.42,-0.97l0 0c-0.28,-0.25 -0.62,-0.38 -0.99,-0.38l-1.54 0 0 4.43 0.7 0 0 -0.07 -0.08 0 0 0z"/>
  <path class="fil5" d="M42.99 8.38c0.32,0.32 0.71,0.48 1.17,0.48 0.45,0 0.84,-0.16 1.16,-0.48 0.32,-0.32 0.48,-0.73 0.48,-1.23 0,-0.5 -0.16,-0.91 -0.48,-1.23 -0.32,-0.33 -0.71,-0.49 -1.16,-0.49 -0.46,0 -0.85,0.16 -1.17,0.49 -0.32,0.32 -0.48,0.73 -0.48,1.23 0,0.5 0.16,0.91 0.48,1.23zm2.74 0.36c-0.42,0.43 -0.95,0.65 -1.57,0.65 -0.63,0 -1.16,-0.22 -1.58,-0.65 -0.42,-0.44 -0.63,-0.97 -0.63,-1.59 0,-0.63 0.21,-1.16 0.63,-1.59 0.42,-0.44 0.95,-0.65 1.58,-0.65 0.62,0 1.14,0.21 1.56,0.65 0.43,0.43 0.64,0.96 0.64,1.59 0,0.62 -0.21,1.15 -0.63,1.59l0 0z"/>
  <path class="fil5" d="M42.99 8.38l-0.05 0.05c0.33,0.33 0.74,0.5 1.22,0.5 0.47,0 0.88,-0.17 1.21,-0.5 0.33,-0.34 0.5,-0.77 0.5,-1.28 0,-0.52 -0.17,-0.95 -0.5,-1.28l0 -0.01 0 0.01c-0.33,-0.34 -0.74,-0.51 -1.21,-0.51 -0.48,0 -0.89,0.17 -1.22,0.51l0 0 0 0c-0.33,0.33 -0.5,0.76 -0.5,1.28 0,0.51 0.17,0.94 0.5,1.28l0.05 -0.05 0.05 -0.05c-0.3,-0.31 -0.45,-0.7 -0.45,-1.18 0,-0.49 0.15,-0.88 0.45,-1.18l0 0c0.31,-0.31 0.67,-0.46 1.12,-0.46 0.44,0 0.8,0.15 1.11,0.46l0 0c0.3,0.3 0.45,0.69 0.45,1.18 0,0.48 -0.15,0.87 -0.45,1.18 -0.31,0.31 -0.67,0.46 -1.11,0.46 -0.45,0 -0.81,-0.15 -1.12,-0.46l-0.05 0.05zm2.74 0.36l-0.05 -0.05c-0.41,0.42 -0.91,0.62 -1.52,0.62 -0.62,0 -1.12,-0.2 -1.53,-0.62l0 0c-0.4,-0.42 -0.61,-0.93 -0.61,-1.54 0,-0.61 0.21,-1.12 0.61,-1.54l0 0c0.41,-0.42 0.91,-0.63 1.53,-0.63 0.6,0 1.1,0.21 1.51,0.63 0.41,0.42 0.62,0.93 0.62,1.54 0,0.61 -0.21,1.12 -0.61,1.54l0.05 0.05 0.05 0.05c0.43,-0.45 0.65,-1 0.65,-1.64 0,-0.64 -0.22,-1.19 -0.65,-1.64 -0.44,-0.45 -0.99,-0.68 -1.62,-0.68 -0.65,0 -1.2,0.23 -1.63,0.68l0 0c-0.43,0.44 -0.65,0.99 -0.65,1.64 0,0.64 0.22,1.19 0.65,1.64l0 0 0 0c0.43,0.44 0.98,0.67 1.63,0.67 0.64,0 1.18,-0.23 1.62,-0.67l-0.05 -0.05 0 0z"/>
  <polygon class="fil5" points="47.13,9.29 47.13,5 47.8,5 49.89,8.34 49.91,8.34 49.89,7.51 49.89,5 50.44,5 50.44,9.29 49.86,9.29 47.68,5.79 47.66,5.79 47.68,6.62 47.68,9.29 "/>
  <polygon class="fil5" points="47.13,9.29 47.2,9.29 47.2,5.07 47.76,5.07 49.85,8.41 49.98,8.41 49.96,7.51 49.96,5.07 50.37,5.07 50.37,9.22 49.9,9.22 47.72,5.72 47.59,5.72 47.61,6.62 47.61,9.22 47.13,9.22 47.13,9.29 47.2,9.29 47.13,9.29 47.13,9.36 47.75,9.36 47.75,6.62 47.73,5.79 47.66,5.79 47.66,5.86 47.68,5.86 47.68,5.79 47.62,5.83 49.82,9.36 50.51,9.36 50.51,4.93 49.82,4.93 49.82,7.51 49.84,8.34 49.91,8.34 49.91,8.27 49.89,8.27 49.89,8.34 49.95,8.3 47.84,4.93 47.06,4.93 47.06,9.36 47.13,9.36 "/>
  <polygon class="fil5" points="51.42,9.29 51.97,9.29 51.97,5 51.42,5 "/>
  <polygon class="fil5" points="51.42,9.29 51.49,9.29 51.49,5.07 51.9,5.07 51.9,9.22 51.42,9.22 51.42,9.29 51.49,9.29 51.42,9.29 51.42,9.36 52.04,9.36 52.04,4.93 51.35,4.93 51.35,9.36 51.42,9.36 "/>
  <path class="fil5" d="M53.5 8.76l1.11 0c0.21,0 0.38,-0.07 0.52,-0.22 0.13,-0.15 0.19,-0.31 0.19,-0.48 0,-0.18 -0.06,-0.34 -0.2,-0.49 -0.14,-0.14 -0.31,-0.21 -0.53,-0.21l-1.09 0 0 1.4 0 0zm0 -1.92l1 0c0.21,0 0.38,-0.07 0.5,-0.21 0.13,-0.13 0.19,-0.28 0.19,-0.45 0,-0.16 -0.06,-0.31 -0.18,-0.45 -0.12,-0.13 -0.28,-0.2 -0.48,-0.2l-1.03 0 0 1.31zm-0.55 2.45l0 -4.29 1.55 0c0.34,0 0.63,0.11 0.87,0.33 0.25,0.23 0.37,0.51 0.37,0.84 0,0.2 -0.05,0.38 -0.16,0.54 -0.1,0.16 -0.24,0.27 -0.42,0.35l0 0.03c0.21,0.07 0.39,0.19 0.52,0.37 0.14,0.17 0.21,0.38 0.21,0.61 0,0.35 -0.13,0.64 -0.39,0.87 -0.26,0.23 -0.56,0.35 -0.91,0.35l-1.64 0 0 0z"/>
  <path class="fil5" d="M53.5 8.76l0 0.08 1.11 0c0.23,0 0.43,-0.09 0.57,-0.25l0 0c0.14,-0.16 0.22,-0.34 0.22,-0.53 0,-0.2 -0.08,-0.38 -0.23,-0.53l0 0c-0.15,-0.16 -0.35,-0.25 -0.58,-0.25l-1.16 0 0 1.56 0.07 0 0 -0.08 0.08 0 0 -1.33 1.01 0c0.2,0 0.36,0.06 0.48,0.19l0 0c0.12,0.14 0.18,0.28 0.18,0.44 0,0.15 -0.05,0.3 -0.18,0.43l0 0c-0.12,0.14 -0.26,0.2 -0.46,0.2l-1.11 0 0 0.07 0.07 0 -0.07 0 0 0zm0 -1.92l0 0.07 1 0c0.23,0 0.42,-0.07 0.56,-0.23l0 0c0.13,-0.15 0.2,-0.32 0.2,-0.5 0,-0.18 -0.07,-0.35 -0.2,-0.49l0 0c-0.13,-0.16 -0.32,-0.23 -0.53,-0.23l-1.1 0 0 1.45 0.07 0 0 -0.07 0.07 0 0 -1.24 0.96 0c0.18,0 0.32,0.06 0.43,0.18l0 0c0.11,0.13 0.16,0.26 0.16,0.4 0,0.15 -0.05,0.28 -0.17,0.41l0 0c-0.11,0.12 -0.25,0.18 -0.45,0.18l-1 0 0 0.07 0.07 0 -0.07 0zm-0.55 2.45l0.07 0 0 -4.22 1.48 0c0.32,0 0.59,0.11 0.83,0.32l0 0c0.23,0.21 0.34,0.46 0.34,0.78 0,0.19 -0.05,0.36 -0.14,0.5l0 0c-0.1,0.14 -0.23,0.25 -0.4,0.33l-0.04 0.02 0 0.12 0.05 0.01c0.2,0.07 0.36,0.19 0.49,0.35l0 0c0.12,0.17 0.19,0.35 0.19,0.57 -0.01,0.33 -0.12,0.6 -0.37,0.82 -0.24,0.22 -0.53,0.33 -0.86,0.33l-1.64 0 0 0.07 0.07 0 -0.07 0 0 0.07 1.64 0c0.36,0 0.69,-0.12 0.96,-0.36 0.27,-0.25 0.41,-0.56 0.41,-0.93 0,-0.25 -0.08,-0.47 -0.22,-0.66l0 0c-0.14,-0.18 -0.33,-0.32 -0.55,-0.39l-0.03 0.07 0.07 0 0 -0.03 -0.07 0 0.03 0.07c0.19,-0.09 0.34,-0.21 0.45,-0.38l0 0c0.12,-0.17 0.18,-0.36 0.18,-0.58 0,-0.35 -0.14,-0.66 -0.4,-0.89l0 0 0 0c-0.25,-0.23 -0.56,-0.35 -0.92,-0.35l-1.62 0 0 4.43 0.07 0 0 -0.07 0 0z"/>
  <polygon class="fil5" points="56.63,9.29 56.63,5 57.18,5 57.18,8.76 59.04,8.76 59.04,9.29 "/>
  <polygon class="fil5" points="56.63,9.29 56.7,9.29 56.7,5.07 57.11,5.07 57.11,8.84 58.97,8.84 58.97,9.22 56.63,9.22 56.63,9.29 56.7,9.29 56.63,9.29 56.63,9.36 59.11,9.36 59.11,8.69 57.25,8.69 57.25,4.93 56.56,4.93 56.56,9.36 56.63,9.36 "/>
  <polygon class="fil5" points="62.24,5.53 60.28,5.53 60.28,6.89 62.04,6.89 62.04,7.4 60.28,7.4 60.28,8.76 62.24,8.76 62.24,9.29 59.73,9.29 59.73,5 62.24,5 "/>
  <polygon class="fil5" points="62.24,5.53 62.24,5.46 60.21,5.46 60.21,6.96 61.97,6.96 61.97,7.33 60.21,7.33 60.21,8.84 62.16,8.84 62.16,9.22 59.8,9.22 59.8,5.07 62.16,5.07 62.16,5.53 62.24,5.53 62.24,5.46 62.24,5.53 62.31,5.53 62.31,4.93 59.66,4.93 59.66,9.36 62.31,9.36 62.31,8.69 60.35,8.69 60.35,7.48 62.12,7.48 62.12,6.82 60.35,6.82 60.35,5.6 62.31,5.6 62.31,5.53 "/>
  <polygon class="fil5" points="67.04,5.53 65.09,5.53 65.09,6.89 66.85,6.89 66.85,7.4 65.09,7.4 65.09,8.76 67.04,8.76 67.04,9.29 64.54,9.29 64.54,5 67.04,5 "/>
  <polygon class="fil5" points="67.04,5.53 67.04,5.46 65.01,5.46 65.01,6.96 66.77,6.96 66.77,7.33 65.01,7.33 65.01,8.84 66.97,8.84 66.97,9.22 64.61,9.22 64.61,5.07 66.97,5.07 66.97,5.53 67.04,5.53 67.04,5.46 67.04,5.53 67.11,5.53 67.11,4.93 64.46,4.93 64.46,9.36 67.11,9.36 67.11,8.69 65.16,8.69 65.16,7.48 66.92,7.48 66.92,6.82 65.16,6.82 65.16,5.6 67.11,5.6 67.11,5.53 "/>
  <polygon class="fil5" points="67.9,9.29 67.9,5 68.57,5 70.65,8.34 70.68,8.34 70.65,7.51 70.65,5 71.21,5 71.21,9.29 70.63,9.29 68.45,5.79 68.43,5.79 68.45,6.62 68.45,9.29 "/>
  <polygon class="fil5" points="67.9,9.29 67.97,9.29 67.97,5.07 68.53,5.07 70.62,8.41 70.75,8.41 70.73,7.51 70.73,5.07 71.14,5.07 71.14,9.22 70.67,9.22 68.49,5.72 68.35,5.72 68.38,6.62 68.38,9.22 67.9,9.22 67.9,9.29 67.97,9.29 67.9,9.29 67.9,9.36 68.52,9.36 68.52,6.62 68.5,5.79 68.43,5.79 68.43,5.86 68.45,5.86 68.45,5.79 68.39,5.83 70.59,9.36 71.28,9.36 71.28,4.93 70.58,4.93 70.58,7.51 70.61,8.34 70.68,8.34 70.68,8.27 70.65,8.27 70.65,8.34 70.72,8.3 68.61,4.93 67.83,4.93 67.83,9.36 67.9,9.36 "/>
 </g>
</svg>
