<?xml version="1.0" encoding="UTF-8"?>
<!DOCTYPE svg PUBLIC "-//W3C//DTD SVG 1.1//EN" "http://www.w3.org/Graphics/SVG/1.1/DTD/svg11.dtd">
<!-- Creator: CorelDRAW 2017 -->
<svg xmlns="http://www.w3.org/2000/svg" xml:space="preserve" width="386px" height="72px" version="1.1" style="shape-rendering:geometricPrecision; text-rendering:geometricPrecision; image-rendering:optimizeQuality; fill-rule:evenodd; clip-rule:evenodd"
viewBox="0 0 468.83 87.51"
 xmlns:xlink="http://www.w3.org/1999/xlink">
 <defs>
  <style type="text/css">
   <![CDATA[
    .fil0 {fill:#4C00FF}
    .fil1 {fill:#2905A1}
    .fil2 {fill:#4C00FF;fill-rule:nonzero}
   ]]>
  </style>
 </defs>
 <g id="Capa_x0020_1">
  <metadata id="CorelCorpID_0Corel-Layer"/>
  <g id="_2587747140352">
   <polygon class="fil0" points="0,26.99 36.87,0 73.74,26.99 110.61,0 110.61,60.52 73.74,87.51 36.87,60.52 0,87.51 "/>
   <polygon class="fil1" points="73.74,26.99 36.87,0 36.87,60.52 73.74,87.51 "/>
   <path class="fil2" d="M345.81 64.53c0,1.54 -0.55,2.83 -1.65,3.87 -1.09,1.09 -2.38,1.64 -3.88,1.64l-0.14 0c-1.48,0 -2.77,-0.55 -3.88,-1.64 -1.09,-1.04 -1.63,-2.33 -1.63,-3.87l0 -25.11c0,-6.03 2.15,-11.2 6.43,-15.51 4.28,-4.28 9.47,-6.43 15.51,-6.43 7.24,0 12.71,2.4 16.38,7.21 3.65,-4.81 9.1,-7.21 16.34,-7.21 6.04,0 11.21,2.15 15.51,6.43 4.28,4.31 6.43,9.48 6.43,15.51l0 25.11c0,1.51 -0.53,2.8 -1.6,3.87 -1.09,1.09 -2.4,1.64 -3.93,1.64l-0.07 0c-1.56,0 -2.85,-0.55 -3.88,-1.64 -1.11,-1.04 -1.65,-2.33 -1.65,-3.87l0 -25.11c0,-2.97 -1.05,-5.51 -3.15,-7.62 -2.1,-2.1 -4.65,-3.14 -7.66,-3.14 -2.99,0 -5.53,1.04 -7.61,3.14 -2.11,2.11 -3.17,4.65 -3.17,7.62l0 25.11c0,1.54 -0.54,2.83 -1.63,3.87 -1.05,1.09 -2.34,1.64 -3.88,1.64l-0.09 0c-1.53,0 -2.84,-0.55 -3.93,-1.64 -1.09,-1.04 -1.63,-2.33 -1.63,-3.87l0 -25.11c0,-2.97 -1.06,-5.51 -3.16,-7.62 -2.09,-2.1 -4.63,-3.14 -7.62,-3.14 -2.97,0 -5.51,1.04 -7.61,3.14 -2.11,2.11 -3.15,4.65 -3.15,7.62l0 25.11zm121.74 -31.73c0.36,0.76 0.55,1.54 0.55,2.34 0,0.64 -0.13,1.28 -0.36,1.91 -0.53,1.44 -1.49,2.46 -2.93,3.1 -4.25,1.92 -9.85,4.44 -16.79,7.57 -8.61,3.89 -13.65,6.2 -15.15,6.9 2.32,2.91 5.92,4.38 10.83,4.38 3.25,0 6.19,-0.97 8.84,-2.88 2.59,-1.89 4.39,-4.32 5.44,-7.29 0.87,-2.49 2.64,-3.76 5.28,-3.76 1.89,0 3.39,0.8 4.53,2.39 0.68,0.96 1.04,1.99 1.04,3.05 0,0.64 -0.12,1.29 -0.37,1.96 -1.79,5.2 -4.94,9.41 -9.44,12.6 -4.56,3.32 -9.67,4.97 -15.32,4.97 -7.25,0 -13.44,-2.57 -18.58,-7.71 -5.14,-5.14 -7.71,-11.34 -7.71,-18.58 0,-7.23 2.57,-13.42 7.71,-18.56 5.14,-5.14 11.33,-7.71 18.58,-7.71 5.23,0 9.99,1.43 14.32,4.28 4.29,2.8 7.46,6.48 9.53,11.04zm-23.85 -4.05c-4.21,0 -7.78,1.47 -10.73,4.43 -2.92,2.94 -4.38,6.52 -4.38,10.71l0 0.33 25.51 -11.46c-2.26,-2.67 -5.73,-4.01 -10.4,-4.01zm-276.46 35.78c0,1.54 -0.55,2.83 -1.65,3.87 -1.09,1.09 -2.39,1.64 -3.88,1.64l-0.14 0c-1.48,0 -2.77,-0.55 -3.88,-1.64 -1.09,-1.04 -1.63,-2.33 -1.63,-3.87l0 -24.97c0,-6.09 2.16,-11.29 6.48,-15.6 4.31,-4.32 9.51,-6.48 15.6,-6.48 6.06,0 11.24,2.16 15.56,6.48 4.31,4.31 6.48,9.51 6.48,15.6l0 24.97c0,1.54 -0.55,2.83 -1.64,3.87 -1.04,1.09 -2.34,1.64 -3.88,1.64l-0.09 0c-1.53,0 -2.84,-0.55 -3.93,-1.64 -1.1,-1.04 -1.64,-2.33 -1.64,-3.87l0 -24.97c0,-3 -1.05,-5.57 -3.15,-7.71 -2.13,-2.13 -4.71,-3.19 -7.71,-3.19 -3.04,0 -5.62,1.06 -7.76,3.19 -2.1,2.14 -3.14,4.71 -3.14,7.71l0 24.97zm60.46 -9.96l14.45 -33.71c0.98,-2.26 2.68,-3.38 5.12,-3.38l0.08 0c1.98,0 3.52,0.84 4.61,2.51 0.64,0.95 0.97,1.93 0.97,2.97 0,0.72 -0.17,1.46 -0.5,2.23l-16.93 39.55c-1.4,3.54 -3.98,5.3 -7.75,5.3 -3.84,0 -6.43,-1.76 -7.81,-5.3l-16.97 -39.55c-0.31,-0.77 -0.45,-1.5 -0.45,-2.2 0,-1.03 0.31,-2.02 0.95,-3 1.09,-1.67 2.63,-2.51 4.61,-2.51l0.14 0c2.43,0 4.11,1.12 5.06,3.38 7.27,17 11.46,26.78 12.6,29.37 0,0.12 0.6,1.57 1.82,4.34zm36.58 -37.09c1.54,0 2.83,0.54 3.87,1.63 1.09,1.11 1.64,2.42 1.64,3.93l0 41.49c0,1.54 -0.55,2.83 -1.64,3.87 -1.04,1.09 -2.33,1.64 -3.87,1.64l-0.1 0c-1.52,0 -2.83,-0.55 -3.92,-1.64 -1.09,-1.04 -1.65,-2.33 -1.65,-3.87l0 -41.49c0,-1.51 0.56,-2.82 1.65,-3.93 1.09,-1.09 2.4,-1.63 3.92,-1.63l0.1 0zm37.92 0c7.24,0 13.44,2.57 18.58,7.71 5.14,5.14 7.71,11.33 7.71,18.56l0 20.78c0,1.54 -0.55,2.83 -1.64,3.87 -1.1,1.09 -2.4,1.64 -3.87,1.64l-0.15 0c-1.49,0 -2.78,-0.55 -3.87,-1.64 -1.11,-1.04 -1.65,-2.33 -1.65,-3.87 -3.46,3.67 -8.51,5.51 -15.11,5.51 -7.23,0 -13.42,-2.57 -18.56,-7.71 -5.14,-5.14 -7.71,-11.34 -7.71,-18.58 0,-7.23 2.57,-13.42 7.71,-18.56 5.14,-5.14 11.33,-7.71 18.56,-7.71zm0 11.18c-4.19,0 -7.77,1.46 -10.71,4.42 -2.93,2.95 -4.38,6.51 -4.38,10.67 0,4.2 1.45,7.77 4.38,10.73 2.94,2.91 6.52,4.38 10.71,4.38 4.21,0 7.77,-1.47 10.68,-4.38 2.96,-2.96 4.43,-6.53 4.43,-10.73 0,-4.16 -1.47,-7.72 -4.43,-10.67 -2.94,-2.96 -6.51,-4.42 -10.68,-4.42z"/>
  </g>
 </g>
</svg>
