<svg id="Capa_1" data-name="Capa 1" xmlns="http://www.w3.org/2000/svg" viewBox="0 0 662.64 192.55"><defs><style>.cls-1{fill:#363635;}.cls-2{fill:#da3322;}.cls-3{fill:#15a1dc;}.cls-4{fill:#0674b7;}.cls-5{fill:#1793d0;}.cls-6{fill:#094e8f;}</style></defs><title>LOGOS_ASEA nuevo</title><path d="M300.07,20.7A1.19,1.19,0,0,1,301,20h0.36a1.19,1.19,0,0,1,.89.72l54.06,127.09a0.75,0.75,0,0,1-.54,1.07l-1.61.54c-0.54.18-.72-0.18-0.9-0.54L337.3,111.45H264.09L248,148.86c-0.18.36-.36,0.72-0.89,0.54l-1.61-.54a0.75,0.75,0,0,1-.54-1.07Zm35.8,87.71-34.73-82-35.62,82h70.35Z" transform="translate(-36.22 -18.48)"/><path d="M370.77,134.36l0.72-.72a1,1,0,0,1,1.61.18c2.33,2,15.57,13.78,35.8,13.78,19.15,0,36.34-12.71,36.34-28.28,0-19.51-15.57-26.49-38.31-32.58C385.27,80.84,369.52,74,369.52,53.28c0-14.5,10.92-31.33,39-31.33a59,59,0,0,1,31,9.13,1,1,0,0,1,.36,1.43l-0.72,1.07a0.94,0.94,0,0,1-1.43.36S425,25.17,408.54,25.17c-26,0-35.8,15-35.8,28.1,0,18.26,14.14,24.7,35.08,30.25,25.06,7,40.63,15,40.63,35.8,0,17.18-18.62,31.5-39.56,31.5-21.3,0-35.8-12.71-38.13-14.86A1,1,0,0,1,370.77,134.36Z" transform="translate(-36.22 -18.48)"/><path d="M477.45,25a1.22,1.22,0,0,1,1.25-1.25h72.85A1.22,1.22,0,0,1,552.81,25v0.72A1.22,1.22,0,0,1,551.56,27H480.68V82.28H543a1.22,1.22,0,0,1,1.25,1.25v0.72A1.22,1.22,0,0,1,543,85.5H480.68v60.32h70.88a1.22,1.22,0,0,1,1.25,1.25v0.72a1.22,1.22,0,0,1-1.25,1.25H478.71a1.22,1.22,0,0,1-1.25-1.25V25Z" transform="translate(-36.22 -18.48)"/><path d="M623.16,20.7a1.19,1.19,0,0,1,.89-0.72h0.36a1.19,1.19,0,0,1,.89.72l54.06,127.09a0.75,0.75,0,0,1-.54,1.07l-1.61.54c-0.54.18-.72-0.18-0.89-0.54l-15.93-37.41H587.18l-16.11,37.41c-0.18.36-.36,0.72-0.89,0.54l-1.61-.54a0.75,0.75,0,0,1-.54-1.07ZM659,108.41l-34.73-82-35.62,82H659Z" transform="translate(-36.22 -18.48)"/><path d="M353.86,150.95a2.23,2.23,0,0,1-2-1.41L336.31,113H265.07l-15.72,36.5a2.27,2.27,0,0,1-2,1.49h0a2.32,2.32,0,0,1-.74-0.12l-1.61-.54a2.24,2.24,0,0,1-1.49-3l0-.12L298.69,20.1A2.69,2.69,0,0,1,301,18.48h0.36A2.65,2.65,0,0,1,303.56,20l54.1,127.17,0,0.11a2.23,2.23,0,0,1-1.49,3l-1.61.54A2.33,2.33,0,0,1,353.86,150.95Zm-107.24-3.28,0.21,0.07,15.88-36.88a1.5,1.5,0,0,1,1.38-.91H337.3a1.5,1.5,0,0,1,1.38.91l15.7,36.87,0.21-.07L301.14,22Zm89.24-37.76H265.52a1.5,1.5,0,0,1-1.38-2.1l35.62-82a1.48,1.48,0,0,1,1.38-.9,1.5,1.5,0,0,1,1.37.91l34.73,82A1.5,1.5,0,0,1,335.87,109.91Zm-68.06-3h65.8L301.12,30.23Z" transform="translate(-36.22 -18.48)"/><path d="M408.9,152.33c-21.53,0-36.38-12.71-39.14-15.26a2.65,2.65,0,0,1-.88-1.91,2.61,2.61,0,0,1,.84-1.87l0.72-.72a2.42,2.42,0,0,1,1.74-.76,2.79,2.79,0,0,1,2,.9l0.19,0.16c10.15,8.65,22.11,13.23,34.59,13.23,18.88,0,34.84-12.26,34.84-26.78,0-17.8-13.07-24.67-37.19-31.13C386.24,82.66,368,75.83,368,53.28c0-16.34,12.53-32.82,40.52-32.82a60,60,0,0,1,31.83,9.4,2.62,2.62,0,0,1,1.1,1.48,2.43,2.43,0,0,1-.36,2l-0.72,1.07a2.39,2.39,0,0,1-3.35.87l-0.18-.11c-0.12-.09-12.55-8.51-28.33-8.51-25.32,0-34.3,14.33-34.3,26.6,0,16.65,11.94,23,34,28.8C434.65,89.45,450,97.9,450,119.33,450,137.22,431.15,152.33,408.9,152.33Zm-36.8-17.18c3.27,2.94,17.08,14.18,36.8,14.18,20.27,0,38.06-14,38.06-30,0-19.52-14.5-27.38-39.54-34.36-19.06-5-36.18-11.28-36.18-31.7,0-14.73,11.53-29.6,37.3-29.6a57.82,57.82,0,0,1,29.58,8.74l0.21-.31a58.31,58.31,0,0,0-29.79-8.65c-18.68,0-37.52,9.22-37.52,29.82,0,18.6,12.76,25.6,36.31,32,20.77,5.56,39.41,12.35,39.41,34,0,16.14-17.33,29.78-37.84,29.78-13.21,0-25.84-4.82-36.54-13.94l-0.14-.12Z" transform="translate(-36.22 -18.48)"/><path d="M551.56,150.54H478.71a2.72,2.72,0,0,1-2.75-2.75V25a2.72,2.72,0,0,1,2.75-2.75h72.85A2.72,2.72,0,0,1,554.31,25v0.72a2.72,2.72,0,0,1-2.75,2.75H482.18V80.78H543a2.72,2.72,0,0,1,2.75,2.75v0.72A2.72,2.72,0,0,1,543,87H482.18v57.32h69.38a2.72,2.72,0,0,1,2.75,2.75v0.72A2.72,2.72,0,0,1,551.56,150.54Zm-72.61-3h72.36v-0.22H480.68a1.5,1.5,0,0,1-1.5-1.5V85.5a1.5,1.5,0,0,1,1.5-1.5h62V83.78h-62a1.5,1.5,0,0,1-1.5-1.5V27a1.5,1.5,0,0,1,1.5-1.5h70.64V25.24H479v122.3Z" transform="translate(-36.22 -18.48)"/><path d="M677,150.95a2.23,2.23,0,0,1-2-1.41L659.4,113H588.17l-15.72,36.5a2.27,2.27,0,0,1-2,1.49h0a2.34,2.34,0,0,1-.73-0.12l-1.61-.54a2.23,2.23,0,0,1-1.49-3l0-.12L621.78,20.1a2.68,2.68,0,0,1,2.27-1.62h0.36A2.65,2.65,0,0,1,626.65,20L680.74,147.2l0,0.11a2.23,2.23,0,0,1-1.48,3l-1.61.54A2.33,2.33,0,0,1,677,150.95Zm-107.24-3.28,0.21,0.07,15.88-36.88a1.5,1.5,0,0,1,1.38-.91h73.21a1.5,1.5,0,0,1,1.38.91l15.7,36.87,0.21-.07L624.23,22ZM659,109.91H588.61a1.5,1.5,0,0,1-1.38-2.1l35.62-82a1.5,1.5,0,0,1,1.38-.9h0a1.5,1.5,0,0,1,1.37.91l34.73,82A1.5,1.5,0,0,1,659,109.91Zm-68.06-3h65.8L624.21,30.23Z" transform="translate(-36.22 -18.48)"/><path class="cls-1" d="M240.86,180.28l5.85-13.22a0.26,0.26,0,0,1,.23-0.13H247a0.24,0.24,0,0,1,.25.13L253,180.28c0,0.11,0,.23-0.17.23h-0.49a0.31,0.31,0,0,1-.27-0.17l-1.54-3.5h-7.26l-1.52,3.5a0.31,0.31,0,0,1-.27.17H241C240.86,180.5,240.8,180.43,240.86,180.28Zm9.38-4.18L247,168.44h0l-3.31,7.66h6.59Z" transform="translate(-36.22 -18.48)"/><path class="cls-1" d="M254.36,178.74l0.17-.23a0.26,0.26,0,0,1,.42-0.08,5.53,5.53,0,0,0,3.51,1.46c1.73,0,3.19-1.16,3.19-2.54,0-1.69-1.39-2.45-3.69-3.23s-3.67-1.56-3.67-3.74c0-1.42,1.14-3.36,4.1-3.36a6.24,6.24,0,0,1,3.27,1,0.27,0.27,0,0,1,.08.4,1.74,1.74,0,0,0-.15.25,0.27,0.27,0,0,1-.42.09,5.57,5.57,0,0,0-2.79-.89c-2.34,0-3.21,1.44-3.21,2.53,0,1.62,1.23,2.32,3.15,2.94,2.6,0.89,4.26,1.8,4.26,4,0,1.9-2,3.38-4.14,3.38a6.18,6.18,0,0,1-4-1.56A0.24,0.24,0,0,1,254.36,178.74Z" transform="translate(-36.22 -18.48)"/><path class="cls-1" d="M271.37,167a6.84,6.84,0,1,1-6.84,6.86A6.83,6.83,0,0,1,271.37,167Zm0,12.84a6,6,0,1,0-6-6A6,6,0,0,0,271.37,179.86Z" transform="translate(-36.22 -18.48)"/><path class="cls-1" d="M287.23,167a6.51,6.51,0,0,1,4.62,1.77,0.24,0.24,0,0,1,0,.34l-0.3.32a0.2,0.2,0,0,1-.32,0,6,6,0,1,0-4,10.41,6,6,0,0,0,4-1.6,0.24,0.24,0,0,1,.3,0l0.32,0.32a0.22,0.22,0,0,1,0,.32,6.57,6.57,0,0,1-4.64,1.84A6.84,6.84,0,1,1,287.23,167Z" transform="translate(-36.22 -18.48)"/><path class="cls-1" d="M294.95,167.45a0.25,0.25,0,0,1,.25-0.25h0.42a0.25,0.25,0,0,1,.25.25v12.8a0.26,0.26,0,0,1-.27.25h-0.4a0.25,0.25,0,0,1-.25-0.25v-12.8Z" transform="translate(-36.22 -18.48)"/><path class="cls-1" d="M298,180.28l5.85-13.22a0.26,0.26,0,0,1,.23-0.13h0.06a0.24,0.24,0,0,1,.25.13l5.79,13.22c0,0.11,0,.23-0.17.23H309.5a0.31,0.31,0,0,1-.27-0.17l-1.54-3.5h-7.26l-1.52,3.5a0.31,0.31,0,0,1-.27.17h-0.53C298,180.5,297.93,180.43,298,180.28Zm9.38-4.18-3.25-7.66h0l-3.31,7.66h6.59Z" transform="translate(-36.22 -18.48)"/><path class="cls-1" d="M318.15,167a6.51,6.51,0,0,1,4.62,1.77,0.24,0.24,0,0,1,0,.34l-0.3.32a0.2,0.2,0,0,1-.32,0,6,6,0,1,0-4,10.41,6,6,0,0,0,4-1.6,0.24,0.24,0,0,1,.3,0l0.32,0.32a0.22,0.22,0,0,1,0,.32,6.57,6.57,0,0,1-4.64,1.84A6.84,6.84,0,1,1,318.15,167Z" transform="translate(-36.22 -18.48)"/><path class="cls-1" d="M325.86,167.45a0.25,0.25,0,0,1,.25-0.25h0.42a0.25,0.25,0,0,1,.25.25v12.8a0.26,0.26,0,0,1-.27.25h-0.4a0.25,0.25,0,0,1-.25-0.25v-12.8Z" transform="translate(-36.22 -18.48)"/><path class="cls-1" d="M336.69,167a6.84,6.84,0,1,1-6.84,6.86A6.83,6.83,0,0,1,336.69,167Zm0,12.84a6,6,0,1,0-6-6A6,6,0,0,0,336.69,179.86Zm-1.6-14.27-0.1-.19a0.2,0.2,0,0,1,.11-0.27l3.12-1.71a0.24,0.24,0,0,1,.32.06l0.19,0.38a0.19,0.19,0,0,1-.08.29l-3.27,1.5C335.23,165.72,335.15,165.71,335.09,165.59Z" transform="translate(-36.22 -18.48)"/><path class="cls-1" d="M346.63,167.26a0.26,0.26,0,0,1,.29-0.25h0.32l9.12,11.87h0V167.45a0.25,0.25,0,0,1,.25-0.25H357a0.25,0.25,0,0,1,.25.25v13a0.27,0.27,0,0,1-.3.25H356.7s-0.17-.06-9.19-12h0v11.55a0.25,0.25,0,0,1-.25.25h-0.36a0.25,0.25,0,0,1-.25-0.25v-13Z" transform="translate(-36.22 -18.48)"/><path class="cls-1" d="M365.4,167.45a0.25,0.25,0,0,1,.23-0.25h4a6.65,6.65,0,1,1,0,13.3h-4a0.25,0.25,0,0,1-.23-0.25v-12.8Zm4.1,12.23a5.83,5.83,0,1,0,0-11.66h-3.21v11.66h3.21Z" transform="translate(-36.22 -18.48)"/><path class="cls-1" d="M379.42,167.45a0.25,0.25,0,0,1,.25-0.25h7.62a0.25,0.25,0,0,1,.25.25v0.32a0.25,0.25,0,0,1-.25.25h-7v5.24h6a0.25,0.25,0,0,1,.25.25v0.32a0.25,0.25,0,0,1-.25.25h-6v5.62h7a0.25,0.25,0,0,1,.25.25v0.3a0.25,0.25,0,0,1-.25.25h-7.62a0.25,0.25,0,0,1-.25-0.25v-12.8Z" transform="translate(-36.22 -18.48)"/><path class="cls-1" d="M394.91,167.45a0.25,0.25,0,0,1,.25-0.25h7.62a0.25,0.25,0,0,1,.25.25v0.32a0.25,0.25,0,0,1-.25.25h-7v5.24h6a0.25,0.25,0,0,1,.25.25v0.32a0.25,0.25,0,0,1-.25.25h-6v5.62h7a0.25,0.25,0,0,1,.25.25v0.3a0.25,0.25,0,0,1-.25.25h-7.62a0.25,0.25,0,0,1-.25-0.25v-12.8Z" transform="translate(-36.22 -18.48)"/><path class="cls-1" d="M407.9,167.15a0.18,0.18,0,0,1,.17-0.13h0.21a0.18,0.18,0,0,1,.19.13l3.91,11.66h0l3.93-11.66a0.18,0.18,0,0,1,.19-0.13h0.21a0.18,0.18,0,0,1,.17.13l2.7,13.11c0,0.19,0,.25-0.21.25H419a0.24,0.24,0,0,1-.23-0.21l-2.15-11.13h0l-3.84,11.38a0.26,0.26,0,0,1-.27.15h-0.08a0.22,0.22,0,0,1-.25-0.15l-3.84-11.38h0L406.1,180.3a0.24,0.24,0,0,1-.23.21h-0.46c-0.17,0-.25-0.06-0.21-0.25Z" transform="translate(-36.22 -18.48)"/><path class="cls-1" d="M422.59,167.45a0.25,0.25,0,0,1,.25-0.25h4.08a4.28,4.28,0,1,1,0,8.57h-3.46v4.48a0.27,0.27,0,0,1-.3.25h-0.34a0.25,0.25,0,0,1-.25-0.25v-12.8Zm4.29,7.45a3.47,3.47,0,0,0,3.44-3.46,3.41,3.41,0,0,0-3.46-3.34h-3.38v6.8h3.4Z" transform="translate(-36.22 -18.48)"/><path class="cls-1" d="M433.87,167.45a0.24,0.24,0,0,1,.25-0.25h4.71a4.07,4.07,0,0,1,1.1,8l2.77,4.92c0.09,0.15.06,0.34-.13,0.34H442a0.27,0.27,0,0,1-.27-0.17l-2.75-5c-0.25,0-.46,0-0.7,0h-3.5v4.88a0.27,0.27,0,0,1-.3.25h-0.34a0.25,0.25,0,0,1-.25-0.25v-12.8Zm4.92,7.12a3.32,3.32,0,0,0,3.36-3.31,3.28,3.28,0,0,0-3.38-3.19h-4v6.5h4Z" transform="translate(-36.22 -18.48)"/><path class="cls-1" d="M446.22,167.45a0.25,0.25,0,0,1,.25-0.25h7.62a0.25,0.25,0,0,1,.25.25v0.32a0.25,0.25,0,0,1-.25.25h-7v5.24h6a0.25,0.25,0,0,1,.25.25v0.32a0.25,0.25,0,0,1-.25.25h-6v5.62h7a0.25,0.25,0,0,1,.25.25v0.3a0.25,0.25,0,0,1-.25.25h-7.62a0.25,0.25,0,0,1-.25-0.25v-12.8Z" transform="translate(-36.22 -18.48)"/><path class="cls-1" d="M457.59,167.26a0.26,0.26,0,0,1,.29-0.25h0.32l9.12,11.87h0V167.45a0.25,0.25,0,0,1,.25-0.25H468a0.25,0.25,0,0,1,.25.25v13a0.27,0.27,0,0,1-.3.25h-0.25s-0.17-.06-9.19-12h0v11.55a0.25,0.25,0,0,1-.25.25h-0.36a0.25,0.25,0,0,1-.25-0.25v-13Z" transform="translate(-36.22 -18.48)"/><path class="cls-1" d="M472.23,167.45a0.25,0.25,0,0,1,.23-0.25h4a6.65,6.65,0,1,1,0,13.3h-4a0.25,0.25,0,0,1-.23-0.25v-12.8Zm4.1,12.23a5.83,5.83,0,1,0,0-11.66h-3.21v11.66h3.21Z" transform="translate(-36.22 -18.48)"/><path class="cls-1" d="M486.26,167.45a0.25,0.25,0,0,1,.25-0.25h7.62a0.25,0.25,0,0,1,.25.25v0.32a0.25,0.25,0,0,1-.25.25h-7v5.24h6a0.25,0.25,0,0,1,.25.25v0.32a0.25,0.25,0,0,1-.25.25h-6v5.62h7a0.25,0.25,0,0,1,.25.25v0.3a0.25,0.25,0,0,1-.25.25H486.5a0.25,0.25,0,0,1-.25-0.25v-12.8Z" transform="translate(-36.22 -18.48)"/><path class="cls-1" d="M497.62,167.45a0.25,0.25,0,0,1,.23-0.25h4a6.65,6.65,0,1,1,0,13.3h-4a0.25,0.25,0,0,1-.23-0.25v-12.8Zm4.1,12.23a5.83,5.83,0,1,0,0-11.66h-3.21v11.66h3.21Z" transform="translate(-36.22 -18.48)"/><path class="cls-1" d="M517.53,167a6.84,6.84,0,1,1-6.84,6.86A6.83,6.83,0,0,1,517.53,167Zm0,12.84a6,6,0,1,0-6-6A6,6,0,0,0,517.53,179.86Z" transform="translate(-36.22 -18.48)"/><path class="cls-1" d="M527.47,167.45a0.24,0.24,0,0,1,.25-0.25h4.71a4.07,4.07,0,0,1,1.1,8l2.77,4.92c0.09,0.15.06,0.34-.13,0.34h-0.59a0.27,0.27,0,0,1-.27-0.17l-2.75-5c-0.25,0-.46,0-0.7,0h-3.5v4.88a0.27,0.27,0,0,1-.3.25h-0.34a0.25,0.25,0,0,1-.25-0.25v-12.8Zm4.92,7.12a3.32,3.32,0,0,0,3.36-3.31,3.28,3.28,0,0,0-3.38-3.19h-4v6.5h4Z" transform="translate(-36.22 -18.48)"/><path class="cls-1" d="M539.82,167.45a0.25,0.25,0,0,1,.25-0.25h7.62a0.25,0.25,0,0,1,.25.25v0.32a0.25,0.25,0,0,1-.25.25h-7v5.24h6a0.25,0.25,0,0,1,.25.25v0.32a0.25,0.25,0,0,1-.25.25h-6v5.62h7a0.25,0.25,0,0,1,.25.25v0.3a0.25,0.25,0,0,1-.25.25h-7.62a0.25,0.25,0,0,1-.25-0.25v-12.8Z" transform="translate(-36.22 -18.48)"/><path class="cls-1" d="M550.38,178.74l0.17-.23a0.26,0.26,0,0,1,.42-0.08,5.53,5.53,0,0,0,3.51,1.46c1.73,0,3.19-1.16,3.19-2.54,0-1.69-1.39-2.45-3.69-3.23s-3.67-1.56-3.67-3.74c0-1.42,1.14-3.36,4.1-3.36a6.24,6.24,0,0,1,3.27,1,0.27,0.27,0,0,1,.08.4,1.77,1.77,0,0,0-.15.25,0.27,0.27,0,0,1-.42.09,5.57,5.57,0,0,0-2.79-.89c-2.34,0-3.21,1.44-3.21,2.53,0,1.62,1.24,2.32,3.15,2.94,2.6,0.89,4.25,1.8,4.25,4,0,1.9-2,3.38-4.14,3.38a6.19,6.19,0,0,1-4-1.56A0.24,0.24,0,0,1,550.38,178.74Z" transform="translate(-36.22 -18.48)"/><path class="cls-1" d="M565.62,167.45a0.25,0.25,0,0,1,.23-0.25h4a6.65,6.65,0,1,1,0,13.3h-4a0.25,0.25,0,0,1-.23-0.25v-12.8Zm4.1,12.23a5.83,5.83,0,1,0,0-11.66h-3.21v11.66h3.21Z" transform="translate(-36.22 -18.48)"/><path class="cls-1" d="M579.64,167.45a0.25,0.25,0,0,1,.25-0.25h7.62a0.25,0.25,0,0,1,.25.25v0.32a0.25,0.25,0,0,1-.25.25h-7v5.24h6a0.25,0.25,0,0,1,.25.25v0.32a0.25,0.25,0,0,1-.25.25h-6v5.62h7a0.25,0.25,0,0,1,.25.25v0.3a0.25,0.25,0,0,1-.25.25h-7.62a0.25,0.25,0,0,1-.25-0.25v-12.8Z" transform="translate(-36.22 -18.48)"/><path class="cls-1" d="M593.23,180.28l5.85-13.22a0.26,0.26,0,0,1,.23-0.13h0.06a0.24,0.24,0,0,1,.25.13l5.79,13.22c0,0.11,0,.23-0.17.23h-0.49a0.31,0.31,0,0,1-.27-0.17l-1.54-3.5h-7.26l-1.52,3.5a0.31,0.31,0,0,1-.27.17h-0.53C593.23,180.5,593.17,180.43,593.23,180.28Zm9.38-4.18-3.25-7.66h0L596,176.1h6.59Z" transform="translate(-36.22 -18.48)"/><path class="cls-1" d="M607.53,167.45a0.24,0.24,0,0,1,.25-0.25h4.71a4.07,4.07,0,0,1,1.1,8l2.77,4.92c0.09,0.15.06,0.34-.13,0.34h-0.59a0.27,0.27,0,0,1-.27-0.17l-2.75-5c-0.25,0-.46,0-0.7,0h-3.5v4.88a0.27,0.27,0,0,1-.3.25h-0.34a0.25,0.25,0,0,1-.25-0.25v-12.8Zm4.92,7.12a3.32,3.32,0,0,0,3.36-3.31,3.28,3.28,0,0,0-3.38-3.19h-4v6.5h4Z" transform="translate(-36.22 -18.48)"/><path class="cls-1" d="M625.81,167a6.5,6.5,0,0,1,4.6,1.77,0.24,0.24,0,0,1,0,.34c-0.1.11-.21,0.23-0.3,0.32a0.19,0.19,0,0,1-.32,0,5.85,5.85,0,0,0-4-1.6,6,6,0,0,0,0,12,7.13,7.13,0,0,0,4-1V175.2h-3.25a0.2,0.2,0,0,1-.25-0.25v-0.38c0-.15,0-0.23.25-0.23h3.89a0.25,0.25,0,0,1,.25.23V179a0.52,0.52,0,0,1-.27.49,8.79,8.79,0,0,1-4.56,1.22A6.84,6.84,0,1,1,625.81,167Z" transform="translate(-36.22 -18.48)"/><path class="cls-1" d="M634,167.45a0.25,0.25,0,0,1,.25-0.25h7.62a0.25,0.25,0,0,1,.25.25v0.32a0.25,0.25,0,0,1-.25.25h-7v5.24h6a0.25,0.25,0,0,1,.25.25v0.32a0.25,0.25,0,0,1-.25.25h-6v5.62h7a0.25,0.25,0,0,1,.25.25v0.3a0.25,0.25,0,0,1-.25.25h-7.62a0.25,0.25,0,0,1-.25-0.25v-12.8Z" transform="translate(-36.22 -18.48)"/><path class="cls-1" d="M645.36,167.26a0.26,0.26,0,0,1,.29-0.25H646l9.12,11.87h0V167.45a0.25,0.25,0,0,1,.25-0.25h0.38a0.25,0.25,0,0,1,.25.25v13a0.27,0.27,0,0,1-.3.25h-0.25s-0.17-.06-9.19-12h0v11.55a0.25,0.25,0,0,1-.25.25h-0.36a0.25,0.25,0,0,1-.25-0.25v-13Z" transform="translate(-36.22 -18.48)"/><path class="cls-1" d="M662,168H658.4a0.23,0.23,0,0,1-.25-0.29v-0.28a0.24,0.24,0,0,1,.25-0.25h8.17a0.24,0.24,0,0,1,.25.25v0.32a0.24,0.24,0,0,1-.25.25h-3.65v12.23a0.27,0.27,0,0,1-.3.25h-0.34a0.25,0.25,0,0,1-.25-0.25V168Z" transform="translate(-36.22 -18.48)"/><path class="cls-1" d="M669,167.45a0.25,0.25,0,0,1,.25-0.25h0.42a0.25,0.25,0,0,1,.25.25v12.8a0.26,0.26,0,0,1-.27.25h-0.4a0.25,0.25,0,0,1-.25-0.25v-12.8Z" transform="translate(-36.22 -18.48)"/><path class="cls-1" d="M673.92,167.26a0.26,0.26,0,0,1,.29-0.25h0.32l9.12,11.87h0V167.45a0.25,0.25,0,0,1,.25-0.25h0.38a0.25,0.25,0,0,1,.25.25v13a0.27,0.27,0,0,1-.3.25H684s-0.17-.06-9.19-12h0v11.55a0.25,0.25,0,0,1-.25.25h-0.36a0.25,0.25,0,0,1-.25-0.25v-13Z" transform="translate(-36.22 -18.48)"/><path class="cls-1" d="M686.67,180.28l5.85-13.22a0.26,0.26,0,0,1,.23-0.13h0.06a0.24,0.24,0,0,1,.25.13l5.79,13.22c0,0.11,0,.23-0.17.23h-0.49a0.31,0.31,0,0,1-.27-0.17l-1.54-3.5h-7.26l-1.52,3.5a0.31,0.31,0,0,1-.27.17H686.8C686.67,180.5,686.61,180.43,686.67,180.28Zm9.38-4.18-3.25-7.66h0l-3.31,7.66h6.59Z" transform="translate(-36.22 -18.48)"/><path class="cls-2" d="M93.37,58l1.74,0.69a13.21,13.21,0,0,0-12.08-1,13.87,13.87,0,0,0-5.57,4.18A13.92,13.92,0,0,1,93.37,58" transform="translate(-36.22 -18.48)"/><path class="cls-3" d="M111.95,112.64a114.64,114.64,0,0,0-1.72-19.92,94.89,94.89,0,0,0-8.44-26.26c-0.2-.47-0.3-0.69-0.58-1.21a16.82,16.82,0,0,0-6.1-6.54L93.37,58a13.94,13.94,0,0,0-18.18,7.56,13.15,13.15,0,0,0,1.18,12.56,107.46,107.46,0,0,1,7.74,36.55c-0.27,10.92-2.53,24-8.64,38.82A13.92,13.92,0,0,0,83,171.68c7.11,2.93,14.38-.34,18.18-7.57,0.23-.44.14-0.27,0.46-1a106.68,106.68,0,0,0,10.28-46.43c0-.67,0-1.36,0-2s0-1.37,0-2" transform="translate(-36.22 -18.48)"/><path class="cls-4" d="M75.14,164.15a13.92,13.92,0,0,0,18.18,7.56c14.83-6.11,27.9-8.37,38.82-8.64,10.92,0.27,24,2.53,38.82,8.64a13.93,13.93,0,0,0,18.18-7.56c2.93-7.11-.34-14.37-7.56-18.18-0.44-.23-0.27-0.14-1-0.46a106.71,106.71,0,0,0-46.43-10.28l-2,0-2,0c-23.38,0-39.82,6.9-46.18,10.16-0.47.2-.69,0.3-1.21,0.58-6.79,3.6-10.5,11.07-7.57,18.18" transform="translate(-36.22 -18.48)"/><path class="cls-5" d="M110.63,41a21.53,21.53,0,1,1,21.53,21.53A21.53,21.53,0,0,1,110.63,41" transform="translate(-36.22 -18.48)"/><path class="cls-4" d="M110.63,189.5A21.53,21.53,0,1,1,132.16,211a21.53,21.53,0,0,1-21.53-21.53" transform="translate(-36.22 -18.48)"/><path class="cls-3" d="M57.75,134.77a21.53,21.53,0,1,1,21.53-21.53,21.53,21.53,0,0,1-21.53,21.53" transform="translate(-36.22 -18.48)"/><path class="cls-6" d="M206.88,134.77a21.53,21.53,0,1,1,21.53-21.53,21.53,21.53,0,0,1-21.53,21.53" transform="translate(-36.22 -18.48)"/><path class="cls-6" d="M181.6,58.3a13.92,13.92,0,0,1,7.56,18.18c-6.11,14.83-8.37,27.9-8.64,38.82,0.27,10.92,2.53,24,8.64,38.82a13.92,13.92,0,0,1-7.56,18.18c-7.11,2.93-14.38-.34-18.18-7.56-0.23-.44-0.14-0.27-0.46-1a106.68,106.68,0,0,1-10.28-46.43c0-.67,0-1.36,0-2s0-1.37,0-2c0-23.38,6.9-39.82,10.16-46.18,0.2-.46.3-0.69,0.58-1.21,3.6-6.79,11.07-10.5,18.18-7.56" transform="translate(-36.22 -18.48)"/><path class="cls-5" d="M189.19,65.58A13.92,13.92,0,0,0,171,58c-14.83,6.11-27.9,8.37-38.82,8.64a107.76,107.76,0,0,1-37.08-7.95,16.81,16.81,0,0,1,6.1,6.54c0.28,0.52.38,0.75,0.58,1.21a94.94,94.94,0,0,1,8.43,26.26,112.19,112.19,0,0,0,19.92,1.77l2,0,2,0c23.38,0,39.82-6.9,46.18-10.16,0.47-.2.69-0.3,1.21-0.58,6.79-3.6,10.5-11.07,7.56-18.18" transform="translate(-36.22 -18.48)"/></svg>