<?xml version="1.0" encoding="UTF-8"?>
<svg width="1.6028mm" height="1.6028mm" version="1.1" viewBox="0 0 1.6028 1.6028" xmlns="http://www.w3.org/2000/svg">
 <g transform="translate(-127.49 -121.07)">
  <path d="m128.29 121.07h1.1e-4c0.0684 0 0.12439 0.056 0.12439 0.1245v0.55241h0.55241c0.0685 0 0.1245 0.056 0.1245 0.12439v1.1e-4c0 0.0685-0.056 0.12449-0.1245 0.12449h-0.55241v0.55242c0 0.0685-0.056 0.12449-0.12439 0.12449h-1.1e-4c-0.0685 0-0.12449-0.056-0.12449-0.12449v-0.55242h-0.55242c-0.0685 0-0.12449-0.056-0.12449-0.12449v-1.1e-4c0-0.0684 0.056-0.12439 0.12449-0.12439h0.55242v-0.55241c0-0.0685 0.056-0.1245 0.12449-0.1245" fill="#fff" fill-rule="evenodd"/>
 </g>
</svg>
