<?xml version="1.0" encoding="UTF-8"?>
<svg width="2.366mm" height="2.1432mm" version="1.1" viewBox="0 0 2.366 2.1432" xmlns="http://www.w3.org/2000/svg">
 <g transform="translate(-100.33 -216.64)" fill="#b0b7c5">
  <path d="m102.18 217.76c-0.28381 0-0.5147 0.23089-0.5147 0.51466 0 0.28392 0.23089 0.51481 0.5147 0.51481 0.28388 0 0.51478-0.23089 0.51478-0.51481 0-0.28377-0.2309-0.51466-0.51478-0.51466zm0.14849 0.58409h-0.0791v0.0791c0 0.0383-0.0311 0.0694-0.0694 0.0694s-0.0693-0.0311-0.0693-0.0694v-0.0791h-0.0792c-0.0382 0-0.0693-0.0311-0.0693-0.0694 0-0.0382 0.0311-0.0693 0.0693-0.0693h0.0792v-0.0791c0-0.0383 0.031-0.0694 0.0693-0.0694s0.0694 0.0311 0.0694 0.0694v0.0791h0.0791c0.0383 0 0.0693 0.0311 0.0693 0.0693 0 0.0383-0.031 0.0694-0.0693 0.0694"/>
  <path d="m101.07 217.67c0.28381 0 0.5147-0.231 0.5147-0.51481 0-0.28392-0.23089-0.51481-0.5147-0.51481-0.28388 0-0.51481 0.23089-0.51481 0.51481 0 0.28381 0.23093 0.51481 0.51481 0.51481"/>
  <path d="m101.68 217.86c-0.0521-0.0762-0.11811-0.14231-0.19431-0.19442-0.113 0.0931-0.2576 0.14909-0.41501 0.14909-0.15748 0-0.30208-0.056-0.41511-0.14909-0.19449 0.13289-0.32248 0.35648-0.32248 0.60928v0.25993c0 0.14058 0.11441 0.25488 0.25499 0.25488h0.96509c0.0621 0 0.119-0.0222 0.1632-0.0592-0.11469-0.1178-0.18549-0.27849-0.18549-0.45562 0-0.15737 0.056-0.30197 0.14912-0.41486"/>
 </g>
</svg>
