<?xml version="1.0" encoding="UTF-8"?>
<svg width="3.2328mm" height="3.4396mm" version="1.1" viewBox="0 0 3.2328 3.4396" xmlns="http://www.w3.org/2000/svg">
 <g transform="translate(-98.169 -125.28)" fill="#b0b7c5">
  <path d="m101.16 126.53-1.7229 1.7322c-0.22348 0.22349-0.5866 0.22349-0.81051-3.1e-4 -0.2238-0.22388-0.2238-0.58689 0-0.81069l1.7739-1.7832c0.13949-0.13953 0.36639-0.13953 0.50641 2.8e-4 0.13988 0.13991 0.13988 0.36682-1.1e-4 0.50669l-1.4694 1.4695c-0.05599 0.056-0.05599 0.14672 0 0.20271 0.05591 0.056 0.14672 0.056 0.20271 0l1.4694-1.4695c0.25188-0.25188 0.25188-0.66019 0-0.91211-0.12591-0.1259-0.29101-0.1888-0.456-0.1888-0.1651 0-0.33013 0.0629-0.456 0.1888l-1.7738 1.7832c-0.33553 0.33539-0.33553 0.8799 1.76e-4 1.2158 0.33592 0.3357 0.88043 0.3357 1.2162 0l1.7231-1.7324c0.0558-0.0562 0.0556-0.1469-7e-4 -0.20271-0.0561-0.0558-0.14679-0.0556-0.2026 4.9e-4"/>
  <path d="m99.435 127.65c-0.05599 0.056-0.14668 0.056-0.2026 0-0.05599-0.0559-0.05599-0.14658 0-0.2026l0.70933-0.7094c0.05588-0.056 0.05588-0.14679 0-0.20267-0.05602-0.056-0.14683-0.056-0.20271 0l-0.70929 0.7094c-0.16792 0.16788-0.16792 0.44009 0 0.60798 0.16789 0.16792 0.44009 0.16792 0.60798 0 0.05602-0.056 0.05602-0.14669 0-0.20271-0.05599-0.0559-0.14668-0.0559-0.20271 0"/>
 </g>
</svg>
