<svg xmlns="http://www.w3.org/2000/svg" width="50" height="41" viewBox="0 0 0.77 0.61"  shape-rendering="geometricPrecision" image-rendering="optimizeQuality" fill-rule="nonzero" fill="#B0B7C5" xmlns:v="https://vecta.io/nano"><path d="M.71.44v.09h.02C.75.53.77.51.77.49V.38L.74.42C.73.43.72.44.71.44zM.66.46H.55C.49.46.44.41.44.35S.49.24.55.24h.11.02V.12C.68.1.66.08.63.08H.04C.02.08 0 .1 0 .12v.45C0 .6.02.61.04.61h.59C.66.61.68.6.68.57L.67.46z"/><path d="M.73 0h-.6C.11 0 .09.02.09.04h0 .54c.05 0 .08.04.08.08v.09L.77.14v-.1C.77.02.75 0 .73 0z"/><path d="M.6.37H.55C.54.37.53.36.53.35S.54.33.55.33H.6c.01 0 .02.01.02.02S.61.37.6.37zM.74.24C.73.25.72.26.7.27.69.27.68.28.66.28H.55C.51.28.48.31.48.35s.03.07.07.07h.11C.68.42.7.41.71.4L.77.32V.2L.74.24z"/></svg>