<?xml version="1.0" encoding="UTF-8"?>
<!DOCTYPE svg PUBLIC "-//W3C//DTD SVG 1.1//EN" "http://www.w3.org/Graphics/SVG/1.1/DTD/svg11.dtd">
<!-- Creator: CorelDRAW 2020 (64-Bit Versión de evaluación) -->
<svg xmlns="http://www.w3.org/2000/svg" xml:space="preserve" width="66px" height="66px" version="1.1" style="shape-rendering:geometricPrecision; text-rendering:geometricPrecision; image-rendering:optimizeQuality; fill-rule:evenodd; clip-rule:evenodd"
viewBox="0 0 4.61 4.61"
 xmlns:xlink="http://www.w3.org/1999/xlink"
 xmlns:xodm="http://www.corel.com/coreldraw/odm/2003">
 <defs>
  <style type="text/css">
   <![CDATA[
    .fil0 {fill:#4C00FF;fill-rule:nonzero}
   ]]>
  </style>
 </defs>
 <g id="Capa_x0020_1">
  <metadata id="CorelCorpID_0Corel-Layer"/>
  <path class="fil0" d="M3.89 0.36l-0.23 0 0 -0.18c0,-0.1 -0.08,-0.18 -0.18,-0.18 -0.1,0 -0.18,0.08 -0.18,0.18l0 0.18 -0.82 0 0 -0.18c0,-0.1 -0.08,-0.18 -0.18,-0.18 -0.1,0 -0.18,0.08 -0.18,0.18l0 0.18 -0.81 0 0 -0.18c0,-0.1 -0.08,-0.18 -0.18,-0.18 -0.1,0 -0.18,0.08 -0.18,0.18l0 0.18 -0.23 0c-0.4,0 -0.72,0.32 -0.72,0.72l0 2.81c0,0.4 0.32,0.72 0.72,0.72l1.38 0c0.1,0 0.18,-0.08 0.18,-0.18 0,-0.1 -0.08,-0.18 -0.18,-0.18l-1.38 0c-0.2,0 -0.36,-0.16 -0.36,-0.36l0 -2.81c0,-0.2 0.16,-0.36 0.36,-0.36l0.23 0 0 0.18c0,0.1 0.08,0.18 0.18,0.18 0.1,0 0.18,-0.08 0.18,-0.18l0 -0.18 0.81 0 0 0.18c0,0.1 0.08,0.18 0.18,0.18 0.1,0 0.18,-0.08 0.18,-0.18l0 -0.18 0.82 0 0 0.18c0,0.1 0.08,0.18 0.18,0.18 0.1,0 0.18,-0.08 0.18,-0.18l0 -0.18 0.23 0c0.2,0 0.36,0.16 0.36,0.36l0 1.03c0,0.1 0.08,0.18 0.18,0.18 0.1,0 0.18,-0.08 0.18,-0.18l0 -1.03c0,-0.4 -0.32,-0.72 -0.72,-0.72zm-0.11 2.98l-0.08 0 0 -0.19c0,-0.1 -0.08,-0.18 -0.18,-0.18 -0.1,0 -0.18,0.08 -0.18,0.18l0 0.37c0,0.1 0.08,0.18 0.18,0.18l0.26 0c0.1,0 0.19,-0.08 0.19,-0.18 0,-0.1 -0.09,-0.18 -0.19,-0.18zm0.47 0.18c0,-0.4 -0.32,-0.73 -0.73,-0.73 -0.4,0 -0.73,0.33 -0.73,0.73 0,0.41 0.33,0.73 0.73,0.73 0.41,0 0.73,-0.32 0.73,-0.73zm0.36 0c0,0.6 -0.49,1.09 -1.09,1.09 -0.6,0 -1.09,-0.49 -1.09,-1.09 0,-0.6 0.49,-1.09 1.09,-1.09 0.6,0 1.09,0.49 1.09,1.09zm-2.7 -0.24c-0.1,0 -0.18,0.08 -0.18,0.18l0 0c0,0.1 0.08,0.18 0.18,0.18 0.1,0 0.18,-0.08 0.18,-0.18l0 0c0,-0.1 -0.08,-0.18 -0.18,-0.18zm0.18 -0.6c0,-0.1 -0.08,-0.18 -0.18,-0.18 -0.1,0 -0.18,0.08 -0.18,0.18l0 0c0,0.1 0.08,0.18 0.18,0.18 0.1,0 0.18,-0.08 0.18,-0.18l0 0zm0 -0.79c0,-0.1 -0.08,-0.18 -0.18,-0.18 -0.1,0 -0.18,0.08 -0.18,0.18l0 0c0,0.1 0.08,0.18 0.18,0.18 0.1,0 0.18,-0.08 0.18,-0.18l0 0zm-0.96 1.39c-0.1,0 -0.18,0.08 -0.18,0.18l0 0c0,0.1 0.08,0.18 0.18,0.18 0.1,0 0.18,-0.08 0.18,-0.18l0 0c0,-0.1 -0.08,-0.18 -0.18,-0.18zm0.18 -0.6c0,-0.1 -0.08,-0.18 -0.18,-0.18 -0.1,0 -0.18,0.08 -0.18,0.18l0 0c0,0.1 0.08,0.18 0.18,0.18 0.1,0 0.18,-0.08 0.18,-0.18l0 0zm2.35 -0.79l0 0c0,-0.1 -0.08,-0.18 -0.18,-0.18 -0.1,0 -0.18,0.08 -0.18,0.18l0 0c0,0.1 0.08,0.18 0.18,0.18 0.1,0 0.18,-0.08 0.18,-0.18zm-0.79 0l0 0c0,-0.1 -0.08,-0.18 -0.18,-0.18 -0.1,0 -0.18,0.08 -0.18,0.18l0 0c0,0.1 0.08,0.18 0.18,0.18 0.1,0 0.18,-0.08 0.18,-0.18zm-1.56 0c0,0.1 -0.08,0.18 -0.18,0.18 -0.1,0 -0.18,-0.08 -0.18,-0.18l0 0c0,-0.1 0.08,-0.18 0.18,-0.18 0.1,0 0.18,0.08 0.18,0.18l0 0z"/>
 </g>
</svg>
