<?xml version="1.0" encoding="UTF-8"?>
<!DOCTYPE svg PUBLIC "-//W3C//DTD SVG 1.1//EN" "http://www.w3.org/Graphics/SVG/1.1/DTD/svg11.dtd">
<!-- Creator: CorelDRAW 2020 (64-Bit Versión de evaluación) -->
<svg xmlns="http://www.w3.org/2000/svg" xml:space="preserve" width="60px" height="72px" version="1.1" style="shape-rendering:geometricPrecision; text-rendering:geometricPrecision; image-rendering:optimizeQuality; fill-rule:evenodd; clip-rule:evenodd"
viewBox="0 0 1.12 1.34"
 xmlns:xlink="http://www.w3.org/1999/xlink"
 xmlns:xodm="http://www.corel.com/coreldraw/odm/2003">
 <defs>
  <style type="text/css">
   <![CDATA[
    .fil0 {fill:#4C00FF;fill-rule:nonzero}
   ]]>
  </style>
 </defs>
 <g id="Capa_x0020_1">
  <metadata id="CorelCorpID_0Corel-Layer"/>
  <path class="fil0" d="M0.17 1.07l0.91 0c0,0 0.01,0 0.01,0 0,0 0,0 0,0 0.02,0 0.03,-0.02 0.03,-0.04l0 -0.99c0,-0.02 -0.01,-0.04 -0.03,-0.04l-0.92 0c-0.09,0 -0.17,0.08 -0.17,0.17 0,0 0,0 0,0 0,0.09 0,0.89 0,0.99 0,0 0,0 0,0.01 0,0.09 0.07,0.16 0.16,0.17 0,0 0,0 0,0l0.93 0c0.02,0 0.03,-0.02 0.03,-0.04l0 -0.13c0,-0.02 -0.01,-0.04 -0.03,-0.04 -0.02,0 -0.04,0.02 -0.04,0.04l0 0.1 -0.88 0c-0.05,0 -0.1,-0.05 -0.1,-0.1 0,0 0,0 0,0 0,0 0,-0.01 0,-0.01 0,-0.05 0.05,-0.09 0.1,-0.09zm0.02 -0.9c0,-0.02 0.02,-0.04 0.04,-0.04 0.02,0 0.03,0.02 0.03,0.04l0 0.72c0,0.01 -0.01,0.03 -0.03,0.03 -0.02,0 -0.04,-0.02 -0.04,-0.03l0 -0.72z"/>
 </g>
</svg>
