<?xml version="1.0" encoding="UTF-8"?>
<svg width="2.3797mm" height="1.7679mm" version="1.1" viewBox="0 0 2.3797 1.7679" xmlns="http://www.w3.org/2000/svg">
 <g transform="translate(-84.989 -150.31)">
  <path d="m85.646 152.03-0.61193-0.61179c-0.02999-0.0302-0.04498-0.0695-0.04498-0.10841 0-0.0389 0.01499-0.0781 0.0448-0.10798 0.03009-0.0302 0.06929-0.0453 0.10848-0.0453 0.03902 0 0.07821 0.0151 0.10813 0.0449l0.5037 0.50363 1.353-1.3529c0.03041-0.0301 0.06953-0.045 0.1083-0.045 0.03891 0 0.078 0.0149 0.10781 0.0446 0.03041 0.0303 0.04551 0.0695 0.04551 0.10873 0 0.0389-0.0151 0.0782-0.04491 0.10809l-1.4613 1.4615c-0.03009 0.0299-0.06929 0.045-0.10837 0.045-0.03912 0-0.07821-0.0151-0.1082-0.045" fill="#fff"/>
 </g>
</svg>
