<?xml version="1.0" encoding="UTF-8"?>
<svg width="2.1401mm" height="2.1401mm" version="1.1" viewBox="0 0 2.1401 2.1401" xmlns="http://www.w3.org/2000/svg">
 <g transform="translate(-82.841 -140.29)">
  <path d="m83.665 140.29h-0.6688c-0.08601 0-0.156 0.07-0.156 0.156v0.40132c0 0.0861 0.06999 0.15607 0.156 0.15607h0.6688c0.08611 0 0.1561-0.07 0.1561-0.15607v-0.40132c0-0.086-0.06999-0.156-0.1561-0.156zm1.1593 0h-0.6688c-0.08611 0-0.1561 0.07-0.1561 0.156v0.9363c0 0.0861 0.06999 0.15611 0.1561 0.15611h0.6688c0.08601 0 0.156-0.07 0.156-0.15611v-0.9363c0-0.086-0.06999-0.156-0.156-0.156zm0 1.4267h-0.6688c-0.08611 0-0.1561 0.07-0.1561 0.15611v0.40118c0 0.0861 0.06999 0.1561 0.1561 0.1561h0.6688c0.08601 0 0.156-0.07 0.156-0.1561v-0.40118c0-0.0861-0.06999-0.15611-0.156-0.15611zm-1.1593-0.53499h-0.6688c-0.08601 0-0.156 0.07-0.156 0.156v0.93628c0 0.0861 0.06999 0.1561 0.156 0.1561h0.6688c0.08611 0 0.1561-0.07 0.1561-0.1561v-0.93628c0-0.086-0.06999-0.156-0.1561-0.156" fill="#A7A9AC"/>
 </g>
</svg>
