<?xml version="1.0" encoding="UTF-8"?>
<svg width="2.525mm" height="2.525mm" version="1.1" viewBox="0 0 2.525 2.525" xmlns="http://www.w3.org/2000/svg">
 <g transform="translate(-133.3 -159)">
  <path d="m134.56 159c0.1706 0 0.3339 0.0342 0.4826 0.0957 0.15469 0.0641 0.294 0.15797 0.4101 0.27407s0.21001 0.25541 0.27411 0.4101c0.0615 0.1487 0.0957 0.312 0.0957 0.4826 0 0.17061-0.0342 0.33391-0.0957 0.4826-0.0641 0.1547-0.15801 0.29401-0.27411 0.41011-0.1167 0.11631-0.25601 0.21022-0.41021 0.27411-0.14887 0.0615-0.31217 0.0957-0.48249 0.0957-0.1705 0-0.33359-0.0342-0.48229-0.0957-0.15441-0.0639-0.29361-0.15791-0.40992-0.27411-0.11649-0.1166-0.21058-0.25591-0.2745-0.41011-0.0617-0.1489-0.0958-0.31189-0.0958-0.4826 0-0.17049 0.0342-0.33358 0.0957-0.48228 0.0639-0.15441 0.15787-0.29362 0.27407-0.40989 0.11621-0.11642 0.25541-0.2105 0.40972-0.27453 0.14891-0.0617 0.31221-0.0958 0.48299-0.0958zm-0.43 1.1467h0.86c0.0637 0 0.11571 0.052 0.11571 0.11568v1e-4c0 0.0637-0.052 0.11571-0.11571 0.11571h-0.86c-0.0637 0-0.11572-0.052-0.11572-0.11571v-1e-4c0-0.0637 0.052-0.11568 0.11572-0.11568zm1.1275-0.58169c-0.091-0.091-0.19981-0.16443-0.32011-0.21421-0.11589-0.048-0.24349-0.0746-0.3774-0.0746-0.13388 0-0.26148 0.0266-0.37741 0.0746-0.12029 0.0498-0.22909 0.12319-0.32011 0.21421-0.091 0.0908-0.16428 0.19949-0.21417 0.31997-0.048 0.11592-0.0746 0.24362-0.0746 0.3775 0 0.13392 0.0266 0.26162 0.0745 0.37751 0.0499 0.12051 0.12329 0.22941 0.2141 0.32022 0.0908 0.0908 0.19971 0.16418 0.32018 0.2141 0.11592 0.0479 0.24363 0.0745 0.37751 0.0745 0.13391 0 0.26162-0.0266 0.3775-0.0745 0.12051-0.0499 0.22942-0.12333 0.32018-0.21403 0.0908-0.091 0.16422-0.19989 0.21411-0.3205 0.0479-0.11589 0.0745-0.24349 0.0745-0.3773 0-0.13388-0.0266-0.26148-0.0746-0.3774-0.0498-0.1203-0.12323-0.22909-0.21421-0.32007" fill="#fff"/>
 </g>
</svg>
