<?xml version="1.0" encoding="UTF-8"?>
<svg width="2.6135mm" height="2.1383mm" version="1.1" viewBox="0 0 2.6135 2.1383" xmlns="http://www.w3.org/2000/svg">
 <g transform="translate(-104.53 -147.1)" fill="#b0b7c5" fill-rule="evenodd">
  <path d="m106.42 148.68c-0.0161-0.1705-0.23453-0.23079-0.46031-0.27669-0.10301-0.0209-0.1796-0.0578-0.25372-0.0935-0.0748-0.0362-0.147-0.0692-0.23329-0.0806v-0.65871h0.47519v0.29707c0 0.0328 0.0265 0.0594 0.0594 0.0594h0.59401c0.0328 0 0.0594-0.0266 0.0594-0.0594v-0.29707h0.47519v1.0658c-0.0614-0.035-0.14242-0.0559-0.2376-0.0559-0.11603 0-0.35641 0.0646-0.47829 0.0996"/>
  <path d="m106.55 147.57v0.2377h-0.47519v-0.2377z"/>
  <path d="m106.09 147.45 0.089-0.35641h0.2637l0.0891 0.35641z"/>
  <path d="m107.1 147.45h-0.4505l-0.0891-0.35641h0.35733z"/>
  <path d="m105.7 147.1h0.3575l-0.0891 0.35641h-0.45057z"/>
  <path d="m104.84 149h-0.3127v-0.81858l0.41271 0.0826c0.0308 6e-3 0.0515 0.0354 0.0471 0.0666l-0.0884 0.61842c-4e-3 0.029-0.0294 0.051-0.0587 0.051"/>
  <path d="m106.98 148.86c-0.2854 0.1403-0.7631 0.37522-0.96591 0.37522-0.21611 0-0.78352-0.25302-0.98379-0.35042-2.1e-4 -1e-4 -4.9e-4 -1e-4 -7e-4 -1e-4l0.0699-0.48948c0.0432-0.0136 0.17551-0.051 0.32061-0.051 0.0877 0 0.15539 0.0327 0.24108 0.074 0.0769 0.0372 0.16422 0.0792 0.28173 0.10308 0.25809 0.0523 0.3682 0.1059 0.3682 0.17932 0 0.0146-4e-3 0.0235-0.0158 0.0319-0.0375 0.0281-0.185 0.0757-0.73949-0.0888-0.0316-9e-3 -0.0645 9e-3 -0.0739 0.0401-9e-3 0.0314 9e-3 0.0645 0.0401 0.0738 0.27358 0.0811 0.48278 0.1215 0.63098 0.1215 0.0968 0 0.1675-0.0171 0.2134-0.0514 4e-3 -3e-3 7e-3 -7e-3 0.0104-0.01 4e-3 -3.6e-4 7e-3 7e-5 0.0111-1e-3 0.10509-0.0323 0.40269-0.11617 0.5172-0.11617 0.0968 0 0.19879 0.0295 0.22878 0.0847-0.0415 0.0195-0.0939 0.0453-0.15388 0.0747"/>
 </g>
</svg>
