<?xml version="1.0" encoding="UTF-8"?>
<svg width="2.817mm" height="1.9631mm" version="1.1" viewBox="0 0 2.817 1.9631" xmlns="http://www.w3.org/2000/svg">
 <g transform="translate(-142.22 -132.07)">
  <path d="m143.63 132.67v1.1608l0.92421-0.1754v-0.56561c0-0.0236 0.0206-0.042 0.0441-0.0393l0.1137 0.0176c0.02 2e-3 0.0351 0.0192 0.0351 0.0393v0.65712c0 0.0187-0.013 0.0348-0.0313 0.0387l-1.0116 0.21759c-0.0489 0.0105-0.0995 0.0106-0.14838 2.8e-4l-1.0008-0.2105c-0.0179-4e-3 -0.031-0.0194-0.0314-0.0378l-0.0173-0.66732c-6e-4 -0.0209 0.0152-0.0386 0.0361-0.0405l0.85013-0.0747c0.0148-1e-3 0.0276-0.0107 0.0332-0.0244l0.12809-0.31101c0.0165-0.0401 0.0762-0.0283 0.0762 0.0151zm-1.1333-0.38008-0.26681 0.5703c-0.0131 0.0278 9e-3 0.0593 0.0399 0.0562l1.0018-0.10121c0.0142-1e-3 0.0265-0.0104 0.0322-0.0234l0.3224-0.72619 0.3411 0.74888c6e-3 0.0131 0.0186 0.0219 0.0329 0.0231l0.99999 0.0804c0.024 2e-3 0.0426-0.0172 0.0428-0.039v-3.5e-4c0-5e-3 -1e-3 -0.011-4e-3 -0.0164l-0.26081-0.57181c-5e-3 -0.0118-0.0162-0.0202-0.029-0.0225l-1.1234-0.20218-1.1008 0.20218c-0.0126 2e-3 -0.0233 0.0105-0.0287 0.0221" fill="#a7a9ac"/>
 </g>
</svg>
