<?xml version="1.0" encoding="UTF-8"?>
<svg width="2.0254mm" height="2.0255mm" version="1.1" viewBox="0 0 2.0254 2.0255" xmlns="http://www.w3.org/2000/svg">
 <g transform="translate(-180.42 -83.654)" fill="#b0b7c5">
  <path d="m180.64 83.654c-0.10329 0-0.19117 0.06601-0.22376 0.15822-6e-3 0.0182-4e-3 0.03831 7e-3 0.05408 0.0111 0.0157 0.0292 0.02501 0.0484 0.02501h0.4053c0-0.13099-0.10629-0.23731-0.23742-0.23731"/>
  <path d="m181.52 85.442c-0.0134 0.09267-0.0582 0.17491-0.1221 0.23738h0.78091c0.1095 0 0.20539-0.05969 0.25679-0.14831 0.0106-0.01838 0.0107-0.04099 0-0.05937-0.0106-0.01842-0.0302-0.0297-0.0514-0.0297z"/>
  <path d="m181.94 83.654h-1.0326c0.0401 0.04452 0.15557 0.14393 0.0553 0.66012-0.0658 0.35451-0.20211 0.72118-0.1989 1.0807 6e-3 0.1579 0.1361 0.28469 0.29553 0.28469 0.16358 0 0.29668-0.1331 0.29668-0.29669 0-0.03281 0.0266-0.05941 0.0594-0.05941h0.58508c9e-3 -0.2141 0.0631-0.4294 0.11571-0.63821 0.0601-0.23848 0.12051-0.4875 0.12051-0.73448 0-0.16362-0.1331-0.29672-0.29672-0.29672zm-0.11927 1.3055h-0.75072c-0.0328 0-0.0593-0.0266-0.0593-0.05941s0.0265-0.0593 0.0593-0.0593h0.75072c0.0327 0 0.0593 0.02649 0.0593 0.0593s-0.0266 0.05941-0.0593 0.05941zm0.0564-0.23742h-0.74909c-0.0328 0-0.0594-0.02649-0.0594-0.0593 0-0.03277 0.0266-0.05937 0.0594-0.05937h0.74909c0.0328 0 0.0593 0.0266 0.0593 0.05937 0 0.03281-0.0265 0.0593-0.0593 0.0593zm0.058-0.23738h-0.75237c-0.0328 0-0.0593-0.02649-0.0593-0.0593s0.0265-0.0593 0.0593-0.0593h0.75237c0.0327 0 0.0593 0.02649 0.0593 0.0593s-0.0266 0.0593-0.0593 0.0593zm0.0452-0.23731h-0.75649c-0.0328 0-0.0594-0.0266-0.0594-0.05941 0-0.03267 0.0266-0.05927 0.0594-0.05927h0.75649c0.0328 0 0.0594 0.0266 0.0594 0.05927 0 0.03281-0.0266 0.05941-0.0594 0.05941"/>
 </g>
</svg>
