<?xml version="1.0" encoding="UTF-8"?>
<svg width="2.3857mm" height="2.0817mm" version="1.1" viewBox="0 0 2.3857 2.0817" xmlns="http://www.w3.org/2000/svg">
 <g transform="translate(-112.08 -216.27)" fill="#b0b7c5">
  <path d="m113.68 216.68c0 0.22391-0.1815 0.40531-0.40538 0.40531-0.2239 0-0.40541-0.1814-0.40541-0.40531 0-0.2239 0.18151-0.40541 0.40541-0.40541 0.1075 0 0.21058 0.0427 0.28671 0.11871 0.076 0.076 0.11867 0.17921 0.11867 0.2867"/>
  <path d="m114.35 216.83c0 0.1415-0.11479 0.25622-0.25629 0.25622-0.14154 0-0.25633-0.11472-0.25633-0.25622 0-0.14157 0.11479-0.25629 0.25633-0.25629 0.1415 0 0.25629 0.11472 0.25629 0.25629"/>
  <path d="m112.71 216.83c0 0.1415-0.11468 0.25622-0.25629 0.25622-0.1415 0-0.25622-0.11472-0.25622-0.25622 0-0.14157 0.11472-0.25629 0.25622-0.25629 0.14161 0 0.25629 0.11472 0.25629 0.25629"/>
  <path d="m112.7 217.31c-0.10078-0.0827-0.19219-0.0717-0.30878-0.0717-0.17452 0-0.31641 0.14108-0.31641 0.3144v0.50888c0 0.0753 0.0614 0.13653 0.13699 0.13653 0.32632 0 0.28702 6e-3 0.28702-0.014 0-0.36061-0.0427-0.62512 0.20118-0.87411"/>
  <path d="m113.38 217.24c-0.2038-0.0169-0.38079 1.8e-4 -0.53361 0.1263-0.25559 0.20468-0.20638 0.48037-0.20638 0.8177 0 0.0892 0.0726 0.1632 0.1632 0.1632 0.98351 0 1.0227 0.0317 1.081-0.0975 0.0191-0.0437 0.0139-0.0298 0.0139-0.44761 0-0.33189-0.28738-0.56208-0.51809-0.56208"/>
  <path d="m114.15 217.24c-0.1173 0-0.2081-0.0109-0.30889 0.0717 0.24211 0.24719 0.20129 0.4936 0.20129 0.87411 0 0.0201-0.0327 0.014 0.28201 0.014 0.0783 0 0.142-0.0634 0.142-0.14133v-0.50408c0-0.17332-0.142-0.3144-0.31641-0.3144"/>
 </g>
</svg>
