<svg xmlns="http://www.w3.org/2000/svg" width="50" height="50" viewBox="0 0 0.63 0.64"  shape-rendering="geometricPrecision" image-rendering="optimizeQuality" fill-rule="evenodd" xmlns:v="https://vecta.io/nano"><path d="M.27.3V.05C.27.02.29 0 .32 0c.02 0 .05.02.05.05V.3C.37.32.34.35.32.35.29.35.27.32.27.3zM.51.07C.5.06.47.06.46.08.45.09.45.12.47.13.53.18.56.25.56.32.56.46.45.56.32.56.18.56.07.46.07.32.07.25.11.18.17.13.18.12.19.09.17.08.16.06.14.06.12.07.04.13 0 .22 0 .32 0 .5.14.64.32.64.49.64.63.5.63.32.63.22.59.13.51.07z" fill="#B1B3B4" fill-rule="nonzero"/></svg>