<?xml version="1.0" encoding="UTF-8"?>
<!DOCTYPE svg PUBLIC "-//W3C//DTD SVG 1.1//EN" "http://www.w3.org/Graphics/SVG/1.1/DTD/svg11.dtd">
<!-- Creator: CorelDRAW 2017 -->
<svg xmlns="http://www.w3.org/2000/svg" xml:space="preserve" width="252px" height="47px" version="1.1" style="shape-rendering:geometricPrecision; text-rendering:geometricPrecision; image-rendering:optimizeQuality; fill-rule:evenodd; clip-rule:evenodd"
viewBox="0 0 69.2 12.92"
 xmlns:xlink="http://www.w3.org/1999/xlink">
 <defs>
  <style type="text/css">
   <![CDATA[
    .fil1 {fill:#BEBEBE}
    .fil0 {fill:white}
    .fil2 {fill:white;fill-rule:nonzero}
   ]]>
  </style>
 </defs>
 <g id="Capa_x0020_1">
  <metadata id="CorelCorpID_0Corel-Layer"/>
  <polygon class="fil0" points="0,3.98 5.44,0 10.88,3.98 16.32,0 16.32,8.93 10.88,12.92 5.44,8.93 0,12.92 "/>
  <polygon class="fil1" points="10.88,3.98 5.44,0 5.44,8.93 10.88,12.92 "/>
  <path class="fil2" d="M51.04 9.52c0,0.23 -0.08,0.42 -0.24,0.58 -0.16,0.16 -0.36,0.24 -0.58,0.24l-0.02 0c-0.22,0 -0.41,-0.08 -0.57,-0.24 -0.16,-0.16 -0.24,-0.35 -0.24,-0.58l0 -3.7c0,-0.89 0.32,-1.65 0.95,-2.29 0.63,-0.63 1.4,-0.95 2.29,-0.95 1.07,0 1.87,0.35 2.42,1.06 0.53,-0.71 1.34,-1.06 2.41,-1.06 0.89,0 1.65,0.32 2.29,0.95 0.63,0.64 0.95,1.4 0.95,2.29l0 3.7c0,0.23 -0.08,0.42 -0.24,0.58 -0.16,0.16 -0.35,0.24 -0.58,0.24l-0.01 0c-0.23,0 -0.42,-0.08 -0.57,-0.24 -0.17,-0.16 -0.25,-0.35 -0.25,-0.58l0 -3.7c0,-0.44 -0.15,-0.82 -0.46,-1.13 -0.31,-0.31 -0.69,-0.46 -1.13,-0.46 -0.44,0 -0.82,0.15 -1.13,0.46 -0.31,0.31 -0.46,0.69 -0.46,1.13l0 3.7c0,0.23 -0.08,0.42 -0.24,0.58 -0.16,0.16 -0.35,0.24 -0.58,0.24l-0.01 0c-0.23,0 -0.42,-0.08 -0.58,-0.24 -0.16,-0.16 -0.24,-0.35 -0.24,-0.58l0 -3.7c0,-0.44 -0.16,-0.82 -0.47,-1.13 -0.31,-0.31 -0.68,-0.46 -1.12,-0.46 -0.44,0 -0.82,0.15 -1.13,0.46 -0.31,0.31 -0.46,0.69 -0.46,1.13l0 3.7zm17.97 -4.68c0.05,0.11 0.08,0.23 0.08,0.35 0,0.09 -0.02,0.18 -0.05,0.28 -0.08,0.21 -0.22,0.36 -0.44,0.46 -0.62,0.28 -1.45,0.65 -2.47,1.11 -1.27,0.58 -2.02,0.92 -2.24,1.02 0.34,0.43 0.87,0.65 1.6,0.65 0.48,0 0.91,-0.14 1.3,-0.43 0.38,-0.28 0.65,-0.63 0.8,-1.07 0.13,-0.37 0.4,-0.56 0.78,-0.56 0.28,0 0.51,0.12 0.67,0.35 0.1,0.15 0.16,0.3 0.16,0.45 0,0.1 -0.02,0.2 -0.06,0.29 -0.26,0.77 -0.73,1.39 -1.39,1.86 -0.67,0.49 -1.43,0.74 -2.26,0.74 -1.07,0 -1.99,-0.38 -2.74,-1.14 -0.76,-0.76 -1.14,-1.67 -1.14,-2.74 0,-1.07 0.38,-1.98 1.14,-2.74 0.75,-0.76 1.67,-1.14 2.74,-1.14 0.77,0 1.47,0.21 2.11,0.63 0.63,0.42 1.1,0.96 1.41,1.63zm-3.52 -0.6c-0.62,0 -1.15,0.22 -1.59,0.66 -0.43,0.43 -0.64,0.96 -0.64,1.58l0 0.05 3.76 -1.7c-0.33,-0.39 -0.84,-0.59 -1.53,-0.59zm-40.81 5.28c0,0.23 -0.08,0.42 -0.24,0.58 -0.16,0.16 -0.35,0.24 -0.57,0.24l-0.02 0c-0.22,0 -0.41,-0.08 -0.58,-0.24 -0.16,-0.16 -0.24,-0.35 -0.24,-0.58l0 -3.68c0,-0.9 0.32,-1.67 0.96,-2.3 0.64,-0.64 1.4,-0.96 2.3,-0.96 0.9,0 1.66,0.32 2.3,0.96 0.64,0.63 0.95,1.4 0.95,2.3l0 3.68c0,0.23 -0.08,0.42 -0.24,0.58 -0.15,0.16 -0.34,0.24 -0.57,0.24l-0.01 0c-0.23,0 -0.42,-0.08 -0.58,-0.24 -0.17,-0.16 -0.25,-0.35 -0.25,-0.58l0 -3.68c0,-0.44 -0.15,-0.82 -0.46,-1.14 -0.31,-0.31 -0.69,-0.47 -1.14,-0.47 -0.45,0 -0.83,0.16 -1.14,0.47 -0.31,0.32 -0.47,0.7 -0.47,1.14l0 3.68zm8.93 -1.47l2.13 -4.97c0.14,-0.33 0.4,-0.5 0.76,-0.5l0.01 0c0.29,0 0.52,0.12 0.68,0.37 0.09,0.14 0.14,0.28 0.14,0.44 0,0.1 -0.02,0.21 -0.07,0.33l-2.5 5.84c-0.21,0.52 -0.59,0.78 -1.15,0.78 -0.56,0 -0.95,-0.26 -1.15,-0.78l-2.5 -5.84c-0.05,-0.12 -0.07,-0.22 -0.07,-0.33 0,-0.15 0.05,-0.3 0.14,-0.44 0.16,-0.25 0.39,-0.37 0.68,-0.37l0.02 0c0.36,0 0.61,0.17 0.75,0.5 1.07,2.51 1.69,3.95 1.86,4.33 0,0.02 0.09,0.24 0.27,0.64zm5.4 -5.47c0.22,0 0.41,0.08 0.57,0.24 0.16,0.16 0.24,0.36 0.24,0.58l0 6.12c0,0.23 -0.08,0.42 -0.24,0.58 -0.16,0.16 -0.35,0.24 -0.57,0.24l-0.02 0c-0.22,0 -0.42,-0.08 -0.58,-0.24 -0.16,-0.16 -0.24,-0.35 -0.24,-0.58l0 -6.12c0,-0.22 0.08,-0.42 0.24,-0.58 0.16,-0.16 0.36,-0.24 0.58,-0.24l0.02 0zm5.59 0c1.07,0 1.99,0.38 2.75,1.14 0.75,0.76 1.13,1.67 1.13,2.74l0 3.06c0,0.23 -0.08,0.42 -0.24,0.58 -0.16,0.16 -0.35,0.24 -0.57,0.24l-0.02 0c-0.22,0 -0.41,-0.08 -0.57,-0.24 -0.17,-0.16 -0.25,-0.35 -0.25,-0.58 -0.51,0.55 -1.25,0.82 -2.23,0.82 -1.06,0 -1.98,-0.38 -2.74,-1.14 -0.76,-0.76 -1.13,-1.67 -1.13,-2.74 0,-1.07 0.37,-1.98 1.13,-2.74 0.76,-0.76 1.68,-1.14 2.74,-1.14zm0 1.65c-0.62,0 -1.14,0.22 -1.58,0.65 -0.43,0.44 -0.64,0.96 -0.64,1.58 0,0.62 0.21,1.14 0.64,1.58 0.44,0.43 0.96,0.65 1.58,0.65 0.62,0 1.15,-0.22 1.58,-0.65 0.44,-0.44 0.65,-0.96 0.65,-1.58 0,-0.62 -0.21,-1.14 -0.65,-1.58 -0.43,-0.43 -0.96,-0.65 -1.58,-0.65z"/>
 </g>
</svg>
