<?xml version="1.0" encoding="UTF-8"?>
<!DOCTYPE svg PUBLIC "-//W3C//DTD SVG 1.1//EN" "http://www.w3.org/Graphics/SVG/1.1/DTD/svg11.dtd">
<!-- Creator: CorelDRAW 2020 (64-Bit Versión de evaluación) -->
<svg xmlns="http://www.w3.org/2000/svg" xml:space="preserve" width="90px" height="65px" version="1.1" style="shape-rendering:geometricPrecision; text-rendering:geometricPrecision; image-rendering:optimizeQuality; fill-rule:evenodd; clip-rule:evenodd"
viewBox="0 0 2.49 1.8"
 xmlns:xlink="http://www.w3.org/1999/xlink"
 xmlns:xodm="http://www.corel.com/coreldraw/odm/2003">
 <defs>
  <style type="text/css">
   <![CDATA[
    .fil0 {fill:#B0B6C4;fill-rule:nonzero}
   ]]>
  </style>
 </defs>
 <g id="Capa_x0020_1">
  <metadata id="CorelCorpID_0Corel-Layer"/>
  <path class="fil0" d="M2.38 0.21l-2.28 0c-0.05,0 -0.1,-0.05 -0.1,-0.11 0,-0.05 0.05,-0.1 0.1,-0.1l2.28 0c0.06,0 0.11,0.05 0.11,0.1 0,0.06 -0.05,0.11 -0.11,0.11zm-0.8 0.79l-1.51 0c-0.04,0 -0.07,-0.04 -0.07,-0.1 0,-0.06 0.03,-0.11 0.07,-0.11l1.51 0c0.04,0 0.07,0.05 0.07,0.11 0,0.06 -0.03,0.1 -0.07,0.1zm0.8 0.8l-2.28 0c-0.05,0 -0.1,-0.05 -0.1,-0.11 0,-0.06 0.05,-0.1 0.1,-0.1l2.28 0c0.06,0 0.11,0.04 0.11,0.1 0,0.06 -0.05,0.11 -0.11,0.11z"/>
 </g>
</svg>
