<svg xmlns="http://www.w3.org/2000/svg" width="300" height="78" viewBox="0 0 35.22 9.18" shape-rendering="geometricPrecision" text-rendering="geometricPrecision" image-rendering="optimizeQuality" fill-rule="evenodd" clip-rule="evenodd"><defs><style>.fil0,.fil1,.fil2{fill:#fefefe;fill-rule:nonzero}.fil0,.fil1{fill:#2d9fd9}.fil0{fill:#3a4882}</style></defs><g id="Contenido_x0020_de_x0020_PowerClip"><path class="fil0" d="M12.9 4.22C12.9 1.89 10.01 0 6.45 0S0 1.89 0 4.22v.24c0 2.47 2.52 4.47 6.45 4.47 3.95 0 6.45-2 6.45-4.47v-.24z"/><path class="fil1" d="M12.65 4.22c0 2.19-2.78 3.96-6.2 3.96-3.42 0-6.2-1.77-6.2-3.96 0-2.2 2.78-3.97 6.2-3.97 3.42 0 6.2 1.77 6.2 3.97z"/><path class="fil2" d="M4.39 2.96c0 .01-.06.07-.02.13.09.12.4.19.7.12.18-.04.42-.22.64-.4.25-.2.49-.39.73-.47.26-.08.43-.05.54-.01.12.03.26.11.48.28.43.32 2.13 1.81 2.43 2.07.24-.11 1.29-.56 2.73-.88-.13-.77-.59-1.46-1.3-2.04-.98.42-2.18.63-3.36.06 0 0-.64-.31-1.27-.29-.93.02-1.33.42-1.76.85l-.54.58z"/><path class="fil2" d="M9.82 4.84c-.02-.02-2.01-1.76-2.46-2.09-.26-.2-.4-.25-.55-.27-.08-.01-.19 0-.27.03-.21.05-.48.24-.72.43-.25.2-.49.39-.71.44-.28.06-.63-.01-.78-.12a.285.285 0 0 1-.13-.14c-.06-.14.05-.24.06-.26l.55-.59c.07-.07.13-.13.2-.19-.18.02-.35.06-.5.11-.2.05-.39.11-.59.11-.08 0-.51-.07-.59-.1a7.9 7.9 0 0 1-1.58-.57C.97 2.21.45 2.94.3 3.74l.36.1c1.77.39 2.32.79 2.42.88.1-.12.26-.2.43-.2.2 0 .37.1.48.25a.664.664 0 0 1 .67-.1c.2.06.3.2.36.32.06-.03.15-.06.24-.06.1 0 .2.03.3.07.32.14.37.46.34.7.03 0 .05-.01.07-.01.39.01.7.32.7.7a.7.7 0 0 1-.08.33c.1.06.37.2.6.17.19-.03.26-.09.29-.13.02-.02.03-.05.02-.07L7 6.14s-.08-.08-.05-.11c.02-.03.07.01.11.04.25.21.56.53.56.53.01.01.03.05.14.07.1.01.27 0 .4-.1.03-.02.06-.05.08-.08.12-.16-.02-.33-.02-.33l-.58-.65s-.08-.08-.05-.11c.02-.02.07.02.11.05.19.15.44.41.69.66.05.03.27.17.56-.02.18-.12.21-.26.21-.37a.39.39 0 0 0-.13-.24l-.79-.8s-.08-.07-.05-.1c.02-.04.08.01.11.04.25.21.94.84.94.84.01 0 .24.17.54-.01.1-.07.17-.17.17-.29.01-.2-.13-.32-.13-.32z"/><path class="fil2" d="M5.97 5.85c-.12 0-.25.07-.27.06-.01-.01.01-.06.02-.08.01-.03.17-.52-.22-.69-.31-.13-.49.02-.55.08-.02.02-.03.02-.03 0-.01-.09-.05-.33-.31-.41-.37-.11-.61.15-.67.24a.45.45 0 0 0-.43-.38c-.24 0-.43.2-.43.44s.19.43.43.43c.12 0 .22-.05.3-.12 0 0 .01.01 0 .01-.01.11-.05.5.36.66.16.06.3.01.42-.07.03-.02.04-.01.03.02-.01.1.01.32.31.44.22.09.36 0 .45-.09.04-.03.05-.03.05.03.01.29.25.52.54.52.3 0 .55-.25.55-.55 0-.3-.25-.54-.55-.54z"/><path class="fil0" d="M5.97 6.9c-.27 0-.49-.21-.5-.48 0-.03 0-.09-.06-.09-.02 0-.04.02-.06.03-.06.06-.13.12-.25.12-.05 0-.1-.02-.16-.04-.29-.12-.29-.31-.28-.39 0-.02 0-.05-.01-.06l-.02-.02h-.02c-.01 0-.03.01-.05.02-.08.06-.16.09-.24.09-.04 0-.09-.01-.14-.03-.37-.15-.35-.5-.33-.61.01-.02 0-.04-.01-.05l-.03-.02-.02.02a.43.43 0 0 1-.28.11c-.21 0-.39-.18-.39-.39 0-.22.18-.4.39-.4.2 0 .37.15.39.35l.02.1.05-.09c.01-.01.17-.25.46-.25.06 0 .11.01.17.03.24.07.27.28.28.37 0 .05.04.05.05.05.02 0 .03-.01.04-.02.05-.05.14-.12.29-.12.07 0 .15.01.22.05.37.16.2.63.2.63-.03.08-.03.11 0 .13l.01.01h.01c.02 0 .04-.01.07-.02a.51.51 0 0 1 .71.46c0 .28-.23.51-.51.51zM9.9 4.63c-.61-.53-2.03-1.76-2.41-2.05-.22-.16-.37-.25-.5-.29a.764.764 0 0 0-.25-.04c-.09 0-.2.02-.31.05-.24.08-.49.28-.73.47l-.01.01c-.22.17-.45.36-.63.4-.07.01-.15.02-.23.02-.19 0-.37-.06-.43-.14-.01-.01-.01-.03.02-.07l.54-.58c.42-.42.82-.82 1.74-.84h.04c.57 0 1.14.25 1.21.28.53.26 1.08.4 1.64.4.58 0 1.17-.15 1.8-.44-.07-.05-.14-.11-.22-.17-.55.24-1.07.36-1.58.36-.52 0-1.04-.12-1.54-.37-.02-.01-.65-.31-1.31-.31h-.05c-.77.02-1.2.29-1.49.53-.29.01-.53.08-.75.14-.19.05-.36.1-.53.1-.06 0-.18-.01-.2-.01-.18 0-1.13-.23-1.89-.52-.07.05-.15.11-.22.17.79.32 1.75.57 2.05.59.08.01.17.02.26.02.2 0 .4-.06.6-.11.11-.04.24-.07.37-.1l-.11.11-.54.59c-.05.04-.14.16-.08.3.03.06.08.11.15.16.13.09.36.15.58.15.08 0 .16-.01.23-.03.23-.05.47-.24.72-.44.2-.16.49-.37.71-.43.07-.01.14-.02.2-.02h.05c.15.02.29.07.54.26.45.33 2.44 2.07 2.46 2.09 0 0 .12.11.11.29 0 .1-.06.19-.15.25s-.18.08-.26.08c-.14 0-.23-.06-.23-.06-.01-.01-.69-.63-.94-.84-.04-.03-.08-.06-.12-.06-.02 0-.04 0-.05.02-.04.05 0 .12.05.16l.8.8s.1.09.11.21c.01.14-.06.25-.19.33-.09.07-.19.1-.28.1-.12 0-.21-.06-.23-.07l-.11-.11c-.21-.21-.43-.42-.58-.55-.04-.03-.08-.06-.12-.06-.02 0-.04 0-.05.02-.02.02-.03.05.01.11.02.03.04.05.04.05l.58.65c.01 0 .12.14.02.28l-.02.02c-.02.02-.04.04-.06.05-.1.09-.23.09-.28.09h-.08c-.06-.01-.1-.03-.11-.05l-.01-.01c-.03-.03-.33-.33-.57-.53-.03-.03-.07-.06-.11-.06-.02 0-.04.01-.05.02-.05.05.02.13.05.16l.5.55s-.01.01-.02.03c-.02.03-.08.09-.26.11h-.07c-.18 0-.38-.09-.48-.14a.736.736 0 0 0-.67-1.05h-.02c.01-.19-.02-.54-.38-.7a.853.853 0 0 0-.31-.06c-.08 0-.15.01-.22.04a.612.612 0 0 0-.36-.31.857.857 0 0 0-.27-.05c-.15 0-.29.05-.41.14a.63.63 0 0 0-.49-.24c-.16 0-.32.07-.44.18-.15-.11-.76-.5-2.4-.87-.08-.02-.26-.07-.37-.11-.02.09-.03.18-.04.27 0 0 .3.07.36.09 1.67.37 2.22.75 2.32.83a.47.47 0 0 0-.05.24c0 .34.28.62.62.62.04 0 .08 0 .12-.01a.73.73 0 0 0 .69.59c.05 0 .1 0 .15-.02.04.12.15.27.38.37.09.03.17.05.25.05.06 0 .13-.01.19-.04.11.28.38.46.68.46.2 0 .39-.08.53-.22.12.06.37.18.63.18h.09c.25-.03.37-.13.42-.21.01-.01.02-.03.03-.04a.643.643 0 0 0 .6-.12c.14-.09.23-.23.24-.34v-.01c.05.01.09.02.14.02.14 0 .28-.05.41-.13.26-.17.3-.39.3-.54.05.01.09.02.14.02.13 0 .26-.04.39-.12a.572.572 0 0 0 .18-.8c.43-.18 1.42-.54 2.58-.8-.01-.09-.02-.18-.04-.27-1.4.31-2.45.76-2.71.88zM34.29 3.2c-.11.15-.27.23-.49.23-.21 0-.37-.08-.48-.23-.12-.15-.17-.36-.17-.64 0-.27.05-.48.17-.63.11-.15.27-.23.48-.23.22 0 .38.08.49.23.11.15.17.36.17.63 0 .28-.06.49-.17.64zm.58-1.67c-.24-.29-.59-.44-1.06-.44-.48 0-.83.15-1.06.44-.24.29-.35.64-.35 1.03 0 .41.11.75.35 1.04.23.29.58.43 1.06.43.47 0 .82-.14 1.06-.43.23-.29.35-.63.35-1.04 0-.39-.12-.74-.35-1.03zM28.55 2.86c0 .24-.07.41-.2.5-.14.09-.28.14-.44.14-.1 0-.19-.03-.26-.08a.37.37 0 0 1-.1-.27c0-.14.06-.24.17-.31.07-.04.18-.07.33-.1l.17-.03a.64.64 0 0 0 .19-.05c.05-.01.1-.04.14-.07v.27zm.37-1.57c-.24-.12-.51-.18-.81-.18-.47 0-.8.12-.99.36-.12.16-.19.36-.2.6h.69a.62.62 0 0 1 .11-.26c.07-.08.19-.12.36-.12.16 0 .28.02.36.06.08.05.12.12.12.24 0 .09-.06.16-.16.2-.06.03-.15.05-.29.07l-.25.03c-.28.03-.49.09-.64.17-.26.16-.39.4-.39.74 0 .26.08.47.24.61.17.14.38.2.63.22 1.58.07 1.56-.84 1.57-1.02V1.97c0-.34-.11-.56-.35-.68zM25.32 1.73c.18 0 .31.05.4.16.06.08.09.18.11.28h.78c-.05-.39-.18-.67-.42-.82-.23-.16-.53-.23-.89-.23-.43 0-.77.13-1.01.39s-.37.63-.37 1.1c0 .42.11.76.33 1.03.23.26.57.39 1.04.39.47 0 .82-.16 1.06-.47.15-.2.23-.4.25-.62h-.78c-.01.14-.06.26-.13.35-.08.09-.21.14-.38.14-.26 0-.43-.12-.52-.35-.05-.12-.07-.28-.07-.48 0-.22.02-.38.07-.51.1-.24.27-.36.53-.36zM23.71 1.12c-1.59 0-1.5 1.41-1.5 1.41v1.44h.73V2.62c0-.22.02-.38.08-.49.1-.19.29-.28.58-.28h.09c.03 0 .07 0 .12.01v-.74h-.1zM20.07 1.87c.1-.11.25-.16.43-.16.17 0 .32.05.43.15.12.1.18.24.19.43h-1.24c.03-.18.09-.32.19-.42zm.98 1.35c-.03.04-.07.08-.1.11-.1.08-.24.11-.41.11a.67.67 0 0 1-.38-.09c-.18-.12-.29-.3-.3-.58h2.01c0-.24 0-.42-.02-.55-.04-.21-.11-.4-.22-.57-.13-.18-.29-.32-.48-.41-.19-.08-.41-.12-.65-.12-.4 0-.73.12-.98.38-.26.25-.38.62-.38 1.1 0 .51.14.87.42 1.1.28.23.6.34.97.34.44 0 .79-.13 1.04-.4.13-.14.21-.28.25-.42h-.77zM18.84 3.97h-.66V2.3c0-.15-.05-.51-.49-.51-.29 0-.5.21-.5.51v1.67h-.66V2.3c0-.15-.05-.51-.48-.51-.3 0-.51.21-.51.51v1.67h-.66V2.32c0-.69.46-1.21 1.17-1.21.35 0 .63.14.82.38.2-.24.49-.38.82-.38.73 0 1.15.5 1.15 1.21v1.65zM31.31 3.21c-.1.15-.26.23-.46.23-.21 0-.36-.08-.46-.23-.1-.16-.15-.38-.15-.63 0-.24.05-.44.15-.6.1-.15.25-.23.46-.23.14 0 .26.04.37.13.17.14.25.4.25.74 0 .24-.05.44-.16.59zm.87-2.97s-.73-.07-.73.51v.78a.837.837 0 0 0-.32-.3.8.8 0 0 0-.44-.11c-.36 0-.65.13-.87.4-.22.27-.32.66-.32 1.13 0 .41.11.74.33 1 .22.26.65.38 1.03.38 1.34 0 1.32-1.15 1.32-1.15V.24z"/><path class="fil1" d="M21.4 6.61c0-.27-.06-.48-.16-.63a.53.53 0 0 0-.46-.22c-.19 0-.34.07-.45.22-.1.14-.15.35-.15.63 0 .27.05.47.16.6.11.15.26.23.46.23.18 0 .33-.08.44-.23.1-.14.16-.34.16-.6zm-1.22 1.97c0 .1-.04.18-.11.25a.34.34 0 0 1-.25.11h-.37V6.41c0-.49.17-.79.44-1 .18-.14.45-.27.95-.27.34 0 .74.13.95.39.24.3.34.62.34 1.05 0 .44-.1.8-.32 1.08-.21.26-.49.4-.82.4-.18 0-.33-.04-.47-.1a.828.828 0 0 1-.34-.33v.95zM25.75 6.61c0 .49.14.76.42.81.28.05.48-.01.61-.2.07-.07.11-.19.14-.36.03-.16.03-.33.01-.49-.03-.16-.09-.3-.18-.43a.441.441 0 0 0-.39-.19c-.24 0-.4.09-.49.26-.08.18-.12.38-.12.6zm1.19 1.21v-.17c-.12.19-.29.31-.51.36-.21.05-.42.03-.63-.05-.21-.08-.39-.24-.54-.47-.15-.23-.23-.53-.23-.9 0-.43.1-.78.3-1.05.2-.27.52-.4.96-.41.44-.01.69.09.94.27.27.21.42.52.42 1.01V7.9c.01.47-.32 1.35-1.36 1.27-.64-.05-.99-.31-1.19-.9h.76c.06.09.14.17.26.22.11.05.23.07.34.04.12-.02.23-.09.32-.2.09-.11.15-.28.16-.51zM24.05 6.91c-.01.24-.08.4-.21.5-.13.09-.28.13-.44.13-.1 0-.18-.02-.25-.08-.07-.05-.1-.14-.1-.27 0-.14.05-.24.17-.3.06-.04.17-.08.33-.1l.16-.03c.09-.02.15-.04.2-.05.04-.02.09-.04.14-.07v.27zm.36-1.58c-.23-.12-.5-.18-.81-.18-.46 0-.79.12-.99.37-.12.15-.18.35-.2.59h.7c.02-.1.05-.19.1-.25.07-.09.2-.13.37-.13.15 0 .27.02.35.07.08.04.12.12.12.23 0 .09-.05.16-.16.21-.05.02-.15.04-.29.06l-.24.03c-.28.04-.5.1-.64.18-.27.15-.4.4-.4.74 0 .26.08.46.25.6.16.15.37.21.62.22 1.58.07 1.56-.83 1.58-1.02V6.01c0-.33-.12-.56-.36-.68zM29.82 7.23c-.11.15-.27.23-.48.23a.58.58 0 0 1-.49-.23c-.11-.15-.17-.36-.17-.64 0-.27.06-.49.17-.64a.6.6 0 0 1 .49-.22c.21 0 .37.08.48.22.12.15.17.37.17.64 0 .28-.05.49-.17.64zm.58-1.67c-.23-.29-.59-.44-1.06-.44-.47 0-.83.15-1.06.44-.23.29-.35.63-.35 1.03 0 .41.12.75.35 1.04.23.29.59.43 1.06.43.47 0 .83-.14 1.06-.43.23-.29.35-.63.35-1.04 0-.4-.12-.74-.35-1.03z"/></g></svg>