<?xml version="1.0" encoding="UTF-8"?>
<!DOCTYPE svg PUBLIC "-//W3C//DTD SVG 1.1//EN" "http://www.w3.org/Graphics/SVG/1.1/DTD/svg11.dtd">
<!-- Creator: CorelDRAW 2020 (64-Bit Versión de evaluación) -->
<svg xmlns="http://www.w3.org/2000/svg" xml:space="preserve" width="41px" height="41px" version="1.1" style="shape-rendering:geometricPrecision; text-rendering:geometricPrecision; image-rendering:optimizeQuality; fill-rule:evenodd; clip-rule:evenodd"
viewBox="0 0 2.08 2.08"
 xmlns:xlink="http://www.w3.org/1999/xlink"
 xmlns:xodm="http://www.corel.com/coreldraw/odm/2003">
 <defs>
  <style type="text/css">
   <![CDATA[
    .fil0 {fill:#4C00FF;fill-rule:nonzero}
   ]]>
  </style>
 </defs>
 <g id="Capa_x0020_1">
  <metadata id="CorelCorpID_0Corel-Layer"/>
  <path class="fil0" d="M1.04 0.56c-0.27,0 -0.48,0.21 -0.48,0.48 0,0.26 0.21,0.48 0.48,0.48 0.26,0 0.48,-0.22 0.48,-0.48 0,-0.27 -0.22,-0.48 -0.48,-0.48zm0 0.8c-0.18,0 -0.32,-0.14 -0.32,-0.32 0,-0.18 0.14,-0.32 0.32,-0.32 0.18,0 0.32,0.14 0.32,0.32 0,0.18 -0.14,0.32 -0.32,0.32zm0.96 -0.4l-0.08 0c-0.04,-0.42 -0.38,-0.76 -0.8,-0.8 0,0 0,0 0,0l0 -0.08c0,-0.04 -0.04,-0.08 -0.08,-0.08 -0.04,0 -0.08,0.04 -0.08,0.08l0 0.08c0,0 0,0 0,0 -0.42,0.04 -0.76,0.38 -0.8,0.8l-0.08 0c-0.04,0 -0.08,0.04 -0.08,0.08 0,0.04 0.04,0.08 0.08,0.08l0.08 0c0.04,0.42 0.38,0.76 0.8,0.8l0 0.08c0,0.04 0.04,0.08 0.08,0.08 0.04,0 0.08,-0.04 0.08,-0.08l0 -0.08c0.42,-0.04 0.76,-0.38 0.8,-0.8l0.08 0c0.04,0 0.08,-0.04 0.08,-0.08 0,-0.04 -0.04,-0.08 -0.08,-0.08zm-0.96 0.8c-0.4,0 -0.72,-0.32 -0.72,-0.72 0,-0.4 0.32,-0.72 0.72,-0.72 0.4,0 0.72,0.32 0.72,0.72 0,0.4 -0.32,0.72 -0.72,0.72z"/>
 </g>
</svg>
