<?xml version="1.0" encoding="UTF-8"?>
<svg width="56px" height="67px" clip-rule="evenodd" fill-rule="evenodd" image-rendering="optimizeQuality" shape-rendering="geometricPrecision" text-rendering="geometricPrecision" version="1.1" viewBox="0 0 2.84 3.41" xml:space="preserve" xmlns="http://www.w3.org/2000/svg">
 <defs>
  <style type="text/css">
   <![CDATA[
    .fil0 {fill:#B0B6C4;fill-rule:nonzero}
   ]]>
  </style>
 </defs>
 
  
  
   <path class="fil0" d="m2.76 2.41c-0.22-0.19-0.34-0.45-0.34-0.73v-0.4c0-0.5-0.37-0.91-0.86-0.98v-0.16c0-0.08-0.06-0.14-0.14-0.14s-0.14 0.06-0.14 0.14v0.16c-0.48 0.07-0.85 0.48-0.85 0.98v0.4c0 0.28-0.13 0.54-0.34 0.73-0.06 0.04-0.09 0.11-0.09 0.19 0 0.13 0.11 0.24 0.25 0.24h2.35c0.13 0 0.24-0.11 0.24-0.24 0-0.08-0.03-0.15-0.08-0.19z"/>
   <path class="fil0" d="m1.42 3.41c0.26 0 0.48-0.18 0.53-0.42h-1.05c0.05 0.24 0.26 0.42 0.52 0.42z"/>
  
 
</svg>
