<?xml version="1.0" encoding="UTF-8"?>
<svg width="2.362mm" height="2.362mm" version="1.1" viewBox="0 0 2.362 2.362" xmlns="http://www.w3.org/2000/svg">
 <g transform="translate(-97.093 -128.84)" fill="#b0b7c5">
  <path d="m99.441 129.7-0.12393-0.16521-0.0689 0.48211c-0.0063 0.0442-0.0272 0.0859-0.0587 0.11747l-0.84808 0.84812c-0.07401 0.074-0.17251 0.11468-0.27732 0.11468-0.03129 0-0.06209-4e-3 -0.09179-0.0108 0.04512 0.0706 0.12411 0.11751 0.21389 0.11751h1.0149c0.13991 0 0.25372-0.11381 0.25372-0.25372v-1.2087c0-0.015-0.0049-0.0295-0.01379-0.0415"/>
  <path d="m98.59 129.92c0 0.0382-0.03101 0.0692-0.06921 0.0692-0.03821 0-0.06918-0.031-0.06918-0.0692 0-0.0383 0.03097-0.0692 0.06918-0.0692s0.06921 0.0309 0.06921 0.0692"/>
  <path d="m97.807 129.92c0 0.0382-0.03097 0.0692-0.06918 0.0692s-0.06921-0.031-0.06921-0.0692c0-0.0383 0.03101-0.0692 0.06921-0.0692 0.03821 0 0.06918 0.0309 0.06918 0.0692"/>
  <path d="m98.244 130.89 0.84808-0.84811c0.01062-0.0106 0.0175-0.0243 0.01961-0.0391l0.0979-0.68502c3e-3 -0.0216-0.0042-0.0434-0.01961-0.0588l-0.14679-0.14672-0.19569 0.19572 0.0489 0.0489c0.02699 0.027 0.02699 0.0708 0 0.0979-0.01351 0.0135-0.03119 0.0202-0.0489 0.0202s-0.03542-7e-3 -0.0489-0.0202l-0.19583-0.19579c-0.02699-0.027-0.02699-0.0708 0-0.0978 0.02702-0.027 0.07091-0.027 0.09793 0l0.0489 0.0489 0.19569-0.19572-0.14668-0.14679c-0.01542-0.0154-0.03722-0.0226-0.05881-0.0196l-0.68499 0.0979c-0.01482 2e-3 -0.0285 9e-3 -0.03912 0.0196l-0.84818 0.84812c-0.09892 0.0989-0.09892 0.25989 0 0.35877l0.71769 0.71762c0.0495 0.0495 0.11441 0.0742 0.17939 0.0742 0.06502 0 0.13-0.0247 0.17942-0.0742zm0.27728-1.1698c0.11441 0 0.20761 0.0931 0.20761 0.20761 0 0.11441-0.0932 0.2075-0.20761 0.2075-0.11451 0-0.20761-0.0931-0.20761-0.2075 0-0.11451 0.0931-0.20761 0.20761-0.20761zm-0.78288 0.41511c-0.11451 0-0.20761-0.0931-0.20761-0.2075 0-0.11451 0.0931-0.20761 0.20761-0.20761 0.11448 0 0.20757 0.0931 0.20757 0.20761 0 0.11441-0.0931 0.2075-0.20757 0.2075zm0.22839 0.35098c-0.0073 0-0.01471-1e-3 -0.02191-4e-3 -0.0363-0.0121-0.05588-0.0513-0.04378-0.0875l0.32618-0.9786c0.0121-0.0363 0.05129-0.0559 0.08752-0.0438 0.0363 0.0121 0.05588 0.0513 0.04378 0.0875l-0.32618 0.9786c-0.0097 0.029-0.03672 0.0474-0.06562 0.0474"/>
  <path d="m99.189 128.96c0.02702-0.0271 0.02702-0.0709 0-0.0979-0.02699-0.027-0.07077-0.027-0.0979 0l-0.14679 0.14679 0.0979 0.0979z"/>
 </g>
</svg>
