<?xml version="1.0" encoding="UTF-8"?>
<!DOCTYPE svg PUBLIC "-//W3C//DTD SVG 1.1//EN" "http://www.w3.org/Graphics/SVG/1.1/DTD/svg11.dtd">
<!-- Creator: CorelDRAW 2020 (64-Bit Versión de evaluación) -->
<svg xmlns="http://www.w3.org/2000/svg" xml:space="preserve" width="222px" height="204px" version="1.1" style="shape-rendering:geometricPrecision; text-rendering:geometricPrecision; image-rendering:optimizeQuality; fill-rule:evenodd; clip-rule:evenodd"
viewBox="0 0 15.91 14.61"
 xmlns:xlink="http://www.w3.org/1999/xlink"
 xmlns:xodm="http://www.corel.com/coreldraw/odm/2003">
 <defs>
  <style type="text/css">
   <![CDATA[
    .fil0 {fill:#AA6838;fill-rule:nonzero}
    .fil4 {fill:#BC7C46;fill-rule:nonzero}
    .fil1 {fill:#C68B51;fill-rule:nonzero}
    .fil3 {fill:#DDA866;fill-rule:nonzero}
    .fil2 {fill:#FFDDA8;fill-rule:nonzero}
   ]]>
  </style>
 </defs>
 <g id="Capa_x0020_1">
  <metadata id="CorelCorpID_0Corel-Layer"/>
  <g id="_1769460476240">
   <path class="fil0" d="M3.48 8.07c0.04,0.03 0.52,1.77 0.52,1.77l-0.87 0.94c0,0 -1.7,-1.24 -1.66,-1.23 0.04,0.02 -0.46,-2.12 -0.46,-2.12l2.47 0.64z"/>
   <polygon class="fil1" points="2.06,9.74 3.86,10.78 7.86,8.47 6.06,7.43 "/>
   <path class="fil2" d="M11.3 3.41l1.72 1c0.19,0.11 0.34,0.02 0.34,-0.2 0,-0.11 -0.03,-0.23 -0.1,-0.34 -0.06,-0.11 -0.14,-0.2 -0.24,-0.26l-1.72 -0.99c-0.19,-0.11 -0.34,-0.02 -0.34,0.2 0,0.22 0.15,0.48 0.34,0.59zm-2.25 -3.41l6.86 3.96 -9.05 5.23 -6.86 -3.96 0 0 9.05 -5.23z"/>
   <path class="fil0" d="M11.3 3.41l1.72 1c0.19,0.11 0.34,0.02 0.34,-0.2 0,-0.11 -0.03,-0.23 -0.1,-0.34 -0.06,-0.11 -0.14,-0.2 -0.24,-0.26l-1.72 -0.99c-0.19,-0.11 -0.34,-0.02 -0.34,0.2 0,0.22 0.15,0.48 0.34,0.59zm-2.25 -3.27l6.62 3.82 -4.81 2.78 -1.81 -1.04 -3.99 2.31 -4.82 -2.78 8.81 -5.09z"/>
   <path class="fil3" d="M11.3 3.41l1.72 1c0.19,0.11 0.34,0.02 0.34,-0.2 0,-0.11 -0.03,-0.23 -0.1,-0.34 -0.06,-0.11 -0.14,-0.2 -0.24,-0.26l-1.72 -0.99c-0.19,-0.11 -0.34,-0.02 -0.34,0.2 0,0.22 0.15,0.48 0.34,0.59zm4.37 0.55l-4.81 2.78 -1.81 -1.04 0 -5.56 6.62 3.82z"/>
   <polygon class="fil1" points="5.06,8.01 6.86,9.05 10.86,6.74 9.05,5.7 "/>
   <polygon class="fil4" points="6.86,14.61 6.86,9.19 15.91,3.96 15.91,9.43 "/>
   <path class="fil3" d="M2.19 8.91l1.73 0.99c0.19,0.11 0.34,0.02 0.34,-0.2 0,-0.11 -0.04,-0.23 -0.1,-0.34 -0.06,-0.1 -0.15,-0.2 -0.24,-0.25l-1.73 -1c-0.19,-0.1 -0.34,-0.02 -0.34,0.2 0,0.22 0.15,0.49 0.34,0.6zm4.67 0.28l0 5.42 -6.86 -3.92 0 -5.46 6.86 3.96z"/>
   <path class="fil2" d="M1.85 8.31c0,0.22 0.15,0.49 0.34,0.6l1.73 0.99c0.12,0.07 0.23,0.06 0.29,-0.02 -0.06,0.02 -0.13,0.01 -0.21,-0.04l-1.72 -0.99c-0.19,-0.11 -0.34,-0.38 -0.34,-0.6 0,-0.07 0.02,-0.13 0.05,-0.18 -0.09,0.03 -0.14,0.11 -0.14,0.24z"/>
   <path class="fil2" d="M10.96 2.82c0,0.22 0.15,0.48 0.34,0.59l1.72 1c0.13,0.07 0.25,0.05 0.31,-0.04 -0.06,0.02 -0.14,0.01 -0.23,-0.04l-1.72 -0.99c-0.19,-0.11 -0.34,-0.38 -0.34,-0.6 0,-0.06 0.01,-0.11 0.03,-0.15 -0.07,0.03 -0.11,0.11 -0.11,0.23z"/>
  </g>
 </g>
</svg>
