<?xml version="1.0" encoding="UTF-8"?>
<!DOCTYPE svg PUBLIC "-//W3C//DTD SVG 1.1//EN" "http://www.w3.org/Graphics/SVG/1.1/DTD/svg11.dtd">
<!-- Creator: CorelDRAW 2020 (64-Bit Versión de evaluación) -->
<svg xmlns="http://www.w3.org/2000/svg" xml:space="preserve" width="174px" height="216px" version="1.1" style="shape-rendering:geometricPrecision; text-rendering:geometricPrecision; image-rendering:optimizeQuality; fill-rule:evenodd; clip-rule:evenodd"
viewBox="0 0 13.88 17.19"
 xmlns:xlink="http://www.w3.org/1999/xlink"
 xmlns:xodm="http://www.corel.com/coreldraw/odm/2003">
 <defs>
  <style type="text/css">
   <![CDATA[
    .fil6 {fill:#4F2E16;fill-rule:nonzero}
    .fil4 {fill:#9B7451;fill-rule:nonzero}
    .fil2 {fill:#BC7C46;fill-rule:nonzero}
    .fil5 {fill:#CAAF8F;fill-rule:nonzero}
    .fil3 {fill:#DDA866;fill-rule:nonzero}
    .fil1 {fill:#F9C98A;fill-rule:nonzero}
    .fil0 {fill:#FFDDA8;fill-rule:nonzero}
   ]]>
  </style>
 </defs>
 <g id="Capa_x0020_1">
  <metadata id="CorelCorpID_0Corel-Layer"/>
  <g id="_1769459592752">
   <polygon class="fil0" points="10.81,2.12 9.92,1.6 7.15,0 0,4.13 2.78,5.73 3.67,6.24 6.74,8.01 13.87,3.89 13.87,3.89 "/>
   <polygon class="fil1" points="7.15,0.14 0.25,4.13 6.74,7.83 13.62,3.89 "/>
   <polygon class="fil2" points="6.74,8.01 6.73,17.19 3.65,15.43 2.76,14.92 0,13.35 0,4.13 "/>
   <polygon class="fil3" points="6.73,8.01 6.73,17.19 13.88,13.1 13.88,3.89 "/>
   <polygon class="fil4" points="3.65,6.26 3.65,15.43 2.76,14.92 2.76,5.74 "/>
   <polygon class="fil5" points="10.81,2.12 8.32,3.56 7.42,4.08 3.67,6.24 3.64,6.26 2.75,5.74 2.78,5.73 6.53,3.56 7.42,3.04 9.92,1.6 "/>
   <polygon class="fil6" points="10.95,7.61 10.9,7.64 10.9,6.76 10.95,6.73 "/>
   <polygon class="fil6" points="11.14,6.82 11.1,6.88 10.93,6.77 10.76,7.08 10.72,7.06 10.93,6.69 "/>
   <polygon class="fil6" points="11.46,7.32 11.41,7.35 11.41,6.47 11.46,6.44 "/>
   <polygon class="fil6" points="11.64,6.53 11.6,6.59 11.43,6.48 11.26,6.79 11.23,6.77 11.43,6.39 "/>
   <polygon class="fil6" points="11.65,7.24 10.71,7.78 10.68,7.77 10.71,7.72 11.65,7.18 11.68,7.19 "/>
   <path class="fil6" d="M10.72 6.59c-0.07,0.04 -0.13,0.14 -0.13,0.22l0 1.07c0,0.08 0.06,0.11 0.13,0.07l0.92 -0.53c0.07,-0.04 0.13,-0.14 0.13,-0.22l0 -1.07c0,-0.08 -0.06,-0.11 -0.13,-0.07l-0.92 0.53zm0.92 0.89l-0.92 0.53c-0.1,0.06 -0.18,0.01 -0.18,-0.1l0 -1.07c0,-0.11 0.08,-0.25 0.18,-0.31l0.92 -0.53c0.1,-0.06 0.18,-0.01 0.18,0.1l0 1.07c0,0.11 -0.08,0.25 -0.18,0.31z"/>
   <polygon class="fil6" points="12.54,6.8 12.51,6.78 12.51,6.02 12.54,5.97 12.56,5.99 12.56,6.75 "/>
   <path class="fil6" d="M12.07 5.79c-0.07,0.04 -0.12,0.14 -0.12,0.22l0 1.07c0,0.08 0.05,0.11 0.12,0.07l0.93 -0.53c0.07,-0.04 0.13,-0.14 0.13,-0.22l0 -1.07c0,-0.08 -0.06,-0.12 -0.13,-0.08l-0.93 0.54zm0.93 0.88l-0.93 0.54c-0.09,0.05 -0.17,0.01 -0.17,-0.1l0 -1.07c0,-0.12 0.08,-0.25 0.17,-0.31l0.93 -0.54c0.1,-0.05 0.18,-0.01 0.18,0.11l0 1.07c0,0.11 -0.08,0.25 -0.18,0.3z"/>
   <path class="fil6" d="M12.92 6.02c-0.04,-0.14 -0.19,-0.17 -0.38,-0.06 -0.19,0.11 -0.35,0.32 -0.38,0.51l0.76 -0.45z"/>
   <polygon class="fil6" points="12.4,5.94 12.38,5.93 12.38,5.74 12.4,5.69 12.43,5.71 12.43,5.9 "/>
   <polygon class="fil6" points="12.54,5.86 12.51,5.85 12.51,5.66 12.54,5.62 12.56,5.63 12.56,5.82 "/>
   <polygon class="fil6" points="12.67,5.79 12.65,5.77 12.65,5.59 12.67,5.54 12.7,5.56 12.7,5.74 "/>
   <path class="fil6" d="M12.07 7.5c-0.07,0.04 -0.13,0.14 -0.13,0.22l0 1.07c0,0.08 0.06,0.11 0.13,0.07l0.93 -0.53c0.07,-0.04 0.12,-0.14 0.12,-0.22l0.01 -1.07c0,-0.08 -0.05,-0.12 -0.12,-0.08l-0.94 0.54zm0.93 0.89l-0.93 0.53c-0.1,0.06 -0.18,0.01 -0.18,-0.1l0 -1.07c0,-0.11 0.08,-0.25 0.18,-0.31l0.94 -0.53c0.09,-0.06 0.17,-0.01 0.17,0.1l-0.01 1.07c0,0.11 -0.07,0.25 -0.17,0.31z"/>
   <polygon class="fil6" points="12.53,8.36 12.51,8.35 12.51,7.58 12.53,7.54 12.56,7.55 12.56,8.32 "/>
   <polygon class="fil6" points="12.65,8.29 12.42,8.43 12.39,8.41 12.42,8.37 12.65,8.24 12.67,8.25 "/>
   <path class="fil6" d="M12.78 7.32l0 0.36c0,0.1 -0.07,0.22 -0.15,0.26l-0.19 0.11c-0.08,0.05 -0.15,0.01 -0.15,-0.09l0 -0.35 0.09 -0.06 0 0.39 0.03 0.01 0.02 -0.04 0 -0.39 0.35 -0.2z"/>
   <polygon class="fil6" points="10.93,8.63 11.12,8.74 10.93,9.06 "/>
   <polygon class="fil6" points="11.36,8.32 11.18,8.63 11,8.53 "/>
   <polygon class="fil6" points="11.18,8.78 11.38,8.89 10.99,9.11 "/>
   <polygon class="fil6" points="11.44,8.34 11.44,8.78 11.25,8.67 "/>
   <polygon class="fil6" points="11.51,8.93 10.82,8.53 10.85,8.48 11.54,8.87 "/>
   <polygon class="fil6" points="10.85,9.31 10.82,9.29 11.51,8.09 11.54,8.11 "/>
   <polygon class="fil6" points="11.55,8.79 11.5,8.82 11.5,8.24 11.55,8.21 "/>
   <polygon class="fil6" points="10.86,9.19 10.81,9.21 10.81,8.64 10.86,8.61 "/>
   <polygon class="fil6" points="11.8,8.38 11.68,8.44 11.68,8.4 11.8,8.34 "/>
   <polygon class="fil6" points="11.71,8.31 11.56,8.49 11.71,8.51 "/>
   <polygon class="fil6" points="10.69,9.02 10.57,9.08 10.57,9.04 10.69,8.98 "/>
   <polygon class="fil6" points="10.66,9.11 10.81,8.93 10.66,8.91 "/>
   <path class="fil6" d="M10.7 8.3c-0.06,0.04 -0.11,0.13 -0.11,0.2l0 1.11c0,0.07 0.05,0.1 0.11,0.06l0.96 -0.55c0.06,-0.04 0.11,-0.12 0.11,-0.2l0 -1.1c0,-0.07 -0.05,-0.1 -0.11,-0.07l-0.96 0.55zm0.96 0.87l-0.96 0.56c-0.09,0.05 -0.16,0.01 -0.16,-0.1l0 -1.1c0,-0.1 0.07,-0.23 0.16,-0.28l0.96 -0.55c0.09,-0.05 0.16,-0.01 0.16,0.09l0 1.11c0,0.1 -0.07,0.22 -0.16,0.27z"/>
  </g>
 </g>
</svg>
