<?xml version="1.0" encoding="UTF-8"?>
<!DOCTYPE svg PUBLIC "-//W3C//DTD SVG 1.1//EN" "http://www.w3.org/Graphics/SVG/1.1/DTD/svg11.dtd">
<!-- Creator: CorelDRAW 2020 (64-Bit Versión de evaluación) -->
<svg xmlns="http://www.w3.org/2000/svg" xml:space="preserve" width="211px" height="268px" version="1.1" style="shape-rendering:geometricPrecision; text-rendering:geometricPrecision; image-rendering:optimizeQuality; fill-rule:evenodd; clip-rule:evenodd"
viewBox="0 0 33.05 42.03"
 xmlns:xlink="http://www.w3.org/1999/xlink"
 xmlns:xodm="http://www.corel.com/coreldraw/odm/2003">
 <defs>
  <style type="text/css">
   <![CDATA[
    .fil6 {fill:#4F2E16;fill-rule:nonzero}
    .fil4 {fill:#9B7451;fill-rule:nonzero}
    .fil2 {fill:#BC7C46;fill-rule:nonzero}
    .fil5 {fill:#CAAF8F;fill-rule:nonzero}
    .fil3 {fill:#DDA866;fill-rule:nonzero}
    .fil1 {fill:#F9C98A;fill-rule:nonzero}
    .fil0 {fill:#FFDDA8;fill-rule:nonzero}
   ]]>
  </style>
 </defs>
 <g id="Capa_x0020_1">
  <metadata id="CorelCorpID_0Corel-Layer"/>
  <g id="_1769449923440">
   <polygon class="fil0" points="28.81,3.29 27.19,2.36 23.11,0 0,13.35 4.07,15.7 5.7,16.64 9.95,19.1 33.05,5.74 "/>
   <polygon class="fil1" points="28.68,3.37 27.06,2.43 23.11,0.15 0.26,13.35 4.21,15.62 5.85,16.55 9.95,18.9 32.79,5.74 "/>
   <polygon class="fil2" points="9.95,19.09 9.95,42.03 5.69,39.59 5.68,39.59 4.06,38.66 3.95,38.6 0,36.34 0,13.35 "/>
   <polygon class="fil3" points="9.95,19.1 9.95,42.03 33.05,28.72 33.05,5.75 "/>
   <polygon class="fil4" points="5.69,16.65 5.69,39.59 5.68,39.59 4.06,38.66 4.06,15.71 "/>
   <polygon class="fil5" points="28.81,3.29 28.68,3.37 14.18,11.74 12.55,12.69 5.85,16.55 5.7,16.64 5.68,16.65 4.05,15.71 4.07,15.7 4.21,15.62 10.93,11.74 12.55,10.8 27.06,2.43 27.19,2.36 "/>
   <polygon class="fil6" points="25.95,16.09 25.85,16.15 25.85,14.36 25.95,14.29 "/>
   <polygon class="fil6" points="26.32,14.48 26.24,14.6 25.9,14.37 25.55,15 25.48,14.96 25.9,14.2 "/>
   <polygon class="fil6" points="26.98,15.5 26.88,15.56 26.88,13.76 26.98,13.7 "/>
   <polygon class="fil6" points="27.35,13.88 27.28,14 26.93,13.77 26.58,14.41 26.51,14.37 26.93,13.6 "/>
   <polygon class="fil6" points="27.38,15.33 25.45,16.44 25.4,16.41 25.45,16.32 27.38,15.21 27.43,15.24 "/>
   <path class="fil6" d="M25.47 14c-0.15,0.09 -0.26,0.29 -0.26,0.45l0 2.19c0,0.17 0.11,0.23 0.26,0.15l1.89 -1.09c0.14,-0.09 0.26,-0.29 0.26,-0.45l0 -2.19c0,-0.17 -0.12,-0.23 -0.26,-0.15l-1.89 1.09zm1.89 1.82l-1.89 1.09c-0.2,0.11 -0.36,0.02 -0.36,-0.21l0 -2.19c0,-0.23 0.16,-0.51 0.36,-0.62l1.89 -1.1c0.2,-0.12 0.36,-0.02 0.36,0.21l0 2.19c0,0.23 -0.16,0.51 -0.36,0.63z"/>
   <polygon class="fil6" points="29.19,14.42 29.14,14.39 29.14,12.83 29.19,12.74 29.24,12.77 29.24,14.33 "/>
   <path class="fil6" d="M28.24 12.36c-0.14,0.08 -0.26,0.28 -0.26,0.45l0 2.19c0,0.16 0.12,0.23 0.26,0.15l1.9 -1.1c0.14,-0.08 0.26,-0.28 0.26,-0.44l0 -2.19c0,-0.17 -0.12,-0.24 -0.26,-0.15l-1.9 1.09zm1.9 1.81l-1.9 1.1c-0.2,0.11 -0.36,0.02 -0.36,-0.21l0 -2.19c0,-0.23 0.16,-0.51 0.36,-0.63l1.9 -1.09c0.2,-0.12 0.36,-0.02 0.36,0.21l0 2.19c0,0.23 -0.16,0.51 -0.36,0.62z"/>
   <path class="fil6" d="M29.97 12.84c-0.07,-0.29 -0.39,-0.35 -0.78,-0.13 -0.39,0.23 -0.71,0.66 -0.78,1.04l1.56 -0.91z"/>
   <polygon class="fil6" points="28.92,12.67 28.87,12.64 28.87,12.26 28.92,12.17 28.97,12.2 28.97,12.58 "/>
   <polygon class="fil6" points="29.19,12.51 29.14,12.49 29.14,12.1 29.19,12.01 29.24,12.04 29.24,12.42 "/>
   <polygon class="fil6" points="29.46,12.36 29.41,12.33 29.41,11.94 29.46,11.86 29.51,11.88 29.51,12.27 "/>
   <path class="fil6" d="M28.23 15.86c-0.14,0.08 -0.25,0.28 -0.25,0.45l0 2.19c0,0.16 0.11,0.23 0.25,0.15l1.9 -1.1c0.14,-0.08 0.26,-0.28 0.26,-0.44l0.01 -2.19c0,-0.17 -0.11,-0.24 -0.25,-0.15l-1.92 1.09zm1.9 1.81l-1.9 1.1c-0.2,0.11 -0.36,0.02 -0.36,-0.21l0 -2.19c0,-0.23 0.16,-0.51 0.36,-0.63l1.92 -1.09c0.2,-0.12 0.36,-0.02 0.36,0.21l-0.02 2.19c0,0.23 -0.16,0.51 -0.36,0.62z"/>
   <polygon class="fil6" points="29.18,17.62 29.13,17.59 29.13,16.03 29.18,15.94 29.23,15.97 29.23,17.53 "/>
   <polygon class="fil6" points="29.42,17.49 28.95,17.76 28.89,17.73 28.95,17.64 29.42,17.37 29.47,17.4 "/>
   <path class="fil6" d="M29.68 15.5l0 0.73c0,0.2 -0.14,0.44 -0.31,0.54l-0.38 0.22c-0.17,0.1 -0.31,0.02 -0.31,-0.18l0 -0.73 0.19 -0.11 0 0.79 0.05 0.03 0.05 -0.09 0 -0.79 0.71 -0.41z"/>
   <polygon class="fil6" points="25.91,18.18 26.28,18.4 25.91,19.04 "/>
   <polygon class="fil6" points="26.78,17.54 26.41,18.17 26.05,17.96 "/>
   <polygon class="fil6" points="26.41,18.47 26.81,18.71 26.02,19.16 "/>
   <polygon class="fil6" points="26.93,17.57 26.93,18.47 26.55,18.25 "/>
   <polygon class="fil6" points="27.09,18.79 25.68,17.97 25.74,17.86 27.15,18.67 "/>
   <polygon class="fil6" points="25.74,19.57 25.68,19.53 27.09,17.08 27.15,17.12 "/>
   <polygon class="fil6" points="27.17,18.5 27.08,18.55 27.08,17.37 27.17,17.32 "/>
   <polygon class="fil6" points="25.75,19.32 25.66,19.37 25.66,18.19 25.75,18.13 "/>
   <polygon class="fil6" points="27.67,17.66 27.44,17.79 27.44,17.71 27.67,17.58 "/>
   <polygon class="fil6" points="27.49,17.52 27.19,17.89 27.49,17.92 "/>
   <polygon class="fil6" points="25.4,18.97 25.17,19.1 25.17,19.02 25.4,18.89 "/>
   <polygon class="fil6" points="25.35,19.16 25.65,18.78 25.35,18.76 "/>
   <path class="fil6" d="M25.44 17.51c-0.13,0.07 -0.24,0.25 -0.24,0.4l0 2.26c0,0.15 0.11,0.21 0.24,0.14l1.95 -1.13c0.13,-0.08 0.24,-0.26 0.24,-0.41l0 -2.26c0,-0.15 -0.11,-0.21 -0.24,-0.13l-1.95 1.13zm1.95 1.77l-1.95 1.14c-0.18,0.1 -0.33,0.01 -0.33,-0.19l0 -2.26c0,-0.21 0.15,-0.46 0.33,-0.57l1.95 -1.13c0.18,-0.1 0.33,-0.02 0.33,0.19l0 2.26c0,0.21 -0.15,0.46 -0.33,0.56z"/>
  </g>
 </g>
</svg>
