<?xml version="1.0" encoding="UTF-8"?>
<svg width="1.739mm" height="1.7389mm" version="1.1" viewBox="0 0 1.739 1.7389" xmlns="http://www.w3.org/2000/svg">
 <g transform="translate(-129.91 -79.261)">
  <path d="m131.51 80.403c-0.10647 0-0.211-0.01667-0.31006-0.0494-0.0486-0.01656-0.10822-0.0014-0.13785 0.02905l-0.19553 0.14761c-0.22675-0.12105-0.36642-0.26067-0.48583-0.48572l0.14327-0.19045c0.0372-0.03717 0.0506-0.09147 0.0346-0.1424-0.0329-0.09959-0.0496-0.20407-0.0496-0.3106 0-0.07694-0.0626-0.13951-0.13954-0.13951h-0.31935c-0.0769 0-0.13954 0.06257-0.13954 0.13951 0 0.88194 0.7175 1.5994 1.5994 1.5994 0.0769 0 0.13952-0.06257 0.13952-0.13952v-0.31845c0-0.07694-0.0626-0.13954-0.13952-0.13954z" fill="#b1b3b4" fill-rule="evenodd" stroke-width=".26458"/>
 </g>
</svg>
