<?xml version="1.0" encoding="UTF-8"?>
<!DOCTYPE svg PUBLIC "-//W3C//DTD SVG 1.1//EN" "http://www.w3.org/Graphics/SVG/1.1/DTD/svg11.dtd">
<!-- Creator: CorelDRAW 2020 (64-Bit Versión de evaluación) -->
<svg xmlns="http://www.w3.org/2000/svg" xml:space="preserve" width="40px" height="45px" version="1.1" style="shape-rendering:geometricPrecision; text-rendering:geometricPrecision; image-rendering:optimizeQuality; fill-rule:evenodd; clip-rule:evenodd"
viewBox="0 0 112.2 126.85"
 xmlns:xlink="http://www.w3.org/1999/xlink"
 xmlns:xodm="http://www.corel.com/coreldraw/odm/2003">
 <defs>
  <style type="text/css">
   <![CDATA[
    .fil0 {fill:#4C00FF;fill-rule:nonzero}
   ]]>
  </style>
 </defs>
 <g id="Capa_x0020_1">
  <metadata id="CorelCorpID_0Corel-Layer"/>
  <path class="fil0" d="M95.77 16.43c-10.6,-10.6 -24.69,-16.43 -39.67,-16.43 -14.98,0 -29.07,5.83 -39.67,16.43 -10.6,10.6 -16.43,24.69 -16.43,39.67 0,26.44 18.48,49.26 44.16,54.82l11.94 15.93 11.94 -15.93c25.68,-5.56 44.16,-28.38 44.16,-54.82 0,-14.98 -5.83,-29.07 -16.43,-39.67zm6.9 39.42c0,25.72 -20.85,46.57 -46.57,46.57 -25.72,0 -46.57,-20.85 -46.57,-46.57 0,-25.72 20.85,-46.57 46.57,-46.57 25.72,0 46.57,20.85 46.57,46.57z"/>
 </g>
</svg>
