<?xml version="1.0" encoding="UTF-8"?>
<svg width="2.2065mm" height="2.2067mm" version="1.1" viewBox="0 0 2.2065 2.2067" xmlns="http://www.w3.org/2000/svg">
 <g transform="translate(-85.075 -227.19)">
  <path d="m87.24 228.1-0.27672-0.0554-0.0024-7e-3c-0.0065-0.0199-0.01369-0.0393-0.02138-0.0582-0.0079-0.0189-0.01651-0.0378-0.02589-0.0563l-0.0034-7e-3 0.15649-0.23459c0.0068-0.0103 0.0096-0.0225 0.0085-0.0341-0.0011-0.0117-0.0063-0.0231-0.0151-0.0318l-0.20239-0.2026c-0.0088-9e-3 -0.02021-0.014-0.03178-0.0151-0.01171-1e-3 -0.02392 2e-3 -0.03433 8e-3l-0.2346 0.15649-0.0068-4e-3c-0.01838-9e-3 -0.03708-0.0179-0.05609-0.0257-0.01859-8e-3 -0.03821-0.015-0.05839-0.0216l-0.0072-2e-3 -0.05542-0.27669c-0.0024-0.0121-9e-3 -0.0227-0.0181-0.0302-9e-3 -7e-3 -0.0206-0.0118-0.03309-0.0118h-0.28631c-0.01238 0-0.0241 4e-3 -0.03309 0.0118-0.0091 7e-3 -0.0157 0.018-0.0181 0.0302l-0.05532 0.27669-0.0074 2e-3c-0.0199 6e-3 -0.03951 0.0137-0.05831 0.0216-0.01898 8e-3 -0.03771 0.0165-0.05609 0.0257l-0.0068 4e-3 -0.2346-0.15649c-0.0103-7e-3 -0.02251-0.01-0.03411-8e-3 -0.01168 1e-3 -0.02307 6e-3 -0.03189 0.0151l-0.20239 0.2026c-0.0088 9e-3 -0.0139 0.0201-0.0151 0.0318-0.0012 0.0116 0.0016 0.0238 0.0085 0.0341l0.15649 0.23459-0.0035 7e-3c-0.0093 0.0185-0.01792 0.0374-0.02582 0.0562-0.0078 0.019-0.01499 0.0384-0.02148 0.0583l-0.0024 7e-3 -0.27661 0.0554c-0.01217 2e-3 -0.02268 9e-3 -0.03009 0.0181-0.0075 9e-3 -0.01189 0.0206-0.01189 0.0331v0.28621c0 0.0125 0.0044 0.0242 0.01178 0.0332 0.0074 9e-3 0.01803 0.0157 0.0302 0.0182l0.27661 0.0552 0.0024 7e-3c0.0065 0.02 0.01379 0.0395 0.02159 0.0582 0.0078 0.019 0.0164 0.0378 0.02572 0.0563l0.0035 7e-3 -0.15639 0.23453c-0.0069 0.0104-0.0098 0.0225-0.0086 0.0342 0.0011 0.0117 0.0063 0.0231 0.01499 0.0319l0.2025 0.2025c0.0088 9e-3 0.02021 0.014 0.03189 0.0151 0.01161 1e-3 0.02381-2e-3 0.03411-9e-3l0.2346-0.1566 0.0068 4e-3c0.01838 9e-3 0.03729 0.0179 0.0562 0.0257 0.01891 8e-3 0.03838 0.0151 0.05821 0.0217l0.0074 2e-3 0.05521 0.27661c0.0025 0.0122 0.0091 0.0228 0.0182 0.0302 9e-3 7e-3 0.02071 0.0118 0.0332 0.0118h0.28621c0.01249 0 0.0241-4e-3 0.0332-0.0118 0.0091-7e-3 0.01559-0.018 0.0181-0.0302l0.05531-0.27661 0.0073-2e-3c0.02007-7e-3 0.03969-0.014 0.05828-0.0217 0.01901-8e-3 0.03771-0.0165 0.05602-0.0257l0.0068-4e-3 0.23481 0.1566c0.0103 7e-3 0.0224 0.01 0.03411 9e-3 0.01178-1e-3 0.02311-6e-3 0.03189-0.0151l0.20239-0.2025c0.0088-9e-3 0.014-0.0202 0.0151-0.0319 0.0011-0.0116-0.0017-0.0238-0.0085-0.0342l-0.15639-0.23453 0.0033-7e-3c0.0094-0.0185 0.01799-0.0373 0.02589-0.0563 0.0077-0.0189 0.01489-0.0384 0.02138-0.0582l0.0024-7e-3 0.27672-0.0552c0.0121-2e-3 0.02268-9e-3 0.0302-0.0182 0.0074-9e-3 0.01178-0.0207 0.01178-0.0332l1.06e-4 -0.28621c0-0.0125-0.0045-0.0241-0.01189-0.0332-0.0074-9e-3 -0.01799-0.0156-0.0302-0.018zm-1.0611-0.2068c-0.1107 0-0.211 0.045-0.28367 0.11761-0.0726 0.0726-0.11762 0.1729-0.11762 0.2835 0 0.1107 0.04502 0.21099 0.11762 0.28349 0.07267 0.0727 0.17297 0.11769 0.2836 0.11769 0.1106 0 0.21089-0.045 0.28349-0.11769 0.0726-0.0725 0.11758-0.17279 0.11758-0.28349 0-0.1106-0.04498-0.21089-0.11758-0.2835-0.0725-0.0726-0.17279-0.11761-0.28342-0.11761" fill="#b0b7c5" fill-rule="evenodd"/>
 </g>
</svg>
