<?xml version="1.0" encoding="UTF-8"?>
<!DOCTYPE svg PUBLIC "-//W3C//DTD SVG 1.1//EN" "http://www.w3.org/Graphics/SVG/1.1/DTD/svg11.dtd">
<!-- Creator: CorelDRAW 2020 (64-Bit Versión de evaluación) -->
<svg xmlns="http://www.w3.org/2000/svg" xml:space="preserve" width="48px" height="48px" version="1.1" style="shape-rendering:geometricPrecision; text-rendering:geometricPrecision; image-rendering:optimizeQuality; fill-rule:evenodd; clip-rule:evenodd"
viewBox="0 0 2.37 2.38"
 xmlns:xlink="http://www.w3.org/1999/xlink"
 xmlns:xodm="http://www.corel.com/coreldraw/odm/2003">
 <defs>
  <style type="text/css">
   <![CDATA[
    .fil0 {fill:#4C00FF;fill-rule:nonzero}
   ]]>
  </style>
 </defs>
 <g id="Capa_x0020_1">
  <metadata id="CorelCorpID_0Corel-Layer"/>
  <path class="fil0" d="M0.24 1.01c0,-0.43 0.34,-0.77 0.77,-0.77 0.43,0 0.77,0.34 0.77,0.77 0,0.43 -0.34,0.77 -0.77,0.77 -0.43,0 -0.77,-0.34 -0.77,-0.77zm2.05 0.87l-0.39 -0.4c0.07,-0.14 0.12,-0.3 0.12,-0.47 0,-0.56 -0.45,-1.01 -1.01,-1.01 -0.56,0 -1.01,0.45 -1.01,1.01 0,0.56 0.45,1.01 1.01,1.01 0.17,0 0.33,-0.05 0.47,-0.12l0.4 0.39c0.06,0.06 0.13,0.09 0.2,0.09 0.08,0 0.15,-0.03 0.21,-0.09 0.05,-0.06 0.08,-0.13 0.08,-0.21 0,-0.07 -0.03,-0.14 -0.08,-0.2z"/>
 </g>
</svg>
