<?xml version="1.0" encoding="UTF-8"?>
<!DOCTYPE svg PUBLIC "-//W3C//DTD SVG 1.1//EN" "http://www.w3.org/Graphics/SVG/1.1/DTD/svg11.dtd">
<!-- Creator: CorelDRAW 2020 (64-Bit Versión de evaluación) -->
<svg xmlns="http://www.w3.org/2000/svg" xml:space="preserve" width="50px" height="50px" version="1.1" style="shape-rendering:geometricPrecision; text-rendering:geometricPrecision; image-rendering:optimizeQuality; fill-rule:evenodd; clip-rule:evenodd"
viewBox="0 0 0.72 0.72"
 xmlns:xlink="http://www.w3.org/1999/xlink"
 xmlns:xodm="http://www.corel.com/coreldraw/odm/2003">
 <defs>
  <style type="text/css">
   <![CDATA[
    .fil0 {fill:#4C00FF;fill-rule:nonzero}
   ]]>
  </style>
 </defs>
 <g id="Capa_x0020_1">
  <metadata id="CorelCorpID_0Corel-Layer"/>
  <path class="fil0" d="M0.69 0l-0.67 0.25c-0.01,0 -0.02,0.01 -0.02,0.03 0,0.01 0.01,0.02 0.02,0.02l0.33 0.04 0.07 -0.06c0.01,-0.01 0.02,-0.01 0.03,0l0 0c0.01,0 0.01,0.02 0,0.02l-0.07 0.07 0.05 0.33c0,0.01 0,0.01 0,0.02l0 0c0.01,0 0.01,0 0.02,0 0.01,0 0.01,0 0.02,0 0,-0.01 0,-0.01 0,-0.01l0.25 -0.68c0,-0.01 0,-0.02 0,-0.02l0 0c-0.01,-0.01 -0.02,-0.01 -0.03,-0.01z"/>
 </g>
</svg>
