<?xml version="1.0" encoding="UTF-8"?>
<!DOCTYPE svg PUBLIC "-//W3C//DTD SVG 1.1//EN" "http://www.w3.org/Graphics/SVG/1.1/DTD/svg11.dtd">
<!-- Creator: CorelDRAW 2020 (64-Bit Versión de evaluación) -->
<svg xmlns="http://www.w3.org/2000/svg" xml:space="preserve" width="32px" height="31px" version="1.1" style="shape-rendering:geometricPrecision; text-rendering:geometricPrecision; image-rendering:optimizeQuality; fill-rule:evenodd; clip-rule:evenodd"
viewBox="0 0 1.35 1.29"
 xmlns:xlink="http://www.w3.org/1999/xlink"
 xmlns:xodm="http://www.corel.com/coreldraw/odm/2003">
 <defs>
  <style type="text/css">
   <![CDATA[
    .fil0 {fill:#4C00FF;fill-rule:nonzero}
   ]]>
  </style>
 </defs>
 <g id="Capa_x0020_1">
  <metadata id="CorelCorpID_0Corel-Layer"/>
  <path class="fil0" d="M1.35 0.49c-0.01,-0.03 -0.04,-0.05 -0.06,-0.05l-0.39 -0.04 -0.16 -0.36c-0.01,-0.02 -0.04,-0.04 -0.06,-0.04 -0.03,0 -0.06,0.02 -0.07,0.04l-0.15 0.36 -0.39 0.04c-0.03,0 -0.06,0.02 -0.07,0.05 -0.01,0.03 0,0.06 0.02,0.08l0.3 0.25 -0.09 0.39c0,0.02 0.01,0.05 0.03,0.07 0.01,0.01 0.03,0.01 0.04,0.01 0.02,0 0.03,0 0.04,-0.01l0.34 -0.2 0.33 0.2c0.03,0.02 0.06,0.02 0.08,0 0.02,-0.02 0.03,-0.05 0.03,-0.07l-0.09 -0.39 0.3 -0.25c0.02,-0.02 0.03,-0.05 0.02,-0.08z"/>
 </g>
</svg>
