<?xml version="1.0" encoding="UTF-8"?>
<svg width="2.0542mm" height="1.7974mm" version="1.1" viewBox="0 0 2.0542 1.7974" xmlns="http://www.w3.org/2000/svg">
 <g transform="translate(-89.661 -210)" fill="#b0b7c5">
  <path d="m91.713 210.56-0.11617-0.465c-0.01432-0.0571-0.06562-0.0972-0.12453-0.0972h-1.5688c-0.05888 0-0.11028 0.0401-0.1246 0.0972l-0.11617 0.465c-0.0013 5e-3 -2e-3 0.0103-2e-3 0.0156 0 0.17692 0.13681 0.32089 0.30501 0.32089 0.09768 0 0.18478-0.0486 0.2407-0.12407 0.05577 0.0755 0.14298 0.12407 0.2407 0.12407 0.09768 0 0.18489-0.0486 0.2407-0.12407 0.05588 0.0755 0.14288 0.12407 0.2407 0.12407 0.09789 0 0.18489-0.0486 0.24077-0.12407 0.05581 0.0755 0.14291 0.12407 0.2407 0.12407 0.1682 0 0.30491-0.14397 0.30491-0.32089 0-5e-3 -6e-4 -0.0106-0.0019-0.0156"/>
  <path d="m91.169 210.95c-0.14048 0.0977-0.341 0.0977-0.48147 0-0.1404 0.0977-0.34103 0.0977-0.4814 0-0.07031 0.0488-0.15332 0.0755-0.2407 0.0755-0.06311 0-0.12252-0.0147-0.1766-0.0399v0.68192c0 0.0708 0.0575 0.12827 0.12838 0.12827h0.5135v-0.5135h0.51361v0.5135h0.5135c0.07091 0 0.12841-0.0575 0.12841-0.12827v-0.68192c-0.05401 0.0252-0.11352 0.0399-0.17653 0.0399-0.08738 0-0.1705-0.0267-0.2407-0.0755"/>
 </g>
</svg>
