<?xml version="1.0" encoding="UTF-8"?>
<svg width="2.2413mm" height="2.2407mm" version="1.1" viewBox="0 0 2.2413 2.2407" xmlns="http://www.w3.org/2000/svg">
 <g transform="translate(-126.45 -209.64)">
  <path d="m127.13 211.07c0.0432 0.0432 0.0904-0.014 0.1857 0.0813 0.0999 0.0999 0.0648 0.26861-0.0646 0.3216-3e-3 1e-3 -6e-3 7e-4 -9e-3 2e-3v0.0785c0 0.0363-0.0294 0.0657-0.0657 0.0657s-0.0657-0.0294-0.0657-0.0657v-0.0787c-0.0344-0.0116-0.0671-0.0297-0.0966-0.0582-0.0261-0.0251-0.0268-0.0667-2e-3 -0.0928 0.0251-0.026 0.0669-0.0268 0.0928-2e-3 0.0937 0.0904 0.17583-0.0195 0.11751-0.0777-0.0433-0.0434-0.1065 2e-3 -0.1857-0.077-0.0253-0.0253-0.0577-0.0817-0.0577-0.14361 0-0.0796 0.048-0.15558 0.13131-0.18518v-0.0775c0-0.0363 0.0294-0.0656 0.0657-0.0656s0.0656 0.0293 0.0656 0.0656v0.0766c0.0445 0.0148 0.0849 0.0436 0.12023 0.0856 0.0233 0.0278 0.0196 0.0692-8e-3 0.0925-0.0279 0.0235-0.0693 0.0198-0.0925-8e-3 -0.0977-0.11631-0.19361 3.5e-4 -0.13159 0.0625zm1.4014-1.0445c-0.0588 0.0616-0.19329 0.10357-0.2835 0.12058-0.1379 0.0259-0.29788 0.0259-0.43578 0-0.0895-0.0169-0.21622-0.0546-0.27912-0.12058-0.0187-0.0197-0.0283-0.0389-0.0283-0.0569 0-0.0548 0.0839-0.10351 0.13409-0.1257 0.11532-0.0514 0.26299-0.0713 0.39119-0.0713 0.12771 0 0.27542 0.0197 0.3913 0.0713 0.0523 0.0232 0.13843 0.0686 0.13843 0.1257 0 0.018-0.01 0.0372-0.0283 0.0569zm0.15959 1.5279v-1.585c-1.7e-4 -0.25378-0.49808-0.38177-0.90268-0.30578-0.17671 0.0305-0.41491 0.12841-0.41491 0.306v0.35658c0.0447 0.0106 0.0886 0.0241 0.13131 0.0419v-1e-4c1e-3 0 3e-3 1e-3 4e-3 1e-3 0.0838 0.0359 0.16669 0.0888 0.2466 0.16298 0.0193 4e-3 0.0374 9e-3 0.0568 0.0129 0.27951 0.0533 0.61059-7e-3 0.71879-0.12079 8e-3 -8e-3 0.0184-0.0144 0.0289-0.0157v0.1602c-0.10562 0.0762-0.3811 0.15251-0.6702 0.11949 0.0659 0.1035 0.0909 0.1682 0.11687 0.2692 0.13543 2e-3 0.29231-0.0147 0.4149-0.0696 0.046-0.021 0.0858-0.0447 0.10951-0.0696 8e-3 -8e-3 0.0183-0.0145 0.0289-0.0158v0.16023c-0.0762 0.0551-0.2716 0.12739-0.5323 0.12739 5e-3 0.0916 2e-3 0.16891-0.0209 0.26571 0.13582 2e-3 0.29242-0.0148 0.41479-0.0696 0.0509-0.0232 0.13843-0.0701 0.13843-0.12601v0.2009c-0.0956 0.069-0.3399 0.1409-0.5951 0.12609-4.2e-4 1e-3 -2e-3 4e-3 -2e-3 5e-3 -0.0511 0.11807-0.1071 0.17819-0.11888 0.19307-0.0118 0.0146-0.0216 0.0307-0.0347 0.0446-7e-4 -1.1e-4 -1e-3 -3.2e-4 -2e-3 -3.2e-4 -0.0256 0.0282-8e-3 0.0242-0.1167 0.107 1e-3 3.2e-4 2e-3 7.1e-4 3e-3 1e-3 0.1023 0.0279 0.19529 0.0446 0.33619 0.0446 0.27602 0 0.66083-0.10051 0.661-0.32812zm-0.79226-0.39409c0-0.30448-0.18211-0.55989-0.44144-0.66978-0.17808-0.0756-0.38809-0.0756-0.56617 0-0.2601 0.11017-0.44139 0.36618-0.44139 0.66978 0 0.39261 0.31637 0.72221 0.72668 0.72221 0.39741 0 0.72232-0.3229 0.72232-0.72221" fill="#a7a9ac"/>
 </g>
</svg>
