<svg xmlns="http://www.w3.org/2000/svg" width="62" height="92" viewBox="0 0 1.64 2.45" shape-rendering="geometricPrecision" text-rendering="geometricPrecision" image-rendering="optimizeQuality" fill-rule="evenodd" clip-rule="evenodd"><path d="M.82 2.45L.11 1.23A.822.822 0 0 1 .82 0c.63 0 1.02.68.71 1.23L.82 2.45z" fill="#2905a1" fill-rule="nonzero"/><path d="M.44 1.01v.14c0 .04.01.06.03.08.02.02.04.04.08.04h.54c.04 0 .06-.02.08-.04.02-.02.03-.04.03-.08v-.14c0-.08-.03-.15-.08-.21-.01 0-.05-.04-.06-.04-.02 0-.03.01-.03.03 0 .02.02.03.04.04.04.04.07.1.07.16v.17c0 .01-.01.03-.01.03-.01.01-.02.02-.04.02H.54c-.01 0-.02-.01-.03-.02 0 0-.01-.02-.01-.03V.99C.5.93.53.87.57.83.59.82.61.81.61.79S.6.76.58.76C.56.76.53.8.52.8.47.86.44.93.44 1.01zM.59.58c0 .05 0 .07.03.12.02.05.06.08.11.11.19.07.37-.11.3-.3A.254.254 0 0 0 .92.39a.229.229 0 0 0-.25.04C.64.45.63.46.62.49.61.51.59.55.59.58zm.05 0c0 .04 0 .06.02.09.02.04.05.07.09.09.15.06.29-.08.23-.23A.145.145 0 0 0 .9.44a.165.165 0 0 0-.2.03C.68.48.67.49.66.52.65.53.64.56.64.58z" fill="#fff"/></svg>