<?xml version="1.0" encoding="UTF-8"?>
<svg width="3.7158mm" height="2.3438mm" version="1.1" viewBox="0 0 3.7158 2.3438" xmlns="http://www.w3.org/2000/svg">
 <g transform="translate(-120.61 -165.14)" fill="#fff">
  <path d="m122.43 165.97h1.3431c0.0158 0 0.0303-9e-3 0.0367-0.0234 0.0407-0.0859 0.0775-0.17487 0.0383-0.23258-0.0374-0.0561-0.12902-0.0787-0.31602-0.0787-0.11942 0-0.2697 9e-3 -0.42902 0.0195-0.19748 0.0124-0.42118 0.0266-0.64128 0.0266-0.0149 0-0.0282 8e-3 -0.0354 0.0205-4e-3 6e-3 -0.0343 0.0637-0.038 0.20112-2.8e-4 0.0117 0 0.0218 1e-3 0.0311 2e-3 0.0205 0.0194 0.0359 0.0404 0.0359"/>
  <path d="m124.19 166.54 0.0245-8e-3c0.0133-5e-3 0.0235-0.0162 0.0262-0.0303l0.0254-0.12379c3e-3 -0.014-2e-3 -0.029-0.0125-0.0387l-0.13511-0.12012c-7e-3 -6e-3 -0.0165-0.01-0.0261-0.0104l-0.16397-3e-3c-0.0323-0.0278-0.12831-0.1101-0.1718-0.1463-7e-3 -6e-3 -0.0166-9e-3 -0.0258-9e-3h-1.2413c-0.0133 0-0.0253 6e-3 -0.033 0.017-8e-3 0.0108-0.01 0.0245-5e-3 0.037 0.0105 0.029 0.0314 0.054 0.0604 0.0883 0.0311 0.0367 0.0738 0.0866 0.1233 0.16609 0.0356 0.0568 0.042 0.1149 0.0198 0.17342-0.035 0.091-0.1325 0.162-0.18983 0.17809-0.0455 0.0129-0.1234 0.0205-0.20807 0.0205-0.13412 0-0.27372-0.0188-0.39303-0.0531-0.22087-0.0641-0.26317-0.56081-0.2395-0.6471 0.0129-0.048 0.071-0.2068 0.12743-0.36079 0.0158-0.0435 0.0295-0.081 0.0416-0.11401 0.01 7e-3 0.0169 0.0116 0.0177 0.0116 6e-3 4e-3 0.0141 6e-3 0.0214 6e-3 0.0137 0 0.0266-6e-3 0.0342-0.0188 0.0121-0.019 6e-3 -0.044-0.0125-0.056 0 0-0.0145-9e-3 -0.0323-0.0231 9e-3 -0.0237 0.0158-0.0439 0.0218-0.0609 7e-4 0 1e-3 0 2e-3 3.6e-4 4e-3 0.0129 0.0141 0.0235 0.0281 0.0271 0.059 0.0145 0.1138 0.0342 0.11458 0.0342 4e-3 2e-3 9e-3 2e-3 0.0137 2e-3 0.0165 0 0.0322-0.0101 0.0383-0.0266 7e-3 -0.0214-4e-3 -0.0444-0.0246-0.052-2e-3 -7.1e-4 -0.0593-0.0214-0.12259-0.0368-0.0129-4e-3 -0.0258 7.1e-4 -0.0354 9e-3 0.0105-0.0314 0.0133-0.0447 0.0133-0.0524 0-0.0758-0.28257-0.17977-0.37049-0.18298h-1e-3c-0.0253 3.1e-4 -0.0478 0.0112-0.0646 0.0311-0.0632 0.0757-0.0294 0.28857-0.0221 0.33059 3e-3 0.0173 0.0174 0.0306 0.0351 0.0329l0.1064 0.0134c-0.0355 0.1137-0.19427 0.46641-0.22817 0.51873-8e-3 0.0118-0.0612 0.0211-0.0871 0.0258-0.0548 0.01-0.10683 0.0186-0.12651 0.0581-0.0202 0.0409-0.0186 0.10929-0.0157 0.14721-6e-3 -3.5e-4 -0.0121-1e-3 -0.0182-1e-3 -0.18832 0-0.36322 0.10118-0.4571 0.26371-0.0115 0.0197-0.0177 0.0392-0.0186 0.0582v9e-3c7.1e-4 0.0119 3e-3 0.0236 8e-3 0.0349 0.0145 0.0339 0.0492 0.0625 0.0955 0.0882-0.0617 0.0774-0.0987 0.17508-0.0987 0.28148 0 0.24909 0.20232 0.45148 0.45152 0.45148 0.24871 0 0.45149-0.20239 0.45149-0.45148 0-0.0121-1e-3 -0.0242-2e-3 -0.0363 0.0404 0.015 0.0932 0.0399 0.10798 0.0475 0.0146 8e-3 0.0271-7e-4 0.0295-0.0129 3e-3 -0.0124 8e-3 -0.0451 9e-3 -0.0685 0.12019 0.0972 0.24877 0.10439 0.43829 0.10439h1.0469c0.0375 0.2359 0.2419 0.4173 0.4886 0.4173 0.27291 0 0.49551-0.22207 0.49551-0.49537 0-0.0145-1e-3 -0.029-2e-3 -0.0432 0.1439-0.0201 0.16729-0.0443 0.1785-0.0556 0.0134-0.0138 0.0173-0.0284 0.0177-0.0395v-0.00471c-3e-3 -0.0895-0.083-0.22969-0.12809-0.30191zm-2.8824 0.48821c0 0.13699-0.1113 0.24868-0.24829 0.24868-0.13709 0-0.2487-0.11169-0.2487-0.24868 0-0.0822 0.0411-0.15522 0.10318-0.20031 0.0745 0.022 0.15632 0.0427 0.24063 0.0637 0.0432 0.0108 0.0871 0.0217 0.12979 0.033 0.0145 0.0319 0.0234 0.0665 0.0234 0.10361zm2.6134-0.0435c0 0.16119-0.13091 0.29218-0.2922 0.29218s-0.29232-0.13099-0.29232-0.29218c0.21411-2e-3 0.44553-0.0149 0.58223-0.0238 7e-4 8e-3 2e-3 0.0157 2e-3 0.0238"/>
 </g>
</svg>
