<?xml version="1.0" encoding="UTF-8"?>
<svg class="" width="512" height="352" version="1.1" viewBox="0 0 512 352" xml:space="preserve" xmlns="http://www.w3.org/2000/svg"><g transform="translate(0,-80)">

	
		<polygon class="" points="512 144.9 339.39 258.62 512 367.74" fill="#b1b3b4" data-original="#000000"/>
	


	
		<polygon class="" points="172.61 258.62 0 144.9 0 367.74" fill="#b1b3b4" data-original="#000000"/>
	


	
		<path class="" d="M 480,80 H 32 C 16.032,80 3.36,91.904 0.96,107.232 L 256,275.264 511.04,107.232 C 508.64,91.904 495.968,80 480,80 Z" fill="#b1b3b4" data-original="#000000"/>
	


	
		<path class="" d="m310.08 277.95-45.28 29.824c-2.688 1.76-5.728 2.624-8.8 2.624s-6.112-0.864-8.8-2.624l-45.28-29.856-200.9 127.07c2.464 15.2 15.072 27.008 30.976 27.008h448c15.904 0 28.512-11.808 30.976-27.008z" fill="#b1b3b4" data-original="#000000"/>
	
















</g></svg>
